M48
; DRILL file {KiCad 9.0.4} date 2025-11-19T22:25:07-0700
; FORMAT={-:-/ absolute / metric / decimal}
; #@! TF.CreationDate,2025-11-19T22:25:07-07:00
; #@! TF.GenerationSoftware,Kicad,Pcbnew,9.0.4
; #@! TF.FileFunction,Plated,1,2,PTH
FMAT,2
METRIC
; #@! TA.AperFunction,Plated,PTH,ComponentDrill
T1C0.600
; #@! TA.AperFunction,Plated,PTH,ComponentDrill
T2C0.650
; #@! TA.AperFunction,Plated,PTH,ComponentDrill
T3C0.680
; #@! TA.AperFunction,Plated,PTH,ComponentDrill
T4C0.800
; #@! TA.AperFunction,Plated,PTH,ComponentDrill
T5C1.000
; #@! TA.AperFunction,Plated,PTH,ComponentDrill
T6C1.600
%
G90
G05
T1
X153.0Y-92.8
X153.0Y-95.34
X153.0Y-97.88
X153.0Y-100.42
X153.0Y-102.96
X153.0Y-105.5
X153.0Y-108.04
X160.62Y-92.8
X160.62Y-95.34
X160.62Y-97.88
X160.62Y-100.42
X160.62Y-102.96
X160.62Y-105.5
X160.62Y-108.04
T2
X171.66Y-65.5
X176.512Y-119.5
X176.74Y-65.5
X179.28Y-65.5
X181.82Y-65.5
X184.36Y-65.5
X186.9Y-65.5
X196.512Y-119.5
T3
X166.58Y-65.5
T4
X108.5Y-69.15
X108.5Y-81.85
X110.0Y-86.0
X110.0Y-98.7
X118.32Y-65.5
X118.32Y-80.5
X119.15Y-125.0
X120.86Y-65.5
X120.86Y-80.5
X121.21Y-108.67
X121.21Y-115.17
X123.4Y-65.5
X123.4Y-80.5
X125.41Y-108.67
X125.41Y-115.17
X125.94Y-65.5
X125.94Y-80.5
X128.48Y-65.5
X128.48Y-80.5
X131.02Y-65.5
X131.02Y-80.5
X131.85Y-125.0
X132.96Y-114.92
X133.56Y-65.5
X133.56Y-80.5
X136.1Y-65.5
X136.1Y-80.5
X138.15Y-87.0
X138.64Y-65.5
X138.64Y-80.5
X141.11Y-121.42
X141.18Y-65.5
X141.18Y-80.5
X143.72Y-65.5
X143.72Y-80.5
X145.66Y-114.92
X146.26Y-65.5
X146.26Y-80.5
X148.8Y-65.5
X148.8Y-80.5
X150.85Y-87.0
X151.34Y-65.5
X151.34Y-80.5
X153.81Y-121.42
X153.88Y-65.5
X153.88Y-80.5
X156.42Y-65.5
X156.42Y-80.5
X158.96Y-65.5
X158.96Y-80.5
X161.5Y-65.5
X161.5Y-80.5
X164.04Y-65.5
X164.04Y-80.5
X166.58Y-80.5
X167.12Y-119.42
X167.43Y-110.42
X167.62Y-101.42
X169.12Y-65.5
X169.12Y-80.5
X170.81Y-88.09
X170.81Y-90.63
X171.66Y-80.5
X172.12Y-119.42
X172.43Y-110.42
X172.62Y-101.42
X173.35Y-88.09
X173.35Y-90.63
X174.2Y-65.5
X174.2Y-80.5
X175.89Y-88.09
X175.89Y-90.63
X176.74Y-80.5
X178.43Y-88.09
X178.43Y-90.63
X179.28Y-80.5
X181.82Y-80.5
X184.36Y-80.5
X186.9Y-80.5
X189.96Y-87.5
X192.5Y-87.5
X194.5Y-68.0
X194.5Y-80.7
X195.04Y-87.5
T5
X186.762Y-126.0
X193.5Y-126.0
T6
X185.0Y-97.5
X185.0Y-103.5
X189.7Y-100.5
M30
