%TF.GenerationSoftware,KiCad,Pcbnew,9.0.4*%
%TF.CreationDate,2025-11-19T22:25:04-07:00*%
%TF.ProjectId,PIC circuit,50494320-6369-4726-9375-69742e6b6963,rev?*%
%TF.SameCoordinates,Original*%
%TF.FileFunction,Soldermask,Top*%
%TF.FilePolarity,Negative*%
%FSLAX46Y46*%
G04 Gerber Fmt 4.6, Leading zero omitted, Abs format (unit mm)*
G04 Created by KiCad (PCBNEW 9.0.4) date 2025-11-19 22:25:04*
%MOMM*%
%LPD*%
G01*
G04 APERTURE LIST*
%ADD10C,2.600000*%
%ADD11R,2.600000X2.600000*%
%ADD12C,1.800000*%
%ADD13C,1.600000*%
%ADD14C,1.250000*%
%ADD15C,1.500000*%
%ADD16C,2.000000*%
%ADD17C,1.701800*%
%ADD18C,1.700000*%
%ADD19O,1.700000X1.700000*%
G04 APERTURE END LIST*
D10*
%TO.C,J1*%
X189700000Y-100500000D03*
X185000000Y-103500000D03*
D11*
X185000000Y-97500000D03*
%TD*%
D12*
%TO.C,U1*%
X189960000Y-87500000D03*
X192500000Y-87500000D03*
X195040000Y-87500000D03*
%TD*%
D13*
%TO.C,R5*%
X108500000Y-69150000D03*
X108500000Y-81850000D03*
%TD*%
%TO.C,C3*%
X172120000Y-119420000D03*
X167120000Y-119420000D03*
%TD*%
%TO.C,R1*%
X138150000Y-87000000D03*
X150850000Y-87000000D03*
%TD*%
%TO.C,R3*%
X194500000Y-80700000D03*
X194500000Y-68000000D03*
%TD*%
D14*
%TO.C,D1*%
X111300000Y-105100000D03*
X108500000Y-105100000D03*
%TD*%
D13*
%TO.C,R6*%
X132960000Y-114920000D03*
X145660000Y-114920000D03*
%TD*%
D15*
%TO.C,F1*%
X176512500Y-119500000D03*
X196512500Y-119500000D03*
%TD*%
D13*
%TO.C,C2*%
X167430000Y-110420000D03*
X172430000Y-110420000D03*
%TD*%
D16*
%TO.C,TP1*%
X193500000Y-126000000D03*
%TD*%
D13*
%TO.C,R4*%
X141110000Y-121420000D03*
X153810000Y-121420000D03*
%TD*%
%TO.C,R2*%
X110000000Y-98700000D03*
X110000000Y-86000000D03*
%TD*%
D16*
%TO.C,TP2*%
X186762500Y-126000000D03*
%TD*%
D17*
%TO.C,J2*%
X170810000Y-90630200D03*
X170810000Y-88090200D03*
X173350000Y-90630200D03*
X173350000Y-88090200D03*
X175890000Y-90630200D03*
X175890000Y-88090200D03*
X178430000Y-90630200D03*
X178430000Y-88090200D03*
%TD*%
D14*
%TO.C,D5*%
X148565000Y-126420000D03*
X151365000Y-126420000D03*
%TD*%
D18*
%TO.C,U2*%
X118320000Y-80500000D03*
X120860000Y-80500000D03*
X123400000Y-80500000D03*
X125940000Y-80500000D03*
X128480000Y-80500000D03*
X131020000Y-80500000D03*
X133560000Y-80500000D03*
X136100000Y-80500000D03*
X138640000Y-80500000D03*
X141180000Y-80500000D03*
X143720000Y-80500000D03*
X146260000Y-80500000D03*
X148800000Y-80500000D03*
X151340000Y-80500000D03*
X153880000Y-80500000D03*
X156420000Y-80500000D03*
X158960000Y-80500000D03*
X161500000Y-80500000D03*
X164040000Y-80500000D03*
X166580000Y-80500000D03*
X169120000Y-80500000D03*
X171660000Y-80500000D03*
X174200000Y-80500000D03*
X176740000Y-80500000D03*
X179280000Y-80500000D03*
X181820000Y-80500000D03*
X184360000Y-80500000D03*
X186900000Y-80500000D03*
D15*
X186900000Y-65500000D03*
X184360000Y-65500000D03*
X181820000Y-65500000D03*
X179280000Y-65500000D03*
X176740000Y-65500000D03*
D18*
X174200000Y-65500000D03*
D15*
X171660000Y-65500000D03*
D18*
X169120000Y-65500000D03*
X166580000Y-65500000D03*
X164040000Y-65500000D03*
X161500000Y-65500000D03*
X158960000Y-65500000D03*
X156420000Y-65500000D03*
X153880000Y-65500000D03*
X151340000Y-65500000D03*
X148800000Y-65500000D03*
X146260000Y-65500000D03*
X143720000Y-65500000D03*
X141180000Y-65500000D03*
X138640000Y-65500000D03*
X136100000Y-65500000D03*
X133560000Y-65500000D03*
X131020000Y-65500000D03*
X128480000Y-65500000D03*
X125940000Y-65500000D03*
X123400000Y-65500000D03*
X120860000Y-65500000D03*
X118320000Y-65500000D03*
%TD*%
D13*
%TO.C,R_sensor_RAD1*%
X119150000Y-125000000D03*
X131850000Y-125000000D03*
%TD*%
%TO.C,C1*%
X167620000Y-101420000D03*
X172620000Y-101420000D03*
%TD*%
D15*
%TO.C,MCP6004_RAD1*%
X153000000Y-92800000D03*
X153000000Y-95340000D03*
X153000000Y-97880000D03*
X153000000Y-100420000D03*
X153000000Y-102960000D03*
X153000000Y-105500000D03*
X153000000Y-108040000D03*
X160620000Y-108040000D03*
X160620000Y-105500000D03*
X160620000Y-102960000D03*
X160620000Y-100420000D03*
X160620000Y-97880000D03*
X160620000Y-95340000D03*
X160620000Y-92800000D03*
%TD*%
D14*
%TO.C,D3*%
X137410000Y-125920000D03*
X140210000Y-125920000D03*
%TD*%
%TO.C,D4*%
X163010000Y-125920000D03*
X165810000Y-125920000D03*
%TD*%
D19*
%TO.C,SW1*%
X121210000Y-115170000D03*
X125410000Y-115170000D03*
X125410000Y-108670000D03*
X121210000Y-108670000D03*
%TD*%
M02*
