%TF.GenerationSoftware,KiCad,Pcbnew,9.0.4*%
%TF.CreationDate,2025-11-19T22:25:03-07:00*%
%TF.ProjectId,PIC circuit,50494320-6369-4726-9375-69742e6b6963,rev?*%
%TF.SameCoordinates,Original*%
%TF.FileFunction,Copper,L2,Bot*%
%TF.FilePolarity,Positive*%
%FSLAX46Y46*%
G04 Gerber Fmt 4.6, Leading zero omitted, Abs format (unit mm)*
G04 Created by KiCad (PCBNEW 9.0.4) date 2025-11-19 22:25:03*
%MOMM*%
%LPD*%
G01*
G04 APERTURE LIST*
%TA.AperFunction,ComponentPad*%
%ADD10C,2.600000*%
%TD*%
%TA.AperFunction,ComponentPad*%
%ADD11R,2.600000X2.600000*%
%TD*%
%TA.AperFunction,ComponentPad*%
%ADD12C,1.800000*%
%TD*%
%TA.AperFunction,ComponentPad*%
%ADD13C,1.600000*%
%TD*%
%TA.AperFunction,ComponentPad*%
%ADD14C,1.500000*%
%TD*%
%TA.AperFunction,ComponentPad*%
%ADD15C,2.000000*%
%TD*%
%TA.AperFunction,ComponentPad*%
%ADD16C,1.701800*%
%TD*%
%TA.AperFunction,ComponentPad*%
%ADD17C,1.700000*%
%TD*%
%TA.AperFunction,ComponentPad*%
%ADD18O,1.700000X1.700000*%
%TD*%
%TA.AperFunction,Conductor*%
%ADD19C,0.381000*%
%TD*%
G04 APERTURE END LIST*
D10*
%TO.P,J1,3*%
%TO.N,N/C*%
X189700000Y-100500000D03*
%TO.P,J1,2*%
X185000000Y-103500000D03*
D11*
%TO.P,J1,1*%
X185000000Y-97500000D03*
%TD*%
D12*
%TO.P,U1,1,input*%
%TO.N,N/C*%
X189960000Y-87500000D03*
%TO.P,U1,2,ground*%
X192500000Y-87500000D03*
%TO.P,U1,3,output*%
X195040000Y-87500000D03*
%TD*%
D13*
%TO.P,R5,2*%
%TO.N,/RC3*%
X108500000Y-69150000D03*
%TO.P,R5,1*%
%TO.N,Net-(D4-A)*%
X108500000Y-81850000D03*
%TD*%
%TO.P,C3,2*%
%TO.N,Earth*%
X172120000Y-119420000D03*
%TO.P,C3,1*%
%TO.N,+5V*%
X167120000Y-119420000D03*
%TD*%
%TO.P,R1,1*%
%TO.N,/RA0*%
X138150000Y-87000000D03*
%TO.P,R1,2*%
%TO.N,Net-(MCP6004_RAD1-Vina-)*%
X150850000Y-87000000D03*
%TD*%
%TO.P,R3,1*%
%TO.N,+5V*%
X194500000Y-80700000D03*
%TO.P,R3,2*%
%TO.N,Net-(U2-RC6)*%
X194500000Y-68000000D03*
%TD*%
%TO.P,R6,1*%
%TO.N,Net-(D3-A)*%
X132960000Y-114920000D03*
%TO.P,R6,2*%
%TO.N,/RC2*%
X145660000Y-114920000D03*
%TD*%
D14*
%TO.P,F1,1*%
%TO.N,Net-(U1-output)*%
X176512500Y-119500000D03*
%TO.P,F1,2*%
%TO.N,+5V*%
X196512500Y-119500000D03*
%TD*%
D13*
%TO.P,C2,1*%
%TO.N,Net-(U1-output)*%
X167430000Y-110420000D03*
%TO.P,C2,2*%
%TO.N,Earth*%
X172430000Y-110420000D03*
%TD*%
D15*
%TO.P,TP1,1,1*%
%TO.N,Earth*%
X193500000Y-126000000D03*
%TD*%
D13*
%TO.P,R4,1*%
%TO.N,Net-(D5-A)*%
X141110000Y-121420000D03*
%TO.P,R4,2*%
%TO.N,/RA3*%
X153810000Y-121420000D03*
%TD*%
%TO.P,R2,1*%
%TO.N,Net-(D1-A)*%
X110000000Y-98700000D03*
%TO.P,R2,2*%
%TO.N,/RC4*%
X110000000Y-86000000D03*
%TD*%
D15*
%TO.P,TP2,1,1*%
%TO.N,+9V*%
X186762500Y-126000000D03*
%TD*%
D16*
%TO.P,J2,1,Pin_1*%
%TO.N,/TX*%
X170810000Y-90630200D03*
%TO.P,J2,2,Pin_2*%
%TO.N,/RX*%
X170810000Y-88090200D03*
%TO.P,J2,3,Pin_3*%
%TO.N,unconnected-(J2-Pin_3-Pad3)*%
X173350000Y-90630200D03*
%TO.P,J2,4,Pin_4*%
%TO.N,unconnected-(J2-Pin_4-Pad4)*%
X173350000Y-88090200D03*
%TO.P,J2,5,Pin_5*%
%TO.N,unconnected-(J2-Pin_5-Pad5)*%
X175890000Y-90630200D03*
%TO.P,J2,6,Pin_6*%
%TO.N,unconnected-(J2-Pin_6-Pad6)*%
X175890000Y-88090200D03*
%TO.P,J2,7,Pin_7*%
%TO.N,+5V*%
X178430000Y-90630200D03*
%TO.P,J2,8,Pin_8*%
%TO.N,Earth*%
X178430000Y-88090200D03*
%TD*%
D17*
%TO.P,U2,1,NC*%
%TO.N,unconnected-(U2-NC-Pad1)*%
X118320000Y-80500000D03*
%TO.P,U2,2,ID*%
%TO.N,unconnected-(U2-ID-Pad2)*%
X120860000Y-80500000D03*
%TO.P,U2,3,UART_TX/CDC_RX*%
%TO.N,unconnected-(U2-UART_TX{slash}CDC_RX-Pad3)*%
X123400000Y-80500000D03*
%TO.P,U2,4,UART_RX/CDC_TX*%
%TO.N,unconnected-(U2-UART_RX{slash}CDC_TX-Pad4)*%
X125940000Y-80500000D03*
%TO.P,U2,5,DBG1*%
%TO.N,unconnected-(U2-DBG1-Pad5)*%
X128480000Y-80500000D03*
%TO.P,U2,6,DBG2*%
%TO.N,unconnected-(U2-DBG2-Pad6)*%
X131020000Y-80500000D03*
%TO.P,U2,7,RC2*%
%TO.N,/RC2*%
X133560000Y-80500000D03*
%TO.P,U2,8,RC3*%
%TO.N,/RC3*%
X136100000Y-80500000D03*
%TO.P,U2,9,RB2*%
%TO.N,unconnected-(U2-RB2-Pad9)*%
X138640000Y-80500000D03*
%TO.P,U2,10,RB1*%
%TO.N,unconnected-(U2-RB1-Pad10)*%
X141180000Y-80500000D03*
%TO.P,U2,11,RC4*%
%TO.N,/RC4*%
X143720000Y-80500000D03*
%TO.P,U2,12,RC5*%
%TO.N,unconnected-(U2-RC5-Pad12)*%
X146260000Y-80500000D03*
%TO.P,U2,13,RC6*%
%TO.N,Net-(U2-RC6)*%
X148800000Y-80500000D03*
%TO.P,U2,14,RC4*%
%TO.N,unconnected-(U2-RC4-Pad14)*%
X151340000Y-80500000D03*
%TO.P,U2,15,GND*%
%TO.N,Earth*%
X153880000Y-80500000D03*
%TO.P,U2,16,RA3*%
%TO.N,/RA3*%
X156420000Y-80500000D03*
%TO.P,U2,17,RA4*%
%TO.N,unconnected-(U2-RA4-Pad17)*%
X158960000Y-80500000D03*
%TO.P,U2,18,RE2*%
%TO.N,unconnected-(U2-RE2-Pad18)*%
X161500000Y-80500000D03*
%TO.P,U2,19,RC7*%
%TO.N,unconnected-(U2-RC7-Pad19)*%
X164040000Y-80500000D03*
%TO.P,U2,20,RD0*%
%TO.N,unconnected-(U2-RD0-Pad20)*%
X166580000Y-80500000D03*
%TO.P,U2,21,RD1*%
%TO.N,unconnected-(U2-RD1-Pad21)*%
X169120000Y-80500000D03*
%TO.P,U2,22,RD2*%
%TO.N,unconnected-(U2-RD2-Pad22)*%
X171660000Y-80500000D03*
%TO.P,U2,23,RD3*%
%TO.N,unconnected-(U2-RD3-Pad23)*%
X174200000Y-80500000D03*
%TO.P,U2,24,GND*%
%TO.N,Earth*%
X176740000Y-80500000D03*
%TO.P,U2,25,RF0*%
%TO.N,/RX*%
X179280000Y-80500000D03*
%TO.P,U2,26,RF1*%
%TO.N,/TX*%
X181820000Y-80500000D03*
%TO.P,U2,27,RF2*%
%TO.N,unconnected-(U2-RF2-Pad27)*%
X184360000Y-80500000D03*
%TO.P,U2,28,RF3*%
%TO.N,unconnected-(U2-RF3-Pad28)*%
X186900000Y-80500000D03*
D14*
%TO.P,U2,29,RC0*%
%TO.N,unconnected-(U2-RC0-Pad29)*%
X186900000Y-65500000D03*
%TO.P,U2,30,RC1*%
%TO.N,unconnected-(U2-RC1-Pad30)*%
X184360000Y-65500000D03*
%TO.P,U2,31,RE0*%
%TO.N,unconnected-(U2-RE0-Pad31)*%
X181820000Y-65500000D03*
%TO.P,U2,32,RE1*%
%TO.N,unconnected-(U2-RE1-Pad32)*%
X179280000Y-65500000D03*
%TO.P,U2,33,GND*%
%TO.N,Earth*%
X176740000Y-65500000D03*
D17*
%TO.P,U2,34,RF4*%
%TO.N,unconnected-(U2-RF4-Pad34)*%
X174200000Y-65500000D03*
D14*
%TO.P,U2,35,RF5*%
%TO.N,unconnected-(U2-RF5-Pad35)*%
X171660000Y-65500000D03*
D17*
%TO.P,U2,36,RF6*%
%TO.N,unconnected-(U2-RF6-Pad36)*%
X169120000Y-65500000D03*
%TO.P,U2,37,RF7*%
%TO.N,unconnected-(U2-RF7-Pad37)*%
X166580000Y-65500000D03*
%TO.P,U2,38,RB5*%
%TO.N,unconnected-(U2-RB5-Pad38)*%
X164040000Y-65500000D03*
%TO.P,U2,39,RD5*%
%TO.N,unconnected-(U2-RD5-Pad39)*%
X161500000Y-65500000D03*
%TO.P,U2,40,RD6*%
%TO.N,unconnected-(U2-RD6-Pad40)*%
X158960000Y-65500000D03*
%TO.P,U2,41,RD7*%
%TO.N,unconnected-(U2-RD7-Pad41)*%
X156420000Y-65500000D03*
%TO.P,U2,42,GND*%
%TO.N,Earth*%
X153880000Y-65500000D03*
%TO.P,U2,43,RA0*%
%TO.N,/RA0*%
X151340000Y-65500000D03*
%TO.P,U2,44,RA1*%
%TO.N,unconnected-(U2-RA1-Pad44)*%
X148800000Y-65500000D03*
%TO.P,U2,45,RA2*%
%TO.N,unconnected-(U2-RA2-Pad45)*%
X146260000Y-65500000D03*
%TO.P,U2,46,RB0*%
%TO.N,unconnected-(U2-RB0-Pad46)*%
X143720000Y-65500000D03*
%TO.P,U2,47,RB3*%
%TO.N,unconnected-(U2-RB3-Pad47)*%
X141180000Y-65500000D03*
%TO.P,U2,48,RA5*%
%TO.N,unconnected-(U2-RA5-Pad48)*%
X138640000Y-65500000D03*
%TO.P,U2,49,RA6*%
%TO.N,unconnected-(U2-RA6-Pad49)*%
X136100000Y-65500000D03*
%TO.P,U2,50,RA7*%
%TO.N,unconnected-(U2-RA7-Pad50)*%
X133560000Y-65500000D03*
%TO.P,U2,51,VTG*%
%TO.N,+5V*%
X131020000Y-65500000D03*
%TO.P,U2,52,GND*%
%TO.N,Earth*%
X128480000Y-65500000D03*
%TO.P,U2,53,DBG0*%
%TO.N,unconnected-(U2-DBG0-Pad53)*%
X125940000Y-65500000D03*
%TO.P,U2,54,DBG3*%
%TO.N,unconnected-(U2-DBG3-Pad54)*%
X123400000Y-65500000D03*
%TO.P,U2,55,VOFF*%
%TO.N,Earth*%
X120860000Y-65500000D03*
%TO.P,U2,56,VBUS*%
%TO.N,unconnected-(U2-VBUS-Pad56)*%
X118320000Y-65500000D03*
%TD*%
D13*
%TO.P,R_sensor_RAD1,1*%
%TO.N,Earth*%
X119150000Y-125000000D03*
%TO.P,R_sensor_RAD1,2*%
%TO.N,+5V*%
X131850000Y-125000000D03*
%TD*%
%TO.P,C1,1*%
%TO.N,+9V*%
X167620000Y-101420000D03*
%TO.P,C1,2*%
%TO.N,Earth*%
X172620000Y-101420000D03*
%TD*%
D14*
%TO.P,MCP6004_RAD1,1,Vouta*%
%TO.N,/RA0*%
X153000000Y-92800000D03*
%TO.P,MCP6004_RAD1,2,Vina-*%
%TO.N,Net-(MCP6004_RAD1-Vina-)*%
X153000000Y-95340000D03*
%TO.P,MCP6004_RAD1,3,Vina+*%
%TO.N,Earth*%
X153000000Y-97880000D03*
%TO.P,MCP6004_RAD1,4,Vdd*%
%TO.N,+5V*%
X153000000Y-100420000D03*
%TO.P,MCP6004_RAD1,5,Vinb+*%
%TO.N,unconnected-(MCP6004_RAD1-Vinb+-Pad5)*%
X153000000Y-102960000D03*
%TO.P,MCP6004_RAD1,6,Vinb-*%
%TO.N,unconnected-(MCP6004_RAD1-Vinb--Pad6)*%
X153000000Y-105500000D03*
%TO.P,MCP6004_RAD1,7,Voutb*%
%TO.N,unconnected-(MCP6004_RAD1-Voutb-Pad7)*%
X153000000Y-108040000D03*
%TO.P,MCP6004_RAD1,8,Voutc*%
%TO.N,unconnected-(MCP6004_RAD1-Voutc-Pad8)*%
X160620000Y-108040000D03*
%TO.P,MCP6004_RAD1,9,Vinc-*%
%TO.N,unconnected-(MCP6004_RAD1-Vinc--Pad9)*%
X160620000Y-105500000D03*
%TO.P,MCP6004_RAD1,10,Vinc+*%
%TO.N,unconnected-(MCP6004_RAD1-Vinc+-Pad10)*%
X160620000Y-102960000D03*
%TO.P,MCP6004_RAD1,11,Vss*%
%TO.N,Earth*%
X160620000Y-100420000D03*
%TO.P,MCP6004_RAD1,12,Vind+*%
%TO.N,unconnected-(MCP6004_RAD1-Vind+-Pad12)*%
X160620000Y-97880000D03*
%TO.P,MCP6004_RAD1,13,Vind*%
%TO.N,unconnected-(MCP6004_RAD1-Vind-Pad13)*%
X160620000Y-95340000D03*
%TO.P,MCP6004_RAD1,14,Voutd*%
%TO.N,unconnected-(MCP6004_RAD1-Voutd-Pad14)*%
X160620000Y-92800000D03*
%TD*%
D18*
%TO.P,SW1,1,1*%
%TO.N,Earth*%
X121210000Y-115170000D03*
%TO.P,SW1,2,2*%
%TO.N,Net-(U2-RC6)*%
X125410000Y-115170000D03*
%TO.P,SW1,3*%
%TO.N,N/C*%
X125410000Y-108670000D03*
%TO.P,SW1,4*%
X121210000Y-108670000D03*
%TD*%
D19*
%TO.N,/RX*%
X170810000Y-88090200D02*
X168500000Y-90400200D01*
X168500000Y-91690693D02*
X161115193Y-99075500D01*
X167870000Y-69000000D02*
X179290000Y-80420000D01*
X168500000Y-90400200D02*
X168500000Y-91690693D01*
X107720657Y-67268500D02*
X131477940Y-67268500D01*
X161115193Y-99075500D02*
X121314097Y-99075500D01*
X133209440Y-69000000D02*
X167870000Y-69000000D01*
X121314097Y-99075500D02*
X106618500Y-84379903D01*
X131477940Y-67268500D02*
X133209440Y-69000000D01*
X106618500Y-84379903D02*
X106618500Y-68370657D01*
X106618500Y-68370657D02*
X107720657Y-67268500D01*
%TO.N,+9V*%
X183500000Y-113500000D02*
X183500000Y-122737500D01*
X183500000Y-122737500D02*
X186762500Y-126000000D01*
X183500000Y-113500000D02*
X179700000Y-113500000D01*
X179700000Y-113500000D02*
X167620000Y-101420000D01*
%TO.N,/RC3*%
X136110000Y-80420000D02*
X124840000Y-69150000D01*
X124840000Y-69150000D02*
X108500000Y-69150000D01*
%TO.N,Net-(MCP6004_RAD1-Vina-)*%
X153000000Y-95340000D02*
X150850000Y-93190000D01*
X150850000Y-93190000D02*
X150850000Y-87000000D01*
%TO.N,/RA0*%
X139395500Y-85754500D02*
X138150000Y-87000000D01*
X190810000Y-62420000D02*
X190810000Y-82920000D01*
X190810000Y-82920000D02*
X162880000Y-82920000D01*
X153000000Y-92800000D02*
X153000000Y-87388597D01*
X151365903Y-85754500D02*
X139395500Y-85754500D01*
X162880000Y-82920000D02*
X153000000Y-92800000D01*
X151350000Y-65420000D02*
X154350000Y-62420000D01*
X153000000Y-87388597D02*
X151365903Y-85754500D01*
X154350000Y-62420000D02*
X190810000Y-62420000D01*
%TO.N,Net-(U2-RC6)*%
X124648597Y-115170000D02*
X125410000Y-115170000D01*
%TO.N,/RC4*%
X110000000Y-86000000D02*
X107254500Y-83254500D01*
X107254500Y-83254500D02*
X107254500Y-68634097D01*
X107984097Y-67904500D02*
X131214500Y-67904500D01*
X107254500Y-68634097D02*
X107984097Y-67904500D01*
X131214500Y-67904500D02*
X143730000Y-80420000D01*
%TD*%
%TA.AperFunction,Conductor*%
%TO.N,Earth*%
G36*
X178030000Y-88142861D02*
G01*
X178057259Y-88244594D01*
X178109920Y-88335806D01*
X178184394Y-88410280D01*
X178275606Y-88462941D01*
X178377339Y-88490200D01*
X178383553Y-88490200D01*
X177667636Y-89206114D01*
X177667637Y-89206115D01*
X177721972Y-89245592D01*
X177729512Y-89249434D01*
X177780308Y-89297407D01*
X177797104Y-89365228D01*
X177774567Y-89431363D01*
X177729514Y-89470403D01*
X177721712Y-89474379D01*
X177549622Y-89599410D01*
X177549620Y-89599412D01*
X177549619Y-89599412D01*
X177399212Y-89749819D01*
X177399212Y-89749820D01*
X177399210Y-89749822D01*
X177361646Y-89801523D01*
X177274177Y-89921913D01*
X177270484Y-89929163D01*
X177222510Y-89979958D01*
X177154689Y-89996753D01*
X177088554Y-89974215D01*
X177049516Y-89929163D01*
X177045822Y-89921913D01*
X177027039Y-89896061D01*
X176920790Y-89749822D01*
X176770378Y-89599410D01*
X176598288Y-89474379D01*
X176591039Y-89470685D01*
X176540243Y-89422714D01*
X176523446Y-89354893D01*
X176545981Y-89288757D01*
X176591040Y-89249714D01*
X176598288Y-89246021D01*
X176770378Y-89120990D01*
X176920790Y-88970578D01*
X177045821Y-88798488D01*
X177049792Y-88790693D01*
X177097761Y-88739895D01*
X177165581Y-88723094D01*
X177231718Y-88745627D01*
X177270764Y-88790684D01*
X177274608Y-88798229D01*
X177314083Y-88852561D01*
X177314085Y-88852561D01*
X178030000Y-88136646D01*
X178030000Y-88142861D01*
G37*
%TD.AperFunction*%
%TA.AperFunction,Conductor*%
G36*
X167599455Y-69710685D02*
G01*
X167620097Y-69727319D01*
X176831098Y-78938319D01*
X176864583Y-78999642D01*
X176859599Y-79069334D01*
X176817727Y-79125267D01*
X176752263Y-79149684D01*
X176743417Y-79150000D01*
X176633754Y-79150000D01*
X176423872Y-79183242D01*
X176423869Y-79183242D01*
X176221782Y-79248904D01*
X176032439Y-79345380D01*
X175978282Y-79384727D01*
X175978282Y-79384728D01*
X176693554Y-80100000D01*
X176687339Y-80100000D01*
X176585606Y-80127259D01*
X176494394Y-80179920D01*
X176419920Y-80254394D01*
X176367259Y-80345606D01*
X176340000Y-80447339D01*
X176340000Y-80453554D01*
X175624728Y-79738282D01*
X175624727Y-79738282D01*
X175585380Y-79792440D01*
X175585376Y-79792446D01*
X175580760Y-79801505D01*
X175532781Y-79852297D01*
X175464959Y-79869087D01*
X175398826Y-79846543D01*
X175359794Y-79801493D01*
X175355051Y-79792184D01*
X175355049Y-79792181D01*
X175355048Y-79792179D01*
X175230109Y-79620213D01*
X175079786Y-79469890D01*
X174907820Y-79344951D01*
X174718414Y-79248444D01*
X174718413Y-79248443D01*
X174718412Y-79248443D01*
X174516243Y-79182754D01*
X174516241Y-79182753D01*
X174516240Y-79182753D01*
X174354957Y-79157208D01*
X174306287Y-79149500D01*
X174093713Y-79149500D01*
X174045042Y-79157208D01*
X173883760Y-79182753D01*
X173681585Y-79248444D01*
X173492179Y-79344951D01*
X173320213Y-79469890D01*
X173169890Y-79620213D01*
X173044949Y-79792182D01*
X173040484Y-79800946D01*
X172992509Y-79851742D01*
X172924688Y-79868536D01*
X172858553Y-79845998D01*
X172819516Y-79800946D01*
X172815050Y-79792182D01*
X172690109Y-79620213D01*
X172539786Y-79469890D01*
X172367820Y-79344951D01*
X172178414Y-79248444D01*
X172178413Y-79248443D01*
X172178412Y-79248443D01*
X171976243Y-79182754D01*
X171976241Y-79182753D01*
X171976240Y-79182753D01*
X171814957Y-79157208D01*
X171766287Y-79149500D01*
X171553713Y-79149500D01*
X171505042Y-79157208D01*
X171343760Y-79182753D01*
X171141585Y-79248444D01*
X170952179Y-79344951D01*
X170780213Y-79469890D01*
X170629890Y-79620213D01*
X170504949Y-79792182D01*
X170500484Y-79800946D01*
X170452509Y-79851742D01*
X170384688Y-79868536D01*
X170318553Y-79845998D01*
X170279516Y-79800946D01*
X170275050Y-79792182D01*
X170150109Y-79620213D01*
X169999786Y-79469890D01*
X169827820Y-79344951D01*
X169638414Y-79248444D01*
X169638413Y-79248443D01*
X169638412Y-79248443D01*
X169436243Y-79182754D01*
X169436241Y-79182753D01*
X169436240Y-79182753D01*
X169274957Y-79157208D01*
X169226287Y-79149500D01*
X169013713Y-79149500D01*
X168965042Y-79157208D01*
X168803760Y-79182753D01*
X168601585Y-79248444D01*
X168412179Y-79344951D01*
X168240213Y-79469890D01*
X168089890Y-79620213D01*
X167964949Y-79792182D01*
X167960484Y-79800946D01*
X167912509Y-79851742D01*
X167844688Y-79868536D01*
X167778553Y-79845998D01*
X167739516Y-79800946D01*
X167735050Y-79792182D01*
X167610109Y-79620213D01*
X167459786Y-79469890D01*
X167287820Y-79344951D01*
X167098414Y-79248444D01*
X167098413Y-79248443D01*
X167098412Y-79248443D01*
X166896243Y-79182754D01*
X166896241Y-79182753D01*
X166896240Y-79182753D01*
X166734957Y-79157208D01*
X166686287Y-79149500D01*
X166473713Y-79149500D01*
X166425042Y-79157208D01*
X166263760Y-79182753D01*
X166061585Y-79248444D01*
X165872179Y-79344951D01*
X165700213Y-79469890D01*
X165549890Y-79620213D01*
X165424949Y-79792182D01*
X165420484Y-79800946D01*
X165372509Y-79851742D01*
X165304688Y-79868536D01*
X165238553Y-79845998D01*
X165199516Y-79800946D01*
X165195050Y-79792182D01*
X165070109Y-79620213D01*
X164919786Y-79469890D01*
X164747820Y-79344951D01*
X164558414Y-79248444D01*
X164558413Y-79248443D01*
X164558412Y-79248443D01*
X164356243Y-79182754D01*
X164356241Y-79182753D01*
X164356240Y-79182753D01*
X164194957Y-79157208D01*
X164146287Y-79149500D01*
X163933713Y-79149500D01*
X163885042Y-79157208D01*
X163723760Y-79182753D01*
X163521585Y-79248444D01*
X163332179Y-79344951D01*
X163160213Y-79469890D01*
X163009890Y-79620213D01*
X162884949Y-79792182D01*
X162880484Y-79800946D01*
X162832509Y-79851742D01*
X162764688Y-79868536D01*
X162698553Y-79845998D01*
X162659516Y-79800946D01*
X162655050Y-79792182D01*
X162530109Y-79620213D01*
X162379786Y-79469890D01*
X162207820Y-79344951D01*
X162018414Y-79248444D01*
X162018413Y-79248443D01*
X162018412Y-79248443D01*
X161816243Y-79182754D01*
X161816241Y-79182753D01*
X161816240Y-79182753D01*
X161654957Y-79157208D01*
X161606287Y-79149500D01*
X161393713Y-79149500D01*
X161345042Y-79157208D01*
X161183760Y-79182753D01*
X160981585Y-79248444D01*
X160792179Y-79344951D01*
X160620213Y-79469890D01*
X160469890Y-79620213D01*
X160344949Y-79792182D01*
X160340484Y-79800946D01*
X160292509Y-79851742D01*
X160224688Y-79868536D01*
X160158553Y-79845998D01*
X160119516Y-79800946D01*
X160115050Y-79792182D01*
X159990109Y-79620213D01*
X159839786Y-79469890D01*
X159667820Y-79344951D01*
X159478414Y-79248444D01*
X159478413Y-79248443D01*
X159478412Y-79248443D01*
X159276243Y-79182754D01*
X159276241Y-79182753D01*
X159276240Y-79182753D01*
X159114957Y-79157208D01*
X159066287Y-79149500D01*
X158853713Y-79149500D01*
X158805042Y-79157208D01*
X158643760Y-79182753D01*
X158441585Y-79248444D01*
X158252179Y-79344951D01*
X158080213Y-79469890D01*
X157929890Y-79620213D01*
X157804949Y-79792182D01*
X157800484Y-79800946D01*
X157752509Y-79851742D01*
X157684688Y-79868536D01*
X157618553Y-79845998D01*
X157579516Y-79800946D01*
X157575050Y-79792182D01*
X157450109Y-79620213D01*
X157299786Y-79469890D01*
X157127820Y-79344951D01*
X156938414Y-79248444D01*
X156938413Y-79248443D01*
X156938412Y-79248443D01*
X156736243Y-79182754D01*
X156736241Y-79182753D01*
X156736240Y-79182753D01*
X156574957Y-79157208D01*
X156526287Y-79149500D01*
X156313713Y-79149500D01*
X156265042Y-79157208D01*
X156103760Y-79182753D01*
X155901585Y-79248444D01*
X155712179Y-79344951D01*
X155540213Y-79469890D01*
X155389890Y-79620213D01*
X155264949Y-79792182D01*
X155260202Y-79801499D01*
X155212227Y-79852293D01*
X155144405Y-79869087D01*
X155078271Y-79846548D01*
X155039234Y-79801495D01*
X155034626Y-79792452D01*
X154995270Y-79738282D01*
X154995269Y-79738282D01*
X154280000Y-80453552D01*
X154280000Y-80447339D01*
X154252741Y-80345606D01*
X154200080Y-80254394D01*
X154125606Y-80179920D01*
X154034394Y-80127259D01*
X153932661Y-80100000D01*
X153926447Y-80100000D01*
X154641716Y-79384728D01*
X154587550Y-79345375D01*
X154398217Y-79248904D01*
X154196129Y-79183242D01*
X153986246Y-79150000D01*
X153773754Y-79150000D01*
X153563872Y-79183242D01*
X153563869Y-79183242D01*
X153361782Y-79248904D01*
X153172439Y-79345380D01*
X153118282Y-79384727D01*
X153118282Y-79384728D01*
X153833554Y-80100000D01*
X153827339Y-80100000D01*
X153725606Y-80127259D01*
X153634394Y-80179920D01*
X153559920Y-80254394D01*
X153507259Y-80345606D01*
X153480000Y-80447339D01*
X153480000Y-80453554D01*
X152764728Y-79738282D01*
X152764727Y-79738282D01*
X152725380Y-79792440D01*
X152725376Y-79792446D01*
X152720760Y-79801505D01*
X152672781Y-79852297D01*
X152604959Y-79869087D01*
X152538826Y-79846543D01*
X152499794Y-79801493D01*
X152495051Y-79792184D01*
X152495049Y-79792181D01*
X152495048Y-79792179D01*
X152370109Y-79620213D01*
X152219786Y-79469890D01*
X152047820Y-79344951D01*
X151858414Y-79248444D01*
X151858413Y-79248443D01*
X151858412Y-79248443D01*
X151656243Y-79182754D01*
X151656241Y-79182753D01*
X151656240Y-79182753D01*
X151494957Y-79157208D01*
X151446287Y-79149500D01*
X151233713Y-79149500D01*
X151185042Y-79157208D01*
X151023760Y-79182753D01*
X150821585Y-79248444D01*
X150632179Y-79344951D01*
X150460213Y-79469890D01*
X150309890Y-79620213D01*
X150184949Y-79792182D01*
X150180484Y-79800946D01*
X150132509Y-79851742D01*
X150064688Y-79868536D01*
X149998553Y-79845998D01*
X149959516Y-79800946D01*
X149955050Y-79792182D01*
X149830109Y-79620213D01*
X149679786Y-79469890D01*
X149507820Y-79344951D01*
X149318414Y-79248444D01*
X149318413Y-79248443D01*
X149318412Y-79248443D01*
X149116243Y-79182754D01*
X149116241Y-79182753D01*
X149116240Y-79182753D01*
X148954957Y-79157208D01*
X148906287Y-79149500D01*
X148693713Y-79149500D01*
X148645042Y-79157208D01*
X148483760Y-79182753D01*
X148281585Y-79248444D01*
X148092179Y-79344951D01*
X147920213Y-79469890D01*
X147769890Y-79620213D01*
X147644949Y-79792182D01*
X147640484Y-79800946D01*
X147592509Y-79851742D01*
X147524688Y-79868536D01*
X147458553Y-79845998D01*
X147419516Y-79800946D01*
X147415050Y-79792182D01*
X147290109Y-79620213D01*
X147139786Y-79469890D01*
X146967820Y-79344951D01*
X146778414Y-79248444D01*
X146778413Y-79248443D01*
X146778412Y-79248443D01*
X146576243Y-79182754D01*
X146576241Y-79182753D01*
X146576240Y-79182753D01*
X146414957Y-79157208D01*
X146366287Y-79149500D01*
X146153713Y-79149500D01*
X146105042Y-79157208D01*
X145943760Y-79182753D01*
X145741585Y-79248444D01*
X145552179Y-79344951D01*
X145380213Y-79469890D01*
X145229890Y-79620213D01*
X145104949Y-79792182D01*
X145100484Y-79800946D01*
X145052509Y-79851742D01*
X144984688Y-79868536D01*
X144918553Y-79845998D01*
X144879516Y-79800946D01*
X144875050Y-79792182D01*
X144750109Y-79620213D01*
X144599786Y-79469890D01*
X144427820Y-79344951D01*
X144238414Y-79248444D01*
X144238413Y-79248443D01*
X144238412Y-79248443D01*
X144036243Y-79182754D01*
X144036241Y-79182753D01*
X144036240Y-79182753D01*
X143874957Y-79157208D01*
X143826287Y-79149500D01*
X143613713Y-79149500D01*
X143523323Y-79163816D01*
X143454030Y-79154861D01*
X143416245Y-79129024D01*
X134189903Y-69902681D01*
X134156418Y-69841358D01*
X134161402Y-69771666D01*
X134203274Y-69715733D01*
X134268738Y-69691316D01*
X134277584Y-69691000D01*
X167532416Y-69691000D01*
X167599455Y-69710685D01*
G37*
%TD.AperFunction*%
%TA.AperFunction,Conductor*%
G36*
X120460000Y-65552661D02*
G01*
X120487259Y-65654394D01*
X120539920Y-65745606D01*
X120614394Y-65820080D01*
X120705606Y-65872741D01*
X120807339Y-65900000D01*
X120813554Y-65900000D01*
X120172373Y-66541181D01*
X120111050Y-66574666D01*
X120084692Y-66577500D01*
X119449825Y-66577500D01*
X119382786Y-66557815D01*
X119337031Y-66505011D01*
X119327087Y-66435853D01*
X119349507Y-66380615D01*
X119475048Y-66207820D01*
X119475051Y-66207816D01*
X119479793Y-66198508D01*
X119527763Y-66147711D01*
X119595583Y-66130911D01*
X119661719Y-66153445D01*
X119700763Y-66198500D01*
X119705373Y-66207547D01*
X119744728Y-66261716D01*
X120460000Y-65546445D01*
X120460000Y-65552661D01*
G37*
%TD.AperFunction*%
%TA.AperFunction,Conductor*%
G36*
X121975270Y-66261717D02*
G01*
X121975270Y-66261716D01*
X122014622Y-66207555D01*
X122019232Y-66198507D01*
X122067205Y-66147709D01*
X122135025Y-66130912D01*
X122201161Y-66153447D01*
X122240204Y-66198504D01*
X122244949Y-66207817D01*
X122370493Y-66380615D01*
X122393973Y-66446422D01*
X122378147Y-66514475D01*
X122328041Y-66563170D01*
X122270175Y-66577500D01*
X121635308Y-66577500D01*
X121568269Y-66557815D01*
X121547627Y-66541181D01*
X120906446Y-65900000D01*
X120912661Y-65900000D01*
X121014394Y-65872741D01*
X121105606Y-65820080D01*
X121180080Y-65745606D01*
X121232741Y-65654394D01*
X121260000Y-65552661D01*
X121260000Y-65546446D01*
X121975270Y-66261717D01*
G37*
%TD.AperFunction*%
%TA.AperFunction,Conductor*%
G36*
X128080000Y-65552661D02*
G01*
X128107259Y-65654394D01*
X128159920Y-65745606D01*
X128234394Y-65820080D01*
X128325606Y-65872741D01*
X128427339Y-65900000D01*
X128433554Y-65900000D01*
X127792373Y-66541181D01*
X127731050Y-66574666D01*
X127704692Y-66577500D01*
X127069825Y-66577500D01*
X127002786Y-66557815D01*
X126957031Y-66505011D01*
X126947087Y-66435853D01*
X126969507Y-66380615D01*
X127095048Y-66207820D01*
X127095051Y-66207816D01*
X127099793Y-66198508D01*
X127147763Y-66147711D01*
X127215583Y-66130911D01*
X127281719Y-66153445D01*
X127320763Y-66198500D01*
X127325373Y-66207547D01*
X127364728Y-66261716D01*
X128080000Y-65546445D01*
X128080000Y-65552661D01*
G37*
%TD.AperFunction*%
%TA.AperFunction,Conductor*%
G36*
X129595270Y-66261717D02*
G01*
X129595270Y-66261716D01*
X129634622Y-66207555D01*
X129639232Y-66198507D01*
X129687205Y-66147709D01*
X129755025Y-66130912D01*
X129821161Y-66153447D01*
X129860204Y-66198504D01*
X129864949Y-66207817D01*
X129990493Y-66380615D01*
X130013973Y-66446422D01*
X129998147Y-66514475D01*
X129948041Y-66563170D01*
X129890175Y-66577500D01*
X129255308Y-66577500D01*
X129188269Y-66557815D01*
X129167627Y-66541181D01*
X128526446Y-65900000D01*
X128532661Y-65900000D01*
X128634394Y-65872741D01*
X128725606Y-65820080D01*
X128800080Y-65745606D01*
X128852741Y-65654394D01*
X128880000Y-65552661D01*
X128880000Y-65546446D01*
X129595270Y-66261717D01*
G37*
%TD.AperFunction*%
%TA.AperFunction,Conductor*%
G36*
X198442539Y-58020185D02*
G01*
X198488294Y-58072989D01*
X198499500Y-58124500D01*
X198499500Y-129875500D01*
X198479815Y-129942539D01*
X198427011Y-129988294D01*
X198375500Y-129999500D01*
X104624500Y-129999500D01*
X104557461Y-129979815D01*
X104511706Y-129927011D01*
X104500500Y-129875500D01*
X104500500Y-124897682D01*
X117850000Y-124897682D01*
X117850000Y-125102317D01*
X117882009Y-125304417D01*
X117945244Y-125499031D01*
X118038141Y-125681350D01*
X118038147Y-125681359D01*
X118070523Y-125725921D01*
X118070524Y-125725922D01*
X118750000Y-125046446D01*
X118750000Y-125052661D01*
X118777259Y-125154394D01*
X118829920Y-125245606D01*
X118904394Y-125320080D01*
X118995606Y-125372741D01*
X119097339Y-125400000D01*
X119103553Y-125400000D01*
X118424076Y-126079474D01*
X118468650Y-126111859D01*
X118650968Y-126204755D01*
X118845582Y-126267990D01*
X119047683Y-126300000D01*
X119252317Y-126300000D01*
X119454417Y-126267990D01*
X119649031Y-126204755D01*
X119831349Y-126111859D01*
X119875921Y-126079474D01*
X119196447Y-125400000D01*
X119202661Y-125400000D01*
X119304394Y-125372741D01*
X119395606Y-125320080D01*
X119470080Y-125245606D01*
X119522741Y-125154394D01*
X119550000Y-125052661D01*
X119550000Y-125046448D01*
X120229474Y-125725922D01*
X120229474Y-125725921D01*
X120261859Y-125681349D01*
X120354755Y-125499031D01*
X120417990Y-125304417D01*
X120450000Y-125102317D01*
X120450000Y-124897682D01*
X120449995Y-124897648D01*
X130549500Y-124897648D01*
X130549500Y-125102351D01*
X130581522Y-125304534D01*
X130644781Y-125499223D01*
X130669006Y-125546766D01*
X130737585Y-125681359D01*
X130737715Y-125681613D01*
X130858028Y-125847213D01*
X131002786Y-125991971D01*
X131104441Y-126065826D01*
X131168390Y-126112287D01*
X131284607Y-126171503D01*
X131350776Y-126205218D01*
X131350778Y-126205218D01*
X131350781Y-126205220D01*
X131455137Y-126239127D01*
X131545465Y-126268477D01*
X131646557Y-126284488D01*
X131747648Y-126300500D01*
X131747649Y-126300500D01*
X131952351Y-126300500D01*
X131952352Y-126300500D01*
X132154534Y-126268477D01*
X132349219Y-126205220D01*
X132531610Y-126112287D01*
X132624590Y-126044732D01*
X132697213Y-125991971D01*
X132697215Y-125991968D01*
X132697219Y-125991966D01*
X132841966Y-125847219D01*
X132841968Y-125847215D01*
X132841971Y-125847213D01*
X132894732Y-125774590D01*
X132962287Y-125681610D01*
X133055220Y-125499219D01*
X133118477Y-125304534D01*
X133150500Y-125102352D01*
X133150500Y-124897648D01*
X133131445Y-124777340D01*
X133118477Y-124695465D01*
X133066967Y-124536934D01*
X133055220Y-124500781D01*
X133055218Y-124500778D01*
X133055218Y-124500776D01*
X132962419Y-124318650D01*
X132962287Y-124318390D01*
X132930092Y-124274077D01*
X132841971Y-124152786D01*
X132697213Y-124008028D01*
X132531613Y-123887715D01*
X132531612Y-123887714D01*
X132531610Y-123887713D01*
X132474653Y-123858691D01*
X132349223Y-123794781D01*
X132154534Y-123731522D01*
X131979995Y-123703878D01*
X131952352Y-123699500D01*
X131747648Y-123699500D01*
X131723329Y-123703351D01*
X131545465Y-123731522D01*
X131350776Y-123794781D01*
X131168386Y-123887715D01*
X131002786Y-124008028D01*
X130858028Y-124152786D01*
X130737715Y-124318386D01*
X130644781Y-124500776D01*
X130581522Y-124695465D01*
X130549500Y-124897648D01*
X120449995Y-124897648D01*
X120417990Y-124695582D01*
X120354755Y-124500968D01*
X120261859Y-124318650D01*
X120229474Y-124274077D01*
X120229474Y-124274076D01*
X119550000Y-124953551D01*
X119550000Y-124947339D01*
X119522741Y-124845606D01*
X119470080Y-124754394D01*
X119395606Y-124679920D01*
X119304394Y-124627259D01*
X119202661Y-124600000D01*
X119196446Y-124600000D01*
X119875922Y-123920524D01*
X119875921Y-123920523D01*
X119831359Y-123888147D01*
X119831350Y-123888141D01*
X119649031Y-123795244D01*
X119454417Y-123732009D01*
X119252317Y-123700000D01*
X119047683Y-123700000D01*
X118845582Y-123732009D01*
X118650968Y-123795244D01*
X118468644Y-123888143D01*
X118424077Y-123920523D01*
X118424077Y-123920524D01*
X119103554Y-124600000D01*
X119097339Y-124600000D01*
X118995606Y-124627259D01*
X118904394Y-124679920D01*
X118829920Y-124754394D01*
X118777259Y-124845606D01*
X118750000Y-124947339D01*
X118750000Y-124953553D01*
X118070524Y-124274077D01*
X118070523Y-124274077D01*
X118038143Y-124318644D01*
X117945244Y-124500968D01*
X117882009Y-124695582D01*
X117850000Y-124897682D01*
X104500500Y-124897682D01*
X104500500Y-121317648D01*
X139809500Y-121317648D01*
X139809500Y-121522351D01*
X139841522Y-121724534D01*
X139904781Y-121919223D01*
X139997715Y-122101613D01*
X140118028Y-122267213D01*
X140262786Y-122411971D01*
X140417749Y-122524556D01*
X140428390Y-122532287D01*
X140544607Y-122591503D01*
X140610776Y-122625218D01*
X140610778Y-122625218D01*
X140610781Y-122625220D01*
X140715137Y-122659127D01*
X140805465Y-122688477D01*
X140906557Y-122704488D01*
X141007648Y-122720500D01*
X141007649Y-122720500D01*
X141212351Y-122720500D01*
X141212352Y-122720500D01*
X141414534Y-122688477D01*
X141609219Y-122625220D01*
X141791610Y-122532287D01*
X141937526Y-122426274D01*
X141957213Y-122411971D01*
X141957215Y-122411968D01*
X141957219Y-122411966D01*
X142101966Y-122267219D01*
X142101968Y-122267215D01*
X142101971Y-122267213D01*
X142154732Y-122194590D01*
X142222287Y-122101610D01*
X142315220Y-121919219D01*
X142378477Y-121724534D01*
X142410500Y-121522352D01*
X142410500Y-121317648D01*
X152509500Y-121317648D01*
X152509500Y-121522351D01*
X152541522Y-121724534D01*
X152604781Y-121919223D01*
X152697715Y-122101613D01*
X152818028Y-122267213D01*
X152962786Y-122411971D01*
X153117749Y-122524556D01*
X153128390Y-122532287D01*
X153244607Y-122591503D01*
X153310776Y-122625218D01*
X153310778Y-122625218D01*
X153310781Y-122625220D01*
X153415137Y-122659127D01*
X153505465Y-122688477D01*
X153606557Y-122704488D01*
X153707648Y-122720500D01*
X153707649Y-122720500D01*
X153912351Y-122720500D01*
X153912352Y-122720500D01*
X154114534Y-122688477D01*
X154309219Y-122625220D01*
X154491610Y-122532287D01*
X154637526Y-122426274D01*
X154657213Y-122411971D01*
X154657215Y-122411968D01*
X154657219Y-122411966D01*
X154801966Y-122267219D01*
X154801968Y-122267215D01*
X154801971Y-122267213D01*
X154854732Y-122194590D01*
X154922287Y-122101610D01*
X155015220Y-121919219D01*
X155078477Y-121724534D01*
X155110500Y-121522352D01*
X155110500Y-121317648D01*
X155078477Y-121115466D01*
X155015220Y-120920781D01*
X155015218Y-120920778D01*
X155015218Y-120920776D01*
X154928457Y-120750500D01*
X154922287Y-120738390D01*
X154908715Y-120719709D01*
X154801971Y-120572786D01*
X154657213Y-120428028D01*
X154491613Y-120307715D01*
X154491612Y-120307714D01*
X154491610Y-120307713D01*
X154434653Y-120278691D01*
X154309223Y-120214781D01*
X154114534Y-120151522D01*
X153939995Y-120123878D01*
X153912352Y-120119500D01*
X153707648Y-120119500D01*
X153683329Y-120123351D01*
X153505465Y-120151522D01*
X153310776Y-120214781D01*
X153128386Y-120307715D01*
X152962786Y-120428028D01*
X152818028Y-120572786D01*
X152697715Y-120738386D01*
X152604781Y-120920776D01*
X152541522Y-121115465D01*
X152509500Y-121317648D01*
X142410500Y-121317648D01*
X142378477Y-121115466D01*
X142315220Y-120920781D01*
X142315218Y-120920778D01*
X142315218Y-120920776D01*
X142228457Y-120750500D01*
X142222287Y-120738390D01*
X142208715Y-120719709D01*
X142101971Y-120572786D01*
X141957213Y-120428028D01*
X141791613Y-120307715D01*
X141791612Y-120307714D01*
X141791610Y-120307713D01*
X141734653Y-120278691D01*
X141609223Y-120214781D01*
X141414534Y-120151522D01*
X141239995Y-120123878D01*
X141212352Y-120119500D01*
X141007648Y-120119500D01*
X140983329Y-120123351D01*
X140805465Y-120151522D01*
X140610776Y-120214781D01*
X140428386Y-120307715D01*
X140262786Y-120428028D01*
X140118028Y-120572786D01*
X139997715Y-120738386D01*
X139904781Y-120920776D01*
X139841522Y-121115465D01*
X139809500Y-121317648D01*
X104500500Y-121317648D01*
X104500500Y-119317648D01*
X165819500Y-119317648D01*
X165819500Y-119522351D01*
X165851522Y-119724534D01*
X165914781Y-119919223D01*
X165945762Y-119980025D01*
X166007585Y-120101359D01*
X166007715Y-120101613D01*
X166128028Y-120267213D01*
X166272786Y-120411971D01*
X166393226Y-120499474D01*
X166438390Y-120532287D01*
X166511470Y-120569523D01*
X166620776Y-120625218D01*
X166620778Y-120625218D01*
X166620781Y-120625220D01*
X166724382Y-120658882D01*
X166815465Y-120688477D01*
X166916557Y-120704488D01*
X167017648Y-120720500D01*
X167017649Y-120720500D01*
X167222351Y-120720500D01*
X167222352Y-120720500D01*
X167424534Y-120688477D01*
X167619219Y-120625220D01*
X167801610Y-120532287D01*
X167894590Y-120464732D01*
X167967213Y-120411971D01*
X167967215Y-120411968D01*
X167967219Y-120411966D01*
X168111966Y-120267219D01*
X168111968Y-120267215D01*
X168111971Y-120267213D01*
X168196024Y-120151522D01*
X168232287Y-120101610D01*
X168325220Y-119919219D01*
X168388477Y-119724534D01*
X168420500Y-119522352D01*
X168420500Y-119317682D01*
X170820000Y-119317682D01*
X170820000Y-119522317D01*
X170852009Y-119724417D01*
X170915244Y-119919031D01*
X171008141Y-120101350D01*
X171008147Y-120101359D01*
X171040523Y-120145921D01*
X171040524Y-120145922D01*
X171720000Y-119466446D01*
X171720000Y-119472661D01*
X171747259Y-119574394D01*
X171799920Y-119665606D01*
X171874394Y-119740080D01*
X171965606Y-119792741D01*
X172067339Y-119820000D01*
X172073553Y-119820000D01*
X171394076Y-120499474D01*
X171438650Y-120531859D01*
X171620968Y-120624755D01*
X171815582Y-120687990D01*
X172017683Y-120720000D01*
X172222317Y-120720000D01*
X172424417Y-120687990D01*
X172619031Y-120624755D01*
X172801349Y-120531859D01*
X172845921Y-120499474D01*
X172166447Y-119820000D01*
X172172661Y-119820000D01*
X172274394Y-119792741D01*
X172365606Y-119740080D01*
X172440080Y-119665606D01*
X172492741Y-119574394D01*
X172520000Y-119472661D01*
X172520000Y-119466447D01*
X173199474Y-120145921D01*
X173231859Y-120101349D01*
X173324755Y-119919031D01*
X173387990Y-119724417D01*
X173420000Y-119522317D01*
X173420000Y-119401577D01*
X175262000Y-119401577D01*
X175262000Y-119598422D01*
X175292790Y-119792826D01*
X175353617Y-119980029D01*
X175438144Y-120145921D01*
X175442976Y-120155405D01*
X175558672Y-120314646D01*
X175697854Y-120453828D01*
X175857095Y-120569524D01*
X175939955Y-120611743D01*
X176032470Y-120658882D01*
X176032472Y-120658882D01*
X176032475Y-120658884D01*
X176122054Y-120687990D01*
X176219673Y-120719709D01*
X176414078Y-120750500D01*
X176414083Y-120750500D01*
X176610922Y-120750500D01*
X176805326Y-120719709D01*
X176992525Y-120658884D01*
X177167905Y-120569524D01*
X177327146Y-120453828D01*
X177466328Y-120314646D01*
X177582024Y-120155405D01*
X177671384Y-119980025D01*
X177732209Y-119792826D01*
X177740563Y-119740080D01*
X177763000Y-119598422D01*
X177763000Y-119401577D01*
X177732209Y-119207173D01*
X177671382Y-119019970D01*
X177582023Y-118844594D01*
X177466328Y-118685354D01*
X177327146Y-118546172D01*
X177167905Y-118430476D01*
X177163112Y-118428034D01*
X176992529Y-118341117D01*
X176805326Y-118280290D01*
X176610922Y-118249500D01*
X176610917Y-118249500D01*
X176414083Y-118249500D01*
X176414078Y-118249500D01*
X176219673Y-118280290D01*
X176032470Y-118341117D01*
X175857094Y-118430476D01*
X175766241Y-118496485D01*
X175697854Y-118546172D01*
X175697852Y-118546174D01*
X175697851Y-118546174D01*
X175558674Y-118685351D01*
X175558674Y-118685352D01*
X175558672Y-118685354D01*
X175520142Y-118738386D01*
X175442976Y-118844594D01*
X175353617Y-119019970D01*
X175292790Y-119207173D01*
X175262000Y-119401577D01*
X173420000Y-119401577D01*
X173420000Y-119317682D01*
X173387990Y-119115582D01*
X173324755Y-118920968D01*
X173231859Y-118738650D01*
X173199474Y-118694077D01*
X173199474Y-118694076D01*
X172520000Y-119373551D01*
X172520000Y-119367339D01*
X172492741Y-119265606D01*
X172440080Y-119174394D01*
X172365606Y-119099920D01*
X172274394Y-119047259D01*
X172172661Y-119020000D01*
X172166446Y-119020000D01*
X172845922Y-118340524D01*
X172845921Y-118340523D01*
X172801359Y-118308147D01*
X172801350Y-118308141D01*
X172619031Y-118215244D01*
X172424417Y-118152009D01*
X172222317Y-118120000D01*
X172017683Y-118120000D01*
X171815582Y-118152009D01*
X171620968Y-118215244D01*
X171438644Y-118308143D01*
X171394077Y-118340523D01*
X171394077Y-118340524D01*
X172073554Y-119020000D01*
X172067339Y-119020000D01*
X171965606Y-119047259D01*
X171874394Y-119099920D01*
X171799920Y-119174394D01*
X171747259Y-119265606D01*
X171720000Y-119367339D01*
X171720000Y-119373553D01*
X171040524Y-118694077D01*
X171040523Y-118694077D01*
X171008143Y-118738644D01*
X170915244Y-118920968D01*
X170852009Y-119115582D01*
X170820000Y-119317682D01*
X168420500Y-119317682D01*
X168420500Y-119317648D01*
X168403002Y-119207173D01*
X168388477Y-119115465D01*
X168357448Y-119019970D01*
X168325220Y-118920781D01*
X168325218Y-118920778D01*
X168325218Y-118920776D01*
X168232419Y-118738650D01*
X168232287Y-118738390D01*
X168200092Y-118694077D01*
X168111971Y-118572786D01*
X167967213Y-118428028D01*
X167801613Y-118307715D01*
X167801612Y-118307714D01*
X167801610Y-118307713D01*
X167744653Y-118278691D01*
X167619223Y-118214781D01*
X167424534Y-118151522D01*
X167249995Y-118123878D01*
X167222352Y-118119500D01*
X167017648Y-118119500D01*
X166993329Y-118123351D01*
X166815465Y-118151522D01*
X166620776Y-118214781D01*
X166438386Y-118307715D01*
X166272786Y-118428028D01*
X166128028Y-118572786D01*
X166007715Y-118738386D01*
X165914781Y-118920776D01*
X165851522Y-119115465D01*
X165819500Y-119317648D01*
X104500500Y-119317648D01*
X104500500Y-115063753D01*
X119860000Y-115063753D01*
X119860000Y-115276246D01*
X119893242Y-115486127D01*
X119893242Y-115486130D01*
X119958904Y-115688217D01*
X120055375Y-115877550D01*
X120094728Y-115931716D01*
X120810000Y-115216444D01*
X120810000Y-115222661D01*
X120837259Y-115324394D01*
X120889920Y-115415606D01*
X120964394Y-115490080D01*
X121055606Y-115542741D01*
X121157339Y-115570000D01*
X121163554Y-115570000D01*
X120448282Y-116285269D01*
X120448282Y-116285270D01*
X120502449Y-116324624D01*
X120691782Y-116421095D01*
X120893870Y-116486757D01*
X121103754Y-116520000D01*
X121316246Y-116520000D01*
X121526127Y-116486757D01*
X121526130Y-116486757D01*
X121728217Y-116421095D01*
X121917554Y-116324622D01*
X121971716Y-116285270D01*
X121971717Y-116285270D01*
X121256446Y-115570000D01*
X121262661Y-115570000D01*
X121364394Y-115542741D01*
X121455606Y-115490080D01*
X121530080Y-115415606D01*
X121582741Y-115324394D01*
X121610000Y-115222661D01*
X121610000Y-115216446D01*
X122325270Y-115931717D01*
X122325270Y-115931716D01*
X122364622Y-115877554D01*
X122461095Y-115688217D01*
X122526757Y-115486130D01*
X122526757Y-115486127D01*
X122560000Y-115276246D01*
X122560000Y-115238060D01*
X123957596Y-115238060D01*
X123984150Y-115371551D01*
X123984153Y-115371561D01*
X124036237Y-115497304D01*
X124036244Y-115497317D01*
X124111862Y-115610486D01*
X124111865Y-115610490D01*
X124122305Y-115620930D01*
X124152553Y-115670288D01*
X124158442Y-115688411D01*
X124254951Y-115877820D01*
X124379890Y-116049786D01*
X124530213Y-116200109D01*
X124702179Y-116325048D01*
X124702181Y-116325049D01*
X124702184Y-116325051D01*
X124891588Y-116421557D01*
X125093757Y-116487246D01*
X125303713Y-116520500D01*
X125303714Y-116520500D01*
X125516286Y-116520500D01*
X125516287Y-116520500D01*
X125726243Y-116487246D01*
X125928412Y-116421557D01*
X126117816Y-116325051D01*
X126172572Y-116285269D01*
X126289786Y-116200109D01*
X126289788Y-116200106D01*
X126289792Y-116200104D01*
X126440104Y-116049792D01*
X126440106Y-116049788D01*
X126440109Y-116049786D01*
X126565048Y-115877820D01*
X126565047Y-115877820D01*
X126565051Y-115877816D01*
X126661557Y-115688412D01*
X126727246Y-115486243D01*
X126760500Y-115276287D01*
X126760500Y-115063713D01*
X126727246Y-114853757D01*
X126715513Y-114817648D01*
X131659500Y-114817648D01*
X131659500Y-115022351D01*
X131691522Y-115224534D01*
X131754781Y-115419223D01*
X131847715Y-115601613D01*
X131968028Y-115767213D01*
X132112786Y-115911971D01*
X132267749Y-116024556D01*
X132278390Y-116032287D01*
X132394607Y-116091503D01*
X132460776Y-116125218D01*
X132460778Y-116125218D01*
X132460781Y-116125220D01*
X132565137Y-116159127D01*
X132655465Y-116188477D01*
X132728875Y-116200104D01*
X132857648Y-116220500D01*
X132857649Y-116220500D01*
X133062351Y-116220500D01*
X133062352Y-116220500D01*
X133264534Y-116188477D01*
X133459219Y-116125220D01*
X133641610Y-116032287D01*
X133780034Y-115931717D01*
X133807213Y-115911971D01*
X133807215Y-115911968D01*
X133807219Y-115911966D01*
X133951966Y-115767219D01*
X133951968Y-115767215D01*
X133951971Y-115767213D01*
X134022390Y-115670288D01*
X134072287Y-115601610D01*
X134165220Y-115419219D01*
X134228477Y-115224534D01*
X134260500Y-115022352D01*
X134260500Y-114817648D01*
X144359500Y-114817648D01*
X144359500Y-115022351D01*
X144391522Y-115224534D01*
X144454781Y-115419223D01*
X144547715Y-115601613D01*
X144668028Y-115767213D01*
X144812786Y-115911971D01*
X144967749Y-116024556D01*
X144978390Y-116032287D01*
X145094607Y-116091503D01*
X145160776Y-116125218D01*
X145160778Y-116125218D01*
X145160781Y-116125220D01*
X145265137Y-116159127D01*
X145355465Y-116188477D01*
X145428875Y-116200104D01*
X145557648Y-116220500D01*
X145557649Y-116220500D01*
X145762351Y-116220500D01*
X145762352Y-116220500D01*
X145964534Y-116188477D01*
X146159219Y-116125220D01*
X146341610Y-116032287D01*
X146480034Y-115931717D01*
X146507213Y-115911971D01*
X146507215Y-115911968D01*
X146507219Y-115911966D01*
X146651966Y-115767219D01*
X146651968Y-115767215D01*
X146651971Y-115767213D01*
X146722390Y-115670288D01*
X146772287Y-115601610D01*
X146865220Y-115419219D01*
X146928477Y-115224534D01*
X146960500Y-115022352D01*
X146960500Y-114817648D01*
X146934200Y-114651596D01*
X146928477Y-114615465D01*
X146878759Y-114462449D01*
X146865220Y-114420781D01*
X146865218Y-114420778D01*
X146865218Y-114420776D01*
X146831503Y-114354607D01*
X146772287Y-114238390D01*
X146752158Y-114210685D01*
X146651971Y-114072786D01*
X146507213Y-113928028D01*
X146341613Y-113807715D01*
X146341612Y-113807714D01*
X146341610Y-113807713D01*
X146284653Y-113778691D01*
X146159223Y-113714781D01*
X145964534Y-113651522D01*
X145789995Y-113623878D01*
X145762352Y-113619500D01*
X145557648Y-113619500D01*
X145533329Y-113623351D01*
X145355465Y-113651522D01*
X145160776Y-113714781D01*
X144978386Y-113807715D01*
X144812786Y-113928028D01*
X144668028Y-114072786D01*
X144547715Y-114238386D01*
X144454781Y-114420776D01*
X144391522Y-114615465D01*
X144359500Y-114817648D01*
X134260500Y-114817648D01*
X134234200Y-114651596D01*
X134228477Y-114615465D01*
X134178759Y-114462449D01*
X134165220Y-114420781D01*
X134165218Y-114420778D01*
X134165218Y-114420776D01*
X134131503Y-114354607D01*
X134072287Y-114238390D01*
X134052158Y-114210685D01*
X133951971Y-114072786D01*
X133807213Y-113928028D01*
X133641613Y-113807715D01*
X133641612Y-113807714D01*
X133641610Y-113807713D01*
X133584653Y-113778691D01*
X133459223Y-113714781D01*
X133264534Y-113651522D01*
X133089995Y-113623878D01*
X133062352Y-113619500D01*
X132857648Y-113619500D01*
X132833329Y-113623351D01*
X132655465Y-113651522D01*
X132460776Y-113714781D01*
X132278386Y-113807715D01*
X132112786Y-113928028D01*
X131968028Y-114072786D01*
X131847715Y-114238386D01*
X131754781Y-114420776D01*
X131691522Y-114615465D01*
X131659500Y-114817648D01*
X126715513Y-114817648D01*
X126661557Y-114651588D01*
X126565051Y-114462184D01*
X126565049Y-114462181D01*
X126565048Y-114462179D01*
X126440109Y-114290213D01*
X126289786Y-114139890D01*
X126117820Y-114014951D01*
X125928414Y-113918444D01*
X125928413Y-113918443D01*
X125928412Y-113918443D01*
X125726243Y-113852754D01*
X125726241Y-113852753D01*
X125726240Y-113852753D01*
X125564957Y-113827208D01*
X125516287Y-113819500D01*
X125303713Y-113819500D01*
X125255042Y-113827208D01*
X125093760Y-113852753D01*
X124891585Y-113918444D01*
X124702179Y-114014951D01*
X124530213Y-114139890D01*
X124379890Y-114290213D01*
X124254949Y-114462182D01*
X124158442Y-114651589D01*
X124158439Y-114651596D01*
X124152553Y-114669711D01*
X124122308Y-114719066D01*
X124111869Y-114729505D01*
X124111864Y-114729511D01*
X124036244Y-114842683D01*
X124036237Y-114842695D01*
X123984153Y-114968438D01*
X123984150Y-114968448D01*
X123957597Y-115101939D01*
X123957597Y-115101942D01*
X123957597Y-115238058D01*
X123957597Y-115238060D01*
X123957596Y-115238060D01*
X122560000Y-115238060D01*
X122560000Y-115063753D01*
X122526757Y-114853872D01*
X122526757Y-114853869D01*
X122461095Y-114651782D01*
X122364624Y-114462449D01*
X122325270Y-114408282D01*
X122325269Y-114408282D01*
X121610000Y-115123552D01*
X121610000Y-115117339D01*
X121582741Y-115015606D01*
X121530080Y-114924394D01*
X121455606Y-114849920D01*
X121364394Y-114797259D01*
X121262661Y-114770000D01*
X121256447Y-114770000D01*
X121971716Y-114054728D01*
X121917550Y-114015375D01*
X121728217Y-113918904D01*
X121526129Y-113853242D01*
X121316246Y-113820000D01*
X121103754Y-113820000D01*
X120893872Y-113853242D01*
X120893869Y-113853242D01*
X120691782Y-113918904D01*
X120502439Y-114015380D01*
X120448282Y-114054727D01*
X120448282Y-114054728D01*
X121163554Y-114770000D01*
X121157339Y-114770000D01*
X121055606Y-114797259D01*
X120964394Y-114849920D01*
X120889920Y-114924394D01*
X120837259Y-115015606D01*
X120810000Y-115117339D01*
X120810000Y-115123554D01*
X120094728Y-114408282D01*
X120094727Y-114408282D01*
X120055380Y-114462439D01*
X119958904Y-114651782D01*
X119893242Y-114853869D01*
X119893242Y-114853872D01*
X119860000Y-115063753D01*
X104500500Y-115063753D01*
X104500500Y-110317648D01*
X166129500Y-110317648D01*
X166129500Y-110522351D01*
X166161522Y-110724534D01*
X166224781Y-110919223D01*
X166288691Y-111044653D01*
X166317585Y-111101359D01*
X166317715Y-111101613D01*
X166438028Y-111267213D01*
X166582786Y-111411971D01*
X166703226Y-111499474D01*
X166748390Y-111532287D01*
X166864607Y-111591503D01*
X166930776Y-111625218D01*
X166930778Y-111625218D01*
X166930781Y-111625220D01*
X167035137Y-111659127D01*
X167125465Y-111688477D01*
X167226557Y-111704488D01*
X167327648Y-111720500D01*
X167327649Y-111720500D01*
X167532351Y-111720500D01*
X167532352Y-111720500D01*
X167734534Y-111688477D01*
X167929219Y-111625220D01*
X168111610Y-111532287D01*
X168204590Y-111464732D01*
X168277213Y-111411971D01*
X168277215Y-111411968D01*
X168277219Y-111411966D01*
X168421966Y-111267219D01*
X168421968Y-111267215D01*
X168421971Y-111267213D01*
X168474732Y-111194590D01*
X168542287Y-111101610D01*
X168635220Y-110919219D01*
X168698477Y-110724534D01*
X168730500Y-110522352D01*
X168730500Y-110317682D01*
X171130000Y-110317682D01*
X171130000Y-110522317D01*
X171162009Y-110724417D01*
X171225244Y-110919031D01*
X171318141Y-111101350D01*
X171318147Y-111101359D01*
X171350523Y-111145921D01*
X171350524Y-111145922D01*
X172030000Y-110466446D01*
X172030000Y-110472661D01*
X172057259Y-110574394D01*
X172109920Y-110665606D01*
X172184394Y-110740080D01*
X172275606Y-110792741D01*
X172377339Y-110820000D01*
X172383553Y-110820000D01*
X171704076Y-111499474D01*
X171748650Y-111531859D01*
X171930968Y-111624755D01*
X172125582Y-111687990D01*
X172327683Y-111720000D01*
X172532317Y-111720000D01*
X172734417Y-111687990D01*
X172929031Y-111624755D01*
X173111349Y-111531859D01*
X173155921Y-111499474D01*
X172476447Y-110820000D01*
X172482661Y-110820000D01*
X172584394Y-110792741D01*
X172675606Y-110740080D01*
X172750080Y-110665606D01*
X172802741Y-110574394D01*
X172830000Y-110472661D01*
X172830000Y-110466447D01*
X173509474Y-111145921D01*
X173541859Y-111101349D01*
X173634755Y-110919031D01*
X173697990Y-110724417D01*
X173730000Y-110522317D01*
X173730000Y-110317682D01*
X173697990Y-110115582D01*
X173634755Y-109920968D01*
X173541859Y-109738650D01*
X173509474Y-109694077D01*
X173509474Y-109694076D01*
X172830000Y-110373551D01*
X172830000Y-110367339D01*
X172802741Y-110265606D01*
X172750080Y-110174394D01*
X172675606Y-110099920D01*
X172584394Y-110047259D01*
X172482661Y-110020000D01*
X172476446Y-110020000D01*
X173155922Y-109340524D01*
X173155921Y-109340523D01*
X173111359Y-109308147D01*
X173111350Y-109308141D01*
X172929031Y-109215244D01*
X172734417Y-109152009D01*
X172532317Y-109120000D01*
X172327683Y-109120000D01*
X172125582Y-109152009D01*
X171930968Y-109215244D01*
X171748644Y-109308143D01*
X171704077Y-109340523D01*
X171704077Y-109340524D01*
X172383554Y-110020000D01*
X172377339Y-110020000D01*
X172275606Y-110047259D01*
X172184394Y-110099920D01*
X172109920Y-110174394D01*
X172057259Y-110265606D01*
X172030000Y-110367339D01*
X172030000Y-110373553D01*
X171350524Y-109694077D01*
X171350523Y-109694077D01*
X171318143Y-109738644D01*
X171225244Y-109920968D01*
X171162009Y-110115582D01*
X171130000Y-110317682D01*
X168730500Y-110317682D01*
X168730500Y-110317648D01*
X168722257Y-110265606D01*
X168698477Y-110115465D01*
X168635471Y-109921555D01*
X168635220Y-109920781D01*
X168635218Y-109920778D01*
X168635218Y-109920776D01*
X168586443Y-109825051D01*
X168542287Y-109738390D01*
X168534556Y-109727749D01*
X168421971Y-109572786D01*
X168277213Y-109428028D01*
X168111613Y-109307715D01*
X168111612Y-109307714D01*
X168111610Y-109307713D01*
X168054653Y-109278691D01*
X167929223Y-109214781D01*
X167734534Y-109151522D01*
X167559995Y-109123878D01*
X167532352Y-109119500D01*
X167327648Y-109119500D01*
X167303329Y-109123351D01*
X167125465Y-109151522D01*
X166930776Y-109214781D01*
X166748386Y-109307715D01*
X166582786Y-109428028D01*
X166438028Y-109572786D01*
X166317715Y-109738386D01*
X166224781Y-109920776D01*
X166161522Y-110115465D01*
X166129500Y-110317648D01*
X104500500Y-110317648D01*
X104500500Y-108563713D01*
X119859500Y-108563713D01*
X119859500Y-108776287D01*
X119892754Y-108986243D01*
X119936214Y-109120000D01*
X119958444Y-109188414D01*
X120054951Y-109377820D01*
X120179890Y-109549786D01*
X120330213Y-109700109D01*
X120502179Y-109825048D01*
X120502181Y-109825049D01*
X120502184Y-109825051D01*
X120691588Y-109921557D01*
X120893757Y-109987246D01*
X121103713Y-110020500D01*
X121103714Y-110020500D01*
X121316286Y-110020500D01*
X121316287Y-110020500D01*
X121526243Y-109987246D01*
X121728412Y-109921557D01*
X121917816Y-109825051D01*
X122036746Y-109738644D01*
X122089786Y-109700109D01*
X122089788Y-109700106D01*
X122089792Y-109700104D01*
X122240104Y-109549792D01*
X122240106Y-109549788D01*
X122240109Y-109549786D01*
X122365048Y-109377820D01*
X122365047Y-109377820D01*
X122365051Y-109377816D01*
X122461557Y-109188412D01*
X122527246Y-108986243D01*
X122560500Y-108776287D01*
X122560500Y-108563713D01*
X124059500Y-108563713D01*
X124059500Y-108776287D01*
X124092754Y-108986243D01*
X124136214Y-109120000D01*
X124158444Y-109188414D01*
X124254951Y-109377820D01*
X124379890Y-109549786D01*
X124530213Y-109700109D01*
X124702179Y-109825048D01*
X124702181Y-109825049D01*
X124702184Y-109825051D01*
X124891588Y-109921557D01*
X125093757Y-109987246D01*
X125303713Y-110020500D01*
X125303714Y-110020500D01*
X125516286Y-110020500D01*
X125516287Y-110020500D01*
X125726243Y-109987246D01*
X125928412Y-109921557D01*
X126117816Y-109825051D01*
X126236746Y-109738644D01*
X126289786Y-109700109D01*
X126289788Y-109700106D01*
X126289792Y-109700104D01*
X126440104Y-109549792D01*
X126440106Y-109549788D01*
X126440109Y-109549786D01*
X126565048Y-109377820D01*
X126565047Y-109377820D01*
X126565051Y-109377816D01*
X126661557Y-109188412D01*
X126727246Y-108986243D01*
X126760500Y-108776287D01*
X126760500Y-108563713D01*
X126727246Y-108353757D01*
X126661557Y-108151588D01*
X126565051Y-107962184D01*
X126565049Y-107962181D01*
X126565048Y-107962179D01*
X126440109Y-107790213D01*
X126289786Y-107639890D01*
X126117820Y-107514951D01*
X125928414Y-107418444D01*
X125928413Y-107418443D01*
X125928412Y-107418443D01*
X125726243Y-107352754D01*
X125726241Y-107352753D01*
X125726240Y-107352753D01*
X125564957Y-107327208D01*
X125516287Y-107319500D01*
X125303713Y-107319500D01*
X125255042Y-107327208D01*
X125093760Y-107352753D01*
X124891585Y-107418444D01*
X124702179Y-107514951D01*
X124530213Y-107639890D01*
X124379890Y-107790213D01*
X124254951Y-107962179D01*
X124158444Y-108151585D01*
X124092753Y-108353760D01*
X124066419Y-108520029D01*
X124059500Y-108563713D01*
X122560500Y-108563713D01*
X122527246Y-108353757D01*
X122461557Y-108151588D01*
X122365051Y-107962184D01*
X122365049Y-107962181D01*
X122365048Y-107962179D01*
X122240109Y-107790213D01*
X122089786Y-107639890D01*
X121917820Y-107514951D01*
X121728414Y-107418444D01*
X121728413Y-107418443D01*
X121728412Y-107418443D01*
X121526243Y-107352754D01*
X121526241Y-107352753D01*
X121526240Y-107352753D01*
X121364957Y-107327208D01*
X121316287Y-107319500D01*
X121103713Y-107319500D01*
X121055042Y-107327208D01*
X120893760Y-107352753D01*
X120691585Y-107418444D01*
X120502179Y-107514951D01*
X120330213Y-107639890D01*
X120179890Y-107790213D01*
X120054951Y-107962179D01*
X119958444Y-108151585D01*
X119892753Y-108353760D01*
X119866419Y-108520029D01*
X119859500Y-108563713D01*
X104500500Y-108563713D01*
X104500500Y-98597648D01*
X108699500Y-98597648D01*
X108699500Y-98802351D01*
X108731522Y-99004534D01*
X108794781Y-99199223D01*
X108887715Y-99381613D01*
X109008028Y-99547213D01*
X109152786Y-99691971D01*
X109260665Y-99770348D01*
X109318390Y-99812287D01*
X109428653Y-99868469D01*
X109500776Y-99905218D01*
X109500778Y-99905218D01*
X109500781Y-99905220D01*
X109546288Y-99920006D01*
X109695465Y-99968477D01*
X109796557Y-99984488D01*
X109897648Y-100000500D01*
X109897649Y-100000500D01*
X110102351Y-100000500D01*
X110102352Y-100000500D01*
X110304534Y-99968477D01*
X110499219Y-99905220D01*
X110681610Y-99812287D01*
X110833487Y-99701943D01*
X110847213Y-99691971D01*
X110847215Y-99691968D01*
X110847219Y-99691966D01*
X110991966Y-99547219D01*
X110991968Y-99547215D01*
X110991971Y-99547213D01*
X111044732Y-99474590D01*
X111112287Y-99381610D01*
X111205220Y-99199219D01*
X111268477Y-99004534D01*
X111300500Y-98802352D01*
X111300500Y-98597648D01*
X111268477Y-98395466D01*
X111205220Y-98200781D01*
X111205218Y-98200778D01*
X111205218Y-98200776D01*
X111171503Y-98134607D01*
X111112287Y-98018390D01*
X111104556Y-98007749D01*
X110991971Y-97852786D01*
X110847213Y-97708028D01*
X110681613Y-97587715D01*
X110681612Y-97587714D01*
X110681610Y-97587713D01*
X110624653Y-97558691D01*
X110499223Y-97494781D01*
X110304534Y-97431522D01*
X110129995Y-97403878D01*
X110102352Y-97399500D01*
X109897648Y-97399500D01*
X109873329Y-97403351D01*
X109695465Y-97431522D01*
X109500776Y-97494781D01*
X109318386Y-97587715D01*
X109152786Y-97708028D01*
X109008028Y-97852786D01*
X108887715Y-98018386D01*
X108794781Y-98200776D01*
X108731522Y-98395465D01*
X108699500Y-98597648D01*
X104500500Y-98597648D01*
X104500500Y-84447962D01*
X105927499Y-84447962D01*
X105954053Y-84581454D01*
X105954056Y-84581464D01*
X106006142Y-84707212D01*
X106006144Y-84707215D01*
X106081763Y-84820388D01*
X106081769Y-84820395D01*
X120873607Y-99612232D01*
X120873611Y-99612235D01*
X120986779Y-99687852D01*
X120986792Y-99687859D01*
X121112535Y-99739943D01*
X121112540Y-99739945D01*
X121112544Y-99739945D01*
X121112545Y-99739946D01*
X121246036Y-99766500D01*
X121246039Y-99766500D01*
X121246040Y-99766500D01*
X121382154Y-99766500D01*
X151727392Y-99766500D01*
X151794431Y-99786185D01*
X151840186Y-99838989D01*
X151850130Y-99908147D01*
X151841959Y-99937939D01*
X151841119Y-99939967D01*
X151841117Y-99939972D01*
X151841116Y-99939975D01*
X151831855Y-99968477D01*
X151780290Y-100127173D01*
X151749500Y-100321577D01*
X151749500Y-100518422D01*
X151780290Y-100712826D01*
X151841117Y-100900029D01*
X151902246Y-101020000D01*
X151930476Y-101075405D01*
X152046172Y-101234646D01*
X152185354Y-101373828D01*
X152344595Y-101489524D01*
X152409022Y-101522351D01*
X152521213Y-101579515D01*
X152572009Y-101627489D01*
X152588804Y-101695310D01*
X152566267Y-101761445D01*
X152521213Y-101800485D01*
X152344594Y-101890476D01*
X152305028Y-101919223D01*
X152185354Y-102006172D01*
X152185352Y-102006174D01*
X152185351Y-102006174D01*
X152046174Y-102145351D01*
X152046174Y-102145352D01*
X152046172Y-102145354D01*
X151996485Y-102213741D01*
X151930476Y-102304594D01*
X151841117Y-102479970D01*
X151780290Y-102667173D01*
X151749500Y-102861577D01*
X151749500Y-103058422D01*
X151780290Y-103252826D01*
X151841117Y-103440029D01*
X151930476Y-103615405D01*
X152046172Y-103774646D01*
X152185354Y-103913828D01*
X152344595Y-104029524D01*
X152443647Y-104079993D01*
X152521213Y-104119515D01*
X152572009Y-104167489D01*
X152588804Y-104235310D01*
X152566267Y-104301445D01*
X152521213Y-104340485D01*
X152344594Y-104430476D01*
X152253741Y-104496485D01*
X152185354Y-104546172D01*
X152185352Y-104546174D01*
X152185351Y-104546174D01*
X152046174Y-104685351D01*
X152046174Y-104685352D01*
X152046172Y-104685354D01*
X152043012Y-104689704D01*
X151930476Y-104844594D01*
X151841117Y-105019970D01*
X151780290Y-105207173D01*
X151749500Y-105401577D01*
X151749500Y-105598422D01*
X151780290Y-105792826D01*
X151841117Y-105980029D01*
X151930476Y-106155405D01*
X152046172Y-106314646D01*
X152185354Y-106453828D01*
X152344595Y-106569524D01*
X152467992Y-106632397D01*
X152521213Y-106659515D01*
X152572009Y-106707489D01*
X152588804Y-106775310D01*
X152566267Y-106841445D01*
X152521213Y-106880485D01*
X152344594Y-106970476D01*
X152253741Y-107036485D01*
X152185354Y-107086172D01*
X152185352Y-107086174D01*
X152185351Y-107086174D01*
X152046174Y-107225351D01*
X152046174Y-107225352D01*
X152046172Y-107225354D01*
X151996485Y-107293741D01*
X151930476Y-107384594D01*
X151841117Y-107559970D01*
X151780290Y-107747173D01*
X151749500Y-107941577D01*
X151749500Y-108138422D01*
X151780290Y-108332826D01*
X151841117Y-108520029D01*
X151930476Y-108695405D01*
X152046172Y-108854646D01*
X152185354Y-108993828D01*
X152344595Y-109109524D01*
X152427021Y-109151522D01*
X152519970Y-109198882D01*
X152519972Y-109198882D01*
X152519975Y-109198884D01*
X152568898Y-109214780D01*
X152707173Y-109259709D01*
X152901578Y-109290500D01*
X152901583Y-109290500D01*
X153098422Y-109290500D01*
X153292826Y-109259709D01*
X153480025Y-109198884D01*
X153655405Y-109109524D01*
X153814646Y-108993828D01*
X153953828Y-108854646D01*
X154069524Y-108695405D01*
X154158884Y-108520025D01*
X154219709Y-108332826D01*
X154250500Y-108138422D01*
X154250500Y-107941577D01*
X154219709Y-107747173D01*
X154158882Y-107559970D01*
X154069523Y-107384594D01*
X154022229Y-107319500D01*
X153953828Y-107225354D01*
X153814646Y-107086172D01*
X153735025Y-107028324D01*
X153655403Y-106970474D01*
X153478787Y-106880485D01*
X153427990Y-106832511D01*
X153411195Y-106764690D01*
X153433732Y-106698555D01*
X153478787Y-106659515D01*
X153655403Y-106569525D01*
X153655402Y-106569525D01*
X153655405Y-106569524D01*
X153814646Y-106453828D01*
X153953828Y-106314646D01*
X154069524Y-106155405D01*
X154158884Y-105980025D01*
X154219709Y-105792826D01*
X154250500Y-105598422D01*
X154250500Y-105401577D01*
X154219709Y-105207173D01*
X154158882Y-105019970D01*
X154075637Y-104856593D01*
X154069524Y-104844595D01*
X153953828Y-104685354D01*
X153814646Y-104546172D01*
X153735025Y-104488324D01*
X153655403Y-104430474D01*
X153478787Y-104340485D01*
X153427990Y-104292511D01*
X153411195Y-104224690D01*
X153433732Y-104158555D01*
X153478787Y-104119515D01*
X153655403Y-104029525D01*
X153655402Y-104029525D01*
X153655405Y-104029524D01*
X153814646Y-103913828D01*
X153953828Y-103774646D01*
X154069524Y-103615405D01*
X154158884Y-103440025D01*
X154219709Y-103252826D01*
X154250500Y-103058422D01*
X154250500Y-102861577D01*
X159369500Y-102861577D01*
X159369500Y-103058422D01*
X159400290Y-103252826D01*
X159461117Y-103440029D01*
X159550476Y-103615405D01*
X159666172Y-103774646D01*
X159805354Y-103913828D01*
X159964595Y-104029524D01*
X160063647Y-104079993D01*
X160141213Y-104119515D01*
X160192009Y-104167489D01*
X160208804Y-104235310D01*
X160186267Y-104301445D01*
X160141213Y-104340485D01*
X159964594Y-104430476D01*
X159873741Y-104496485D01*
X159805354Y-104546172D01*
X159805352Y-104546174D01*
X159805351Y-104546174D01*
X159666174Y-104685351D01*
X159666174Y-104685352D01*
X159666172Y-104685354D01*
X159663012Y-104689704D01*
X159550476Y-104844594D01*
X159461117Y-105019970D01*
X159400290Y-105207173D01*
X159369500Y-105401577D01*
X159369500Y-105598422D01*
X159400290Y-105792826D01*
X159461117Y-105980029D01*
X159550476Y-106155405D01*
X159666172Y-106314646D01*
X159805354Y-106453828D01*
X159964595Y-106569524D01*
X160087992Y-106632397D01*
X160141213Y-106659515D01*
X160192009Y-106707489D01*
X160208804Y-106775310D01*
X160186267Y-106841445D01*
X160141213Y-106880485D01*
X159964594Y-106970476D01*
X159873741Y-107036485D01*
X159805354Y-107086172D01*
X159805352Y-107086174D01*
X159805351Y-107086174D01*
X159666174Y-107225351D01*
X159666174Y-107225352D01*
X159666172Y-107225354D01*
X159616485Y-107293741D01*
X159550476Y-107384594D01*
X159461117Y-107559970D01*
X159400290Y-107747173D01*
X159369500Y-107941577D01*
X159369500Y-108138422D01*
X159400290Y-108332826D01*
X159461117Y-108520029D01*
X159550476Y-108695405D01*
X159666172Y-108854646D01*
X159805354Y-108993828D01*
X159964595Y-109109524D01*
X160047021Y-109151522D01*
X160139970Y-109198882D01*
X160139972Y-109198882D01*
X160139975Y-109198884D01*
X160188898Y-109214780D01*
X160327173Y-109259709D01*
X160521578Y-109290500D01*
X160521583Y-109290500D01*
X160718422Y-109290500D01*
X160912826Y-109259709D01*
X161100025Y-109198884D01*
X161275405Y-109109524D01*
X161434646Y-108993828D01*
X161573828Y-108854646D01*
X161689524Y-108695405D01*
X161778884Y-108520025D01*
X161839709Y-108332826D01*
X161870500Y-108138422D01*
X161870500Y-107941577D01*
X161839709Y-107747173D01*
X161778882Y-107559970D01*
X161689523Y-107384594D01*
X161642229Y-107319500D01*
X161573828Y-107225354D01*
X161434646Y-107086172D01*
X161355025Y-107028324D01*
X161275403Y-106970474D01*
X161098787Y-106880485D01*
X161047990Y-106832511D01*
X161031195Y-106764690D01*
X161053732Y-106698555D01*
X161098787Y-106659515D01*
X161275403Y-106569525D01*
X161275402Y-106569525D01*
X161275405Y-106569524D01*
X161434646Y-106453828D01*
X161573828Y-106314646D01*
X161689524Y-106155405D01*
X161778884Y-105980025D01*
X161839709Y-105792826D01*
X161870500Y-105598422D01*
X161870500Y-105401577D01*
X161839709Y-105207173D01*
X161778882Y-105019970D01*
X161695637Y-104856593D01*
X161689524Y-104844595D01*
X161573828Y-104685354D01*
X161434646Y-104546172D01*
X161355025Y-104488324D01*
X161275403Y-104430474D01*
X161098787Y-104340485D01*
X161047990Y-104292511D01*
X161031195Y-104224690D01*
X161053732Y-104158555D01*
X161098787Y-104119515D01*
X161275403Y-104029525D01*
X161275402Y-104029525D01*
X161275405Y-104029524D01*
X161434646Y-103913828D01*
X161573828Y-103774646D01*
X161689524Y-103615405D01*
X161778884Y-103440025D01*
X161839709Y-103252826D01*
X161870500Y-103058422D01*
X161870500Y-102861577D01*
X161839709Y-102667173D01*
X161795742Y-102531859D01*
X161778884Y-102479975D01*
X161778882Y-102479972D01*
X161778882Y-102479970D01*
X161731743Y-102387455D01*
X161689524Y-102304595D01*
X161573828Y-102145354D01*
X161434646Y-102006172D01*
X161275405Y-101890476D01*
X161100025Y-101801116D01*
X161100024Y-101801115D01*
X161098235Y-101800204D01*
X161047439Y-101752230D01*
X161030644Y-101684409D01*
X161053181Y-101618274D01*
X161098236Y-101579234D01*
X161275141Y-101489097D01*
X161310125Y-101463678D01*
X161310126Y-101463678D01*
X161164096Y-101317648D01*
X166319500Y-101317648D01*
X166319500Y-101522351D01*
X166351522Y-101724534D01*
X166414781Y-101919223D01*
X166455801Y-101999727D01*
X166507585Y-102101359D01*
X166507715Y-102101613D01*
X166628028Y-102267213D01*
X166772786Y-102411971D01*
X166890571Y-102497545D01*
X166938390Y-102532287D01*
X167054607Y-102591503D01*
X167120776Y-102625218D01*
X167120778Y-102625218D01*
X167120781Y-102625220D01*
X167225137Y-102659127D01*
X167315465Y-102688477D01*
X167400536Y-102701951D01*
X167517648Y-102720500D01*
X167517649Y-102720500D01*
X167722350Y-102720500D01*
X167722352Y-102720500D01*
X167850666Y-102700176D01*
X167919960Y-102709130D01*
X167957746Y-102734968D01*
X173576536Y-108353757D01*
X179163266Y-113940487D01*
X179237728Y-114014949D01*
X179259514Y-114036735D01*
X179372682Y-114112352D01*
X179372695Y-114112359D01*
X179439176Y-114139896D01*
X179498443Y-114164445D01*
X179498447Y-114164445D01*
X179498448Y-114164446D01*
X179631939Y-114191000D01*
X179631942Y-114191000D01*
X179631943Y-114191000D01*
X179768057Y-114191000D01*
X182685000Y-114191000D01*
X182752039Y-114210685D01*
X182797794Y-114263489D01*
X182809000Y-114315000D01*
X182809000Y-122669443D01*
X182809000Y-122805557D01*
X182809000Y-122805559D01*
X182808999Y-122805559D01*
X182835553Y-122939051D01*
X182835556Y-122939061D01*
X182887642Y-123064809D01*
X182887644Y-123064812D01*
X182963263Y-123177985D01*
X182963269Y-123177992D01*
X185278313Y-125493034D01*
X185311798Y-125554357D01*
X185308564Y-125619030D01*
X185298947Y-125648630D01*
X185262000Y-125881902D01*
X185262000Y-126118097D01*
X185298946Y-126351368D01*
X185371933Y-126575996D01*
X185479019Y-126786163D01*
X185479157Y-126786433D01*
X185617983Y-126977510D01*
X185784990Y-127144517D01*
X185976067Y-127283343D01*
X186075491Y-127334002D01*
X186186503Y-127390566D01*
X186186505Y-127390566D01*
X186186508Y-127390568D01*
X186306912Y-127429689D01*
X186411131Y-127463553D01*
X186644403Y-127500500D01*
X186644408Y-127500500D01*
X186880597Y-127500500D01*
X187113868Y-127463553D01*
X187115370Y-127463065D01*
X187338492Y-127390568D01*
X187548933Y-127283343D01*
X187740010Y-127144517D01*
X187907017Y-126977510D01*
X188045843Y-126786433D01*
X188153068Y-126575992D01*
X188226053Y-126351368D01*
X188239259Y-126267990D01*
X188263000Y-126118097D01*
X188263000Y-125881947D01*
X192000000Y-125881947D01*
X192000000Y-126118052D01*
X192036934Y-126351247D01*
X192109897Y-126575802D01*
X192217087Y-126786174D01*
X192277338Y-126869104D01*
X192277340Y-126869105D01*
X193017037Y-126129408D01*
X193034075Y-126192993D01*
X193099901Y-126307007D01*
X193192993Y-126400099D01*
X193307007Y-126465925D01*
X193370590Y-126482962D01*
X192630893Y-127222658D01*
X192713828Y-127282914D01*
X192924197Y-127390102D01*
X193148752Y-127463065D01*
X193148751Y-127463065D01*
X193381948Y-127500000D01*
X193618052Y-127500000D01*
X193851247Y-127463065D01*
X194075802Y-127390102D01*
X194286163Y-127282918D01*
X194286169Y-127282914D01*
X194369104Y-127222658D01*
X194369105Y-127222658D01*
X193629408Y-126482962D01*
X193692993Y-126465925D01*
X193807007Y-126400099D01*
X193900099Y-126307007D01*
X193965925Y-126192993D01*
X193982962Y-126129408D01*
X194722658Y-126869105D01*
X194722658Y-126869104D01*
X194782914Y-126786169D01*
X194782918Y-126786163D01*
X194890102Y-126575802D01*
X194963065Y-126351247D01*
X195000000Y-126118052D01*
X195000000Y-125881947D01*
X194963065Y-125648752D01*
X194890102Y-125424197D01*
X194782914Y-125213828D01*
X194722658Y-125130894D01*
X194722658Y-125130893D01*
X193982962Y-125870590D01*
X193965925Y-125807007D01*
X193900099Y-125692993D01*
X193807007Y-125599901D01*
X193692993Y-125534075D01*
X193629409Y-125517037D01*
X194369105Y-124777340D01*
X194369104Y-124777338D01*
X194286174Y-124717087D01*
X194075802Y-124609897D01*
X193851247Y-124536934D01*
X193851248Y-124536934D01*
X193618052Y-124500000D01*
X193381948Y-124500000D01*
X193148752Y-124536934D01*
X192924197Y-124609897D01*
X192713830Y-124717084D01*
X192630894Y-124777340D01*
X193370591Y-125517037D01*
X193307007Y-125534075D01*
X193192993Y-125599901D01*
X193099901Y-125692993D01*
X193034075Y-125807007D01*
X193017037Y-125870591D01*
X192277340Y-125130894D01*
X192217084Y-125213830D01*
X192109897Y-125424197D01*
X192036934Y-125648752D01*
X192000000Y-125881947D01*
X188263000Y-125881947D01*
X188263000Y-125881902D01*
X188226053Y-125648631D01*
X188177507Y-125499223D01*
X188153068Y-125424008D01*
X188153066Y-125424005D01*
X188153066Y-125424003D01*
X188092133Y-125304417D01*
X188045843Y-125213567D01*
X187907017Y-125022490D01*
X187740010Y-124855483D01*
X187548933Y-124716657D01*
X187507571Y-124695582D01*
X187338496Y-124609433D01*
X187113868Y-124536446D01*
X186880597Y-124499500D01*
X186880592Y-124499500D01*
X186644408Y-124499500D01*
X186644403Y-124499500D01*
X186411130Y-124536447D01*
X186381530Y-124546064D01*
X186311689Y-124548057D01*
X186255534Y-124515813D01*
X184227319Y-122487597D01*
X184193834Y-122426274D01*
X184191000Y-122399916D01*
X184191000Y-119401577D01*
X195262000Y-119401577D01*
X195262000Y-119598422D01*
X195292790Y-119792826D01*
X195353617Y-119980029D01*
X195438144Y-120145921D01*
X195442976Y-120155405D01*
X195558672Y-120314646D01*
X195697854Y-120453828D01*
X195857095Y-120569524D01*
X195939955Y-120611743D01*
X196032470Y-120658882D01*
X196032472Y-120658882D01*
X196032475Y-120658884D01*
X196122054Y-120687990D01*
X196219673Y-120719709D01*
X196414078Y-120750500D01*
X196414083Y-120750500D01*
X196610922Y-120750500D01*
X196805326Y-120719709D01*
X196992525Y-120658884D01*
X197167905Y-120569524D01*
X197327146Y-120453828D01*
X197466328Y-120314646D01*
X197582024Y-120155405D01*
X197671384Y-119980025D01*
X197732209Y-119792826D01*
X197740563Y-119740080D01*
X197763000Y-119598422D01*
X197763000Y-119401577D01*
X197732209Y-119207173D01*
X197671382Y-119019970D01*
X197582023Y-118844594D01*
X197466328Y-118685354D01*
X197327146Y-118546172D01*
X197167905Y-118430476D01*
X197163112Y-118428034D01*
X196992529Y-118341117D01*
X196805326Y-118280290D01*
X196610922Y-118249500D01*
X196610917Y-118249500D01*
X196414083Y-118249500D01*
X196414078Y-118249500D01*
X196219673Y-118280290D01*
X196032470Y-118341117D01*
X195857094Y-118430476D01*
X195766241Y-118496485D01*
X195697854Y-118546172D01*
X195697852Y-118546174D01*
X195697851Y-118546174D01*
X195558674Y-118685351D01*
X195558674Y-118685352D01*
X195558672Y-118685354D01*
X195520142Y-118738386D01*
X195442976Y-118844594D01*
X195353617Y-119019970D01*
X195292790Y-119207173D01*
X195262000Y-119401577D01*
X184191000Y-119401577D01*
X184191000Y-113431939D01*
X184164446Y-113298448D01*
X184164445Y-113298447D01*
X184164445Y-113298443D01*
X184164443Y-113298438D01*
X184112359Y-113172695D01*
X184112352Y-113172682D01*
X184036734Y-113059513D01*
X184036731Y-113059509D01*
X183940490Y-112963268D01*
X183940486Y-112963265D01*
X183827317Y-112887647D01*
X183827304Y-112887640D01*
X183701561Y-112835556D01*
X183701551Y-112835553D01*
X183568060Y-112809000D01*
X183568058Y-112809000D01*
X180037583Y-112809000D01*
X179970544Y-112789315D01*
X179949902Y-112772681D01*
X170642833Y-103465611D01*
X170559217Y-103381995D01*
X183199500Y-103381995D01*
X183199500Y-103618004D01*
X183199501Y-103618020D01*
X183230306Y-103852010D01*
X183291394Y-104079993D01*
X183381714Y-104298045D01*
X183381719Y-104298056D01*
X183452677Y-104420957D01*
X183499727Y-104502450D01*
X183499729Y-104502453D01*
X183499730Y-104502454D01*
X183643406Y-104689697D01*
X183643412Y-104689704D01*
X183810295Y-104856587D01*
X183810301Y-104856592D01*
X183997550Y-105000273D01*
X184128918Y-105076118D01*
X184201943Y-105118280D01*
X184201948Y-105118282D01*
X184201951Y-105118284D01*
X184420007Y-105208606D01*
X184647986Y-105269693D01*
X184881989Y-105300500D01*
X184881996Y-105300500D01*
X185118004Y-105300500D01*
X185118011Y-105300500D01*
X185352014Y-105269693D01*
X185579993Y-105208606D01*
X185798049Y-105118284D01*
X186002450Y-105000273D01*
X186189699Y-104856592D01*
X186356592Y-104689699D01*
X186500273Y-104502450D01*
X186618284Y-104298049D01*
X186708606Y-104079993D01*
X186769693Y-103852014D01*
X186800500Y-103618011D01*
X186800500Y-103381989D01*
X186769693Y-103147986D01*
X186708606Y-102920007D01*
X186618284Y-102701951D01*
X186618282Y-102701948D01*
X186618280Y-102701943D01*
X186520328Y-102532287D01*
X186500273Y-102497550D01*
X186356592Y-102310301D01*
X186356587Y-102310295D01*
X186189704Y-102143412D01*
X186189697Y-102143406D01*
X186002454Y-101999730D01*
X186002453Y-101999729D01*
X186002450Y-101999727D01*
X185920957Y-101952677D01*
X185798056Y-101881719D01*
X185798045Y-101881714D01*
X185579993Y-101791394D01*
X185433831Y-101752230D01*
X185352014Y-101730307D01*
X185352013Y-101730306D01*
X185352010Y-101730306D01*
X185118020Y-101699501D01*
X185118017Y-101699500D01*
X185118011Y-101699500D01*
X184881989Y-101699500D01*
X184881983Y-101699500D01*
X184881979Y-101699501D01*
X184647989Y-101730306D01*
X184420006Y-101791394D01*
X184201954Y-101881714D01*
X184201943Y-101881719D01*
X183997545Y-101999730D01*
X183810302Y-102143406D01*
X183810295Y-102143412D01*
X183643412Y-102310295D01*
X183643406Y-102310302D01*
X183499730Y-102497545D01*
X183381719Y-102701943D01*
X183381714Y-102701954D01*
X183291394Y-102920006D01*
X183230306Y-103147989D01*
X183199501Y-103381979D01*
X183199500Y-103381995D01*
X170559217Y-103381995D01*
X168934968Y-101757746D01*
X168901483Y-101696423D01*
X168900176Y-101650666D01*
X168920500Y-101522352D01*
X168920500Y-101317682D01*
X171320000Y-101317682D01*
X171320000Y-101522317D01*
X171352009Y-101724417D01*
X171415244Y-101919031D01*
X171508141Y-102101350D01*
X171508147Y-102101359D01*
X171540523Y-102145921D01*
X171540524Y-102145922D01*
X172220000Y-101466446D01*
X172220000Y-101472661D01*
X172247259Y-101574394D01*
X172299920Y-101665606D01*
X172374394Y-101740080D01*
X172465606Y-101792741D01*
X172567339Y-101820000D01*
X172573553Y-101820000D01*
X171894076Y-102499474D01*
X171938650Y-102531859D01*
X172120968Y-102624755D01*
X172315582Y-102687990D01*
X172517683Y-102720000D01*
X172722317Y-102720000D01*
X172924417Y-102687990D01*
X173119031Y-102624755D01*
X173301349Y-102531859D01*
X173345921Y-102499474D01*
X172666447Y-101820000D01*
X172672661Y-101820000D01*
X172774394Y-101792741D01*
X172865606Y-101740080D01*
X172940080Y-101665606D01*
X172992741Y-101574394D01*
X173020000Y-101472661D01*
X173020000Y-101466448D01*
X173699474Y-102145922D01*
X173699474Y-102145921D01*
X173731859Y-102101349D01*
X173824755Y-101919031D01*
X173887990Y-101724417D01*
X173920000Y-101522317D01*
X173920000Y-101317682D01*
X173887990Y-101115582D01*
X173824755Y-100920968D01*
X173731859Y-100738650D01*
X173699474Y-100694077D01*
X173699474Y-100694076D01*
X173020000Y-101373551D01*
X173020000Y-101367339D01*
X172992741Y-101265606D01*
X172940080Y-101174394D01*
X172865606Y-101099920D01*
X172774394Y-101047259D01*
X172672661Y-101020000D01*
X172666446Y-101020000D01*
X173304451Y-100381995D01*
X187899500Y-100381995D01*
X187899500Y-100618004D01*
X187899501Y-100618020D01*
X187930306Y-100852010D01*
X187991394Y-101079993D01*
X188081714Y-101298045D01*
X188081719Y-101298056D01*
X188125465Y-101373825D01*
X188199727Y-101502450D01*
X188199729Y-101502453D01*
X188199730Y-101502454D01*
X188343406Y-101689697D01*
X188343412Y-101689704D01*
X188510295Y-101856587D01*
X188510302Y-101856593D01*
X188591673Y-101919031D01*
X188697550Y-102000273D01*
X188828918Y-102076118D01*
X188901943Y-102118280D01*
X188901948Y-102118282D01*
X188901951Y-102118284D01*
X189120007Y-102208606D01*
X189347986Y-102269693D01*
X189581989Y-102300500D01*
X189581996Y-102300500D01*
X189818004Y-102300500D01*
X189818011Y-102300500D01*
X190052014Y-102269693D01*
X190279993Y-102208606D01*
X190498049Y-102118284D01*
X190702450Y-102000273D01*
X190889699Y-101856592D01*
X191056592Y-101689699D01*
X191200273Y-101502450D01*
X191318284Y-101298049D01*
X191408606Y-101079993D01*
X191469693Y-100852014D01*
X191500500Y-100618011D01*
X191500500Y-100381989D01*
X191469693Y-100147986D01*
X191408606Y-99920007D01*
X191318284Y-99701951D01*
X191318282Y-99701948D01*
X191318280Y-99701943D01*
X191266485Y-99612232D01*
X191200273Y-99497550D01*
X191056592Y-99310301D01*
X191056587Y-99310295D01*
X190889704Y-99143412D01*
X190889697Y-99143406D01*
X190702454Y-98999730D01*
X190702453Y-98999729D01*
X190702450Y-98999727D01*
X190620957Y-98952677D01*
X190498056Y-98881719D01*
X190498045Y-98881714D01*
X190279993Y-98791394D01*
X190052010Y-98730306D01*
X189818020Y-98699501D01*
X189818017Y-98699500D01*
X189818011Y-98699500D01*
X189581989Y-98699500D01*
X189581983Y-98699500D01*
X189581979Y-98699501D01*
X189347989Y-98730306D01*
X189120006Y-98791394D01*
X188901954Y-98881714D01*
X188901943Y-98881719D01*
X188697545Y-98999730D01*
X188510302Y-99143406D01*
X188510295Y-99143412D01*
X188343412Y-99310295D01*
X188343406Y-99310302D01*
X188199730Y-99497545D01*
X188081719Y-99701943D01*
X188081714Y-99701954D01*
X187991394Y-99920006D01*
X187930306Y-100147989D01*
X187899501Y-100381979D01*
X187899500Y-100381995D01*
X173304451Y-100381995D01*
X173345921Y-100340525D01*
X173345921Y-100340522D01*
X173301359Y-100308147D01*
X173301350Y-100308141D01*
X173119031Y-100215244D01*
X172924417Y-100152009D01*
X172722317Y-100120000D01*
X172517683Y-100120000D01*
X172315582Y-100152009D01*
X172120968Y-100215244D01*
X171938644Y-100308143D01*
X171894077Y-100340523D01*
X171894077Y-100340524D01*
X172573554Y-101020000D01*
X172567339Y-101020000D01*
X172465606Y-101047259D01*
X172374394Y-101099920D01*
X172299920Y-101174394D01*
X172247259Y-101265606D01*
X172220000Y-101367339D01*
X172220000Y-101373553D01*
X171540524Y-100694077D01*
X171540523Y-100694077D01*
X171508143Y-100738644D01*
X171415244Y-100920968D01*
X171352009Y-101115582D01*
X171320000Y-101317682D01*
X168920500Y-101317682D01*
X168920500Y-101317648D01*
X168907354Y-101234646D01*
X168888477Y-101115465D01*
X168857458Y-101020000D01*
X168825220Y-100920781D01*
X168825218Y-100920778D01*
X168825218Y-100920776D01*
X168732419Y-100738650D01*
X168732287Y-100738390D01*
X168700092Y-100694077D01*
X168611971Y-100572786D01*
X168467213Y-100428028D01*
X168301613Y-100307715D01*
X168301612Y-100307714D01*
X168301610Y-100307713D01*
X168244653Y-100278691D01*
X168119223Y-100214781D01*
X167924534Y-100151522D01*
X167749995Y-100123878D01*
X167722352Y-100119500D01*
X167517648Y-100119500D01*
X167493329Y-100123351D01*
X167315465Y-100151522D01*
X167120776Y-100214781D01*
X166938386Y-100307715D01*
X166772786Y-100428028D01*
X166628028Y-100572786D01*
X166507715Y-100738386D01*
X166414781Y-100920776D01*
X166351522Y-101115465D01*
X166319500Y-101317648D01*
X161164096Y-101317648D01*
X160620001Y-100773553D01*
X160620000Y-100773553D01*
X159929873Y-101463677D01*
X159929873Y-101463678D01*
X159964858Y-101489096D01*
X160141764Y-101579234D01*
X160192560Y-101627209D01*
X160209355Y-101695030D01*
X160186818Y-101761164D01*
X160141764Y-101800204D01*
X159964594Y-101890476D01*
X159925028Y-101919223D01*
X159805354Y-102006172D01*
X159805352Y-102006174D01*
X159805351Y-102006174D01*
X159666174Y-102145351D01*
X159666174Y-102145352D01*
X159666172Y-102145354D01*
X159616485Y-102213741D01*
X159550476Y-102304594D01*
X159461117Y-102479970D01*
X159400290Y-102667173D01*
X159369500Y-102861577D01*
X154250500Y-102861577D01*
X154219709Y-102667173D01*
X154175742Y-102531859D01*
X154158884Y-102479975D01*
X154158882Y-102479972D01*
X154158882Y-102479970D01*
X154111743Y-102387455D01*
X154069524Y-102304595D01*
X153953828Y-102145354D01*
X153814646Y-102006172D01*
X153694972Y-101919223D01*
X153655403Y-101890474D01*
X153478787Y-101800485D01*
X153427990Y-101752511D01*
X153411195Y-101684690D01*
X153433732Y-101618555D01*
X153478787Y-101579515D01*
X153655403Y-101489525D01*
X153655402Y-101489525D01*
X153655405Y-101489524D01*
X153814646Y-101373828D01*
X153953828Y-101234646D01*
X154069524Y-101075405D01*
X154158884Y-100900025D01*
X154219709Y-100712826D01*
X154234726Y-100618011D01*
X154250500Y-100518422D01*
X154250500Y-100321577D01*
X154219709Y-100127173D01*
X154208254Y-100091922D01*
X154158884Y-99939975D01*
X154158880Y-99939967D01*
X154158041Y-99937939D01*
X154157951Y-99937107D01*
X154157378Y-99935342D01*
X154157749Y-99935221D01*
X154150581Y-99868469D01*
X154181863Y-99805993D01*
X154241956Y-99770348D01*
X154272608Y-99766500D01*
X159347936Y-99766500D01*
X159414975Y-99786185D01*
X159460730Y-99838989D01*
X159470674Y-99908147D01*
X159462500Y-99937946D01*
X159461580Y-99940165D01*
X159400778Y-100127294D01*
X159370000Y-100321617D01*
X159370000Y-100518382D01*
X159400778Y-100712705D01*
X159461581Y-100899835D01*
X159550905Y-101075145D01*
X159576319Y-101110125D01*
X159576320Y-101110125D01*
X160325145Y-100361300D01*
X160320000Y-100380504D01*
X160320000Y-100459496D01*
X160340444Y-100535796D01*
X160379940Y-100604205D01*
X160435795Y-100660060D01*
X160504204Y-100699556D01*
X160580504Y-100720000D01*
X160659496Y-100720000D01*
X160735796Y-100699556D01*
X160804205Y-100660060D01*
X160860060Y-100604205D01*
X160899556Y-100535796D01*
X160920000Y-100459496D01*
X160920000Y-100380504D01*
X160914854Y-100361302D01*
X161663678Y-101110126D01*
X161663678Y-101110125D01*
X161689095Y-101075143D01*
X161778418Y-100899835D01*
X161839221Y-100712705D01*
X161870000Y-100518382D01*
X161870000Y-100321617D01*
X161839221Y-100127294D01*
X161778418Y-99940164D01*
X161689095Y-99764856D01*
X161630978Y-99684865D01*
X161607498Y-99619058D01*
X161623323Y-99551004D01*
X161643608Y-99524306D01*
X165015779Y-96152135D01*
X183199500Y-96152135D01*
X183199500Y-98847870D01*
X183199501Y-98847876D01*
X183205908Y-98907483D01*
X183256202Y-99042328D01*
X183256206Y-99042335D01*
X183342452Y-99157544D01*
X183342455Y-99157547D01*
X183457664Y-99243793D01*
X183457671Y-99243797D01*
X183592517Y-99294091D01*
X183592516Y-99294091D01*
X183599444Y-99294835D01*
X183652127Y-99300500D01*
X186347872Y-99300499D01*
X186407483Y-99294091D01*
X186542331Y-99243796D01*
X186657546Y-99157546D01*
X186743796Y-99042331D01*
X186794091Y-98907483D01*
X186800500Y-98847873D01*
X186800499Y-96152128D01*
X186794091Y-96092517D01*
X186743796Y-95957669D01*
X186743795Y-95957668D01*
X186743793Y-95957664D01*
X186657547Y-95842455D01*
X186657544Y-95842452D01*
X186542335Y-95756206D01*
X186542328Y-95756202D01*
X186407482Y-95705908D01*
X186407483Y-95705908D01*
X186347883Y-95699501D01*
X186347881Y-95699500D01*
X186347873Y-95699500D01*
X186347864Y-95699500D01*
X183652129Y-95699500D01*
X183652123Y-95699501D01*
X183592516Y-95705908D01*
X183457671Y-95756202D01*
X183457664Y-95756206D01*
X183342455Y-95842452D01*
X183342452Y-95842455D01*
X183256206Y-95957664D01*
X183256202Y-95957671D01*
X183205908Y-96092517D01*
X183199501Y-96152116D01*
X183199501Y-96152123D01*
X183199500Y-96152135D01*
X165015779Y-96152135D01*
X169036735Y-92131180D01*
X169112356Y-92018004D01*
X169164445Y-91892250D01*
X169166366Y-91882592D01*
X169191000Y-91758751D01*
X169191000Y-90737783D01*
X169199644Y-90708342D01*
X169206168Y-90678356D01*
X169209922Y-90673340D01*
X169210685Y-90670744D01*
X169227315Y-90650106D01*
X169246920Y-90630501D01*
X169308242Y-90597017D01*
X169377934Y-90602001D01*
X169433867Y-90643873D01*
X169458284Y-90709337D01*
X169458600Y-90718183D01*
X169458600Y-90736557D01*
X169491876Y-90946655D01*
X169557606Y-91148955D01*
X169557607Y-91148958D01*
X169624603Y-91280443D01*
X169654179Y-91338488D01*
X169779210Y-91510578D01*
X169929622Y-91660990D01*
X170101712Y-91786021D01*
X170194670Y-91833385D01*
X170291241Y-91882592D01*
X170291244Y-91882593D01*
X170392394Y-91915458D01*
X170493546Y-91948324D01*
X170703642Y-91981600D01*
X170703643Y-91981600D01*
X170916357Y-91981600D01*
X170916358Y-91981600D01*
X171126454Y-91948324D01*
X171328758Y-91882592D01*
X171518288Y-91786021D01*
X171690378Y-91660990D01*
X171840790Y-91510578D01*
X171965821Y-91338488D01*
X171969514Y-91331239D01*
X172017486Y-91280443D01*
X172085307Y-91263646D01*
X172151443Y-91286181D01*
X172190485Y-91331239D01*
X172194179Y-91338488D01*
X172319210Y-91510578D01*
X172469622Y-91660990D01*
X172641712Y-91786021D01*
X172734670Y-91833385D01*
X172831241Y-91882592D01*
X172831244Y-91882593D01*
X172932394Y-91915458D01*
X173033546Y-91948324D01*
X173243642Y-91981600D01*
X173243643Y-91981600D01*
X173456357Y-91981600D01*
X173456358Y-91981600D01*
X173666454Y-91948324D01*
X173868758Y-91882592D01*
X174058288Y-91786021D01*
X174230378Y-91660990D01*
X174380790Y-91510578D01*
X174505821Y-91338488D01*
X174509514Y-91331239D01*
X174557486Y-91280443D01*
X174625307Y-91263646D01*
X174691443Y-91286181D01*
X174730485Y-91331239D01*
X174734179Y-91338488D01*
X174859210Y-91510578D01*
X175009622Y-91660990D01*
X175181712Y-91786021D01*
X175274670Y-91833385D01*
X175371241Y-91882592D01*
X175371244Y-91882593D01*
X175472394Y-91915458D01*
X175573546Y-91948324D01*
X175783642Y-91981600D01*
X175783643Y-91981600D01*
X175996357Y-91981600D01*
X175996358Y-91981600D01*
X176206454Y-91948324D01*
X176408758Y-91882592D01*
X176598288Y-91786021D01*
X176770378Y-91660990D01*
X176920790Y-91510578D01*
X177045821Y-91338488D01*
X177049514Y-91331239D01*
X177097486Y-91280443D01*
X177165307Y-91263646D01*
X177231443Y-91286181D01*
X177270485Y-91331239D01*
X177274179Y-91338488D01*
X177399210Y-91510578D01*
X177549622Y-91660990D01*
X177721712Y-91786021D01*
X177814670Y-91833385D01*
X177911241Y-91882592D01*
X177911244Y-91882593D01*
X178012394Y-91915458D01*
X178113546Y-91948324D01*
X178323642Y-91981600D01*
X178323643Y-91981600D01*
X178536357Y-91981600D01*
X178536358Y-91981600D01*
X178746454Y-91948324D01*
X178948758Y-91882592D01*
X179138288Y-91786021D01*
X179310378Y-91660990D01*
X179460790Y-91510578D01*
X179585821Y-91338488D01*
X179682392Y-91148958D01*
X179748124Y-90946654D01*
X179781400Y-90736558D01*
X179781400Y-90523842D01*
X179748124Y-90313746D01*
X179710725Y-90198643D01*
X179682393Y-90111444D01*
X179682392Y-90111441D01*
X179605082Y-89959714D01*
X179585821Y-89921912D01*
X179460790Y-89749822D01*
X179310378Y-89599410D01*
X179224333Y-89536894D01*
X179138286Y-89474377D01*
X179130487Y-89470404D01*
X179079691Y-89422431D01*
X179062895Y-89354610D01*
X179085432Y-89288475D01*
X179130491Y-89249432D01*
X179138015Y-89245598D01*
X179138031Y-89245588D01*
X179192361Y-89206115D01*
X179192362Y-89206114D01*
X178476447Y-88490200D01*
X178482661Y-88490200D01*
X178584394Y-88462941D01*
X178675606Y-88410280D01*
X178750080Y-88335806D01*
X178802741Y-88244594D01*
X178830000Y-88142861D01*
X178830000Y-88136647D01*
X179545914Y-88852562D01*
X179545915Y-88852561D01*
X179585388Y-88798231D01*
X179585396Y-88798218D01*
X179681928Y-88608766D01*
X179681929Y-88608763D01*
X179747635Y-88406537D01*
X179780900Y-88196517D01*
X179780900Y-87983882D01*
X179747635Y-87773862D01*
X179681929Y-87571636D01*
X179681928Y-87571633D01*
X179615469Y-87441201D01*
X179589267Y-87389778D01*
X188559500Y-87389778D01*
X188559500Y-87610221D01*
X188593985Y-87827952D01*
X188662103Y-88037603D01*
X188662104Y-88037606D01*
X188728874Y-88168646D01*
X188757129Y-88224100D01*
X188762187Y-88234025D01*
X188891752Y-88412358D01*
X188891756Y-88412363D01*
X189047636Y-88568243D01*
X189047641Y-88568247D01*
X189103676Y-88608958D01*
X189225978Y-88697815D01*
X189320901Y-88746181D01*
X189422393Y-88797895D01*
X189422396Y-88797896D01*
X189527221Y-88831955D01*
X189632049Y-88866015D01*
X189849778Y-88900500D01*
X189849779Y-88900500D01*
X190070221Y-88900500D01*
X190070222Y-88900500D01*
X190287951Y-88866015D01*
X190497606Y-88797895D01*
X190694022Y-88697815D01*
X190872365Y-88568242D01*
X191028242Y-88412365D01*
X191083865Y-88335806D01*
X191129682Y-88272745D01*
X191185011Y-88230079D01*
X191254625Y-88224100D01*
X191316420Y-88256705D01*
X191330318Y-88272745D01*
X191431752Y-88412358D01*
X191431756Y-88412363D01*
X191587636Y-88568243D01*
X191587641Y-88568247D01*
X191643676Y-88608958D01*
X191765978Y-88697815D01*
X191860901Y-88746181D01*
X191962393Y-88797895D01*
X191962396Y-88797896D01*
X192067221Y-88831955D01*
X192172049Y-88866015D01*
X192389778Y-88900500D01*
X192389779Y-88900500D01*
X192610221Y-88900500D01*
X192610222Y-88900500D01*
X192827951Y-88866015D01*
X193037606Y-88797895D01*
X193234022Y-88697815D01*
X193412365Y-88568242D01*
X193568242Y-88412365D01*
X193623865Y-88335806D01*
X193669682Y-88272745D01*
X193725011Y-88230079D01*
X193794625Y-88224100D01*
X193856420Y-88256705D01*
X193870318Y-88272745D01*
X193971752Y-88412358D01*
X193971756Y-88412363D01*
X194127636Y-88568243D01*
X194127641Y-88568247D01*
X194183676Y-88608958D01*
X194305978Y-88697815D01*
X194400901Y-88746181D01*
X194502393Y-88797895D01*
X194502396Y-88797896D01*
X194607221Y-88831955D01*
X194712049Y-88866015D01*
X194929778Y-88900500D01*
X194929779Y-88900500D01*
X195150221Y-88900500D01*
X195150222Y-88900500D01*
X195367951Y-88866015D01*
X195577606Y-88797895D01*
X195774022Y-88697815D01*
X195952365Y-88568242D01*
X196108242Y-88412365D01*
X196237815Y-88234022D01*
X196337895Y-88037606D01*
X196406015Y-87827951D01*
X196440500Y-87610222D01*
X196440500Y-87389778D01*
X196406015Y-87172049D01*
X196347505Y-86991971D01*
X196337896Y-86962396D01*
X196337895Y-86962393D01*
X196303237Y-86894375D01*
X196237815Y-86765978D01*
X196189908Y-86700039D01*
X196108247Y-86587641D01*
X196108243Y-86587636D01*
X195952363Y-86431756D01*
X195952358Y-86431752D01*
X195774025Y-86302187D01*
X195774024Y-86302186D01*
X195774022Y-86302185D01*
X195711096Y-86270122D01*
X195577606Y-86202104D01*
X195577603Y-86202103D01*
X195367952Y-86133985D01*
X195259086Y-86116742D01*
X195150222Y-86099500D01*
X194929778Y-86099500D01*
X194857201Y-86110995D01*
X194712047Y-86133985D01*
X194502396Y-86202103D01*
X194502393Y-86202104D01*
X194305974Y-86302187D01*
X194127641Y-86431752D01*
X194127636Y-86431756D01*
X193971756Y-86587636D01*
X193971752Y-86587641D01*
X193870318Y-86727254D01*
X193814988Y-86769920D01*
X193745375Y-86775899D01*
X193683580Y-86743293D01*
X193669682Y-86727254D01*
X193568247Y-86587641D01*
X193568243Y-86587636D01*
X193412363Y-86431756D01*
X193412358Y-86431752D01*
X193234025Y-86302187D01*
X193234024Y-86302186D01*
X193234022Y-86302185D01*
X193171096Y-86270122D01*
X193037606Y-86202104D01*
X193037603Y-86202103D01*
X192827952Y-86133985D01*
X192719086Y-86116742D01*
X192610222Y-86099500D01*
X192389778Y-86099500D01*
X192317201Y-86110995D01*
X192172047Y-86133985D01*
X191962396Y-86202103D01*
X191962393Y-86202104D01*
X191765974Y-86302187D01*
X191587641Y-86431752D01*
X191587636Y-86431756D01*
X191431756Y-86587636D01*
X191431752Y-86587641D01*
X191330318Y-86727254D01*
X191274988Y-86769920D01*
X191205375Y-86775899D01*
X191143580Y-86743293D01*
X191129682Y-86727254D01*
X191028247Y-86587641D01*
X191028243Y-86587636D01*
X190872363Y-86431756D01*
X190872358Y-86431752D01*
X190694025Y-86302187D01*
X190694024Y-86302186D01*
X190694022Y-86302185D01*
X190631096Y-86270122D01*
X190497606Y-86202104D01*
X190497603Y-86202103D01*
X190287952Y-86133985D01*
X190179086Y-86116742D01*
X190070222Y-86099500D01*
X189849778Y-86099500D01*
X189777201Y-86110995D01*
X189632047Y-86133985D01*
X189422396Y-86202103D01*
X189422393Y-86202104D01*
X189225974Y-86302187D01*
X189047641Y-86431752D01*
X189047636Y-86431756D01*
X188891756Y-86587636D01*
X188891752Y-86587641D01*
X188762187Y-86765974D01*
X188662104Y-86962393D01*
X188662103Y-86962396D01*
X188593985Y-87172047D01*
X188559500Y-87389778D01*
X179589267Y-87389778D01*
X179585390Y-87382170D01*
X179545915Y-87327837D01*
X179545914Y-87327836D01*
X178830000Y-88043751D01*
X178830000Y-88037539D01*
X178802741Y-87935806D01*
X178750080Y-87844594D01*
X178675606Y-87770120D01*
X178584394Y-87717459D01*
X178482661Y-87690200D01*
X178476446Y-87690200D01*
X179192361Y-86974285D01*
X179192361Y-86974283D01*
X179138029Y-86934809D01*
X178948566Y-86838271D01*
X178948563Y-86838270D01*
X178746337Y-86772564D01*
X178536317Y-86739300D01*
X178323683Y-86739300D01*
X178113662Y-86772564D01*
X177911436Y-86838270D01*
X177911433Y-86838271D01*
X177721975Y-86934806D01*
X177721973Y-86934807D01*
X177667637Y-86974283D01*
X177667637Y-86974284D01*
X178383554Y-87690200D01*
X178377339Y-87690200D01*
X178275606Y-87717459D01*
X178184394Y-87770120D01*
X178109920Y-87844594D01*
X178057259Y-87935806D01*
X178030000Y-88037539D01*
X178030000Y-88043753D01*
X177314084Y-87327837D01*
X177314083Y-87327837D01*
X177274607Y-87382173D01*
X177274605Y-87382177D01*
X177270762Y-87389719D01*
X177222784Y-87440512D01*
X177154963Y-87457304D01*
X177088829Y-87434763D01*
X177049793Y-87389708D01*
X177049515Y-87389163D01*
X177045821Y-87381912D01*
X176920790Y-87209822D01*
X176770378Y-87059410D01*
X176598288Y-86934379D01*
X176545824Y-86907647D01*
X176408758Y-86837807D01*
X176408755Y-86837806D01*
X176206455Y-86772076D01*
X176101406Y-86755438D01*
X175996358Y-86738800D01*
X175783642Y-86738800D01*
X175713610Y-86749892D01*
X175573544Y-86772076D01*
X175371244Y-86837806D01*
X175371241Y-86837807D01*
X175181711Y-86934379D01*
X175083527Y-87005714D01*
X175009622Y-87059410D01*
X175009620Y-87059412D01*
X175009619Y-87059412D01*
X174859212Y-87209819D01*
X174859212Y-87209820D01*
X174859210Y-87209822D01*
X174821646Y-87261523D01*
X174734177Y-87381913D01*
X174730484Y-87389163D01*
X174682510Y-87439958D01*
X174614689Y-87456753D01*
X174548554Y-87434215D01*
X174509516Y-87389163D01*
X174505822Y-87381913D01*
X174466532Y-87327836D01*
X174380790Y-87209822D01*
X174230378Y-87059410D01*
X174058288Y-86934379D01*
X174005824Y-86907647D01*
X173868758Y-86837807D01*
X173868755Y-86837806D01*
X173666455Y-86772076D01*
X173561406Y-86755438D01*
X173456358Y-86738800D01*
X173243642Y-86738800D01*
X173173610Y-86749892D01*
X173033544Y-86772076D01*
X172831244Y-86837806D01*
X172831241Y-86837807D01*
X172641711Y-86934379D01*
X172543527Y-87005714D01*
X172469622Y-87059410D01*
X172469620Y-87059412D01*
X172469619Y-87059412D01*
X172319212Y-87209819D01*
X172319212Y-87209820D01*
X172319210Y-87209822D01*
X172281646Y-87261523D01*
X172194177Y-87381913D01*
X172190484Y-87389163D01*
X172142510Y-87439958D01*
X172074689Y-87456753D01*
X172008554Y-87434215D01*
X171969516Y-87389163D01*
X171965822Y-87381913D01*
X171926532Y-87327836D01*
X171840790Y-87209822D01*
X171690378Y-87059410D01*
X171518288Y-86934379D01*
X171465824Y-86907647D01*
X171328758Y-86837807D01*
X171328755Y-86837806D01*
X171126455Y-86772076D01*
X171021406Y-86755438D01*
X170916358Y-86738800D01*
X170703642Y-86738800D01*
X170633610Y-86749892D01*
X170493544Y-86772076D01*
X170291244Y-86837806D01*
X170291241Y-86837807D01*
X170101711Y-86934379D01*
X170003527Y-87005714D01*
X169929622Y-87059410D01*
X169929620Y-87059412D01*
X169929619Y-87059412D01*
X169779212Y-87209819D01*
X169779212Y-87209820D01*
X169779210Y-87209822D01*
X169725514Y-87283727D01*
X169654179Y-87381911D01*
X169557607Y-87571441D01*
X169557606Y-87571444D01*
X169491876Y-87773744D01*
X169458600Y-87983842D01*
X169458600Y-88196558D01*
X169458599Y-88196558D01*
X169485334Y-88365356D01*
X169476379Y-88434649D01*
X169450542Y-88472434D01*
X167963269Y-89959707D01*
X167963263Y-89959714D01*
X167898818Y-90056165D01*
X167898817Y-90056167D01*
X167887646Y-90072884D01*
X167887641Y-90072893D01*
X167835556Y-90198638D01*
X167835553Y-90198648D01*
X167809000Y-90332139D01*
X167809000Y-91353108D01*
X167789315Y-91420147D01*
X167772681Y-91440789D01*
X161911249Y-97302220D01*
X161849926Y-97335705D01*
X161780234Y-97330721D01*
X161724301Y-97288849D01*
X161713086Y-97270838D01*
X161689524Y-97224595D01*
X161573828Y-97065354D01*
X161434646Y-96926172D01*
X161310975Y-96836319D01*
X161275403Y-96810474D01*
X161098787Y-96720485D01*
X161047990Y-96672511D01*
X161031195Y-96604690D01*
X161053732Y-96538555D01*
X161098787Y-96499515D01*
X161275403Y-96409525D01*
X161275402Y-96409525D01*
X161275405Y-96409524D01*
X161434646Y-96293828D01*
X161573828Y-96154646D01*
X161689524Y-95995405D01*
X161778884Y-95820025D01*
X161839709Y-95632826D01*
X161870500Y-95438422D01*
X161870500Y-95241577D01*
X161839709Y-95047173D01*
X161778882Y-94859970D01*
X161689523Y-94684594D01*
X161573828Y-94525354D01*
X161434646Y-94386172D01*
X161355025Y-94328324D01*
X161275403Y-94270474D01*
X161098787Y-94180485D01*
X161047990Y-94132511D01*
X161031195Y-94064690D01*
X161053732Y-93998555D01*
X161098787Y-93959515D01*
X161275403Y-93869525D01*
X161275402Y-93869525D01*
X161275405Y-93869524D01*
X161434646Y-93753828D01*
X161573828Y-93614646D01*
X161689524Y-93455405D01*
X161778884Y-93280025D01*
X161839709Y-93092826D01*
X161870500Y-92898422D01*
X161870500Y-92701577D01*
X161839709Y-92507173D01*
X161778882Y-92319970D01*
X161689523Y-92144594D01*
X161679776Y-92131178D01*
X161573828Y-91985354D01*
X161434646Y-91846172D01*
X161275405Y-91730476D01*
X161100029Y-91641117D01*
X160912826Y-91580290D01*
X160718422Y-91549500D01*
X160718417Y-91549500D01*
X160521583Y-91549500D01*
X160521578Y-91549500D01*
X160327173Y-91580290D01*
X160139970Y-91641117D01*
X159964594Y-91730476D01*
X159888146Y-91786020D01*
X159805354Y-91846172D01*
X159805352Y-91846174D01*
X159805351Y-91846174D01*
X159666174Y-91985351D01*
X159666174Y-91985352D01*
X159666172Y-91985354D01*
X159642450Y-92018005D01*
X159550476Y-92144594D01*
X159461117Y-92319970D01*
X159400290Y-92507173D01*
X159369500Y-92701577D01*
X159369500Y-92898422D01*
X159400290Y-93092826D01*
X159461117Y-93280029D01*
X159517941Y-93391551D01*
X159550476Y-93455405D01*
X159666172Y-93614646D01*
X159805354Y-93753828D01*
X159964595Y-93869524D01*
X160087992Y-93932397D01*
X160141213Y-93959515D01*
X160192009Y-94007489D01*
X160208804Y-94075310D01*
X160186267Y-94141445D01*
X160141213Y-94180485D01*
X159964594Y-94270476D01*
X159873741Y-94336485D01*
X159805354Y-94386172D01*
X159805352Y-94386174D01*
X159805351Y-94386174D01*
X159666174Y-94525351D01*
X159666174Y-94525352D01*
X159666172Y-94525354D01*
X159616485Y-94593741D01*
X159550476Y-94684594D01*
X159461117Y-94859970D01*
X159400290Y-95047173D01*
X159369500Y-95241577D01*
X159369500Y-95438422D01*
X159400290Y-95632826D01*
X159461117Y-95820029D01*
X159550476Y-95995405D01*
X159666172Y-96154646D01*
X159805354Y-96293828D01*
X159964595Y-96409524D01*
X160087992Y-96472397D01*
X160141213Y-96499515D01*
X160192009Y-96547489D01*
X160208804Y-96615310D01*
X160186267Y-96681445D01*
X160141213Y-96720485D01*
X159964594Y-96810476D01*
X159873741Y-96876485D01*
X159805354Y-96926172D01*
X159805352Y-96926174D01*
X159805351Y-96926174D01*
X159666174Y-97065351D01*
X159666174Y-97065352D01*
X159666172Y-97065354D01*
X159616485Y-97133741D01*
X159550476Y-97224594D01*
X159461117Y-97399970D01*
X159400290Y-97587173D01*
X159369500Y-97781577D01*
X159369500Y-97978422D01*
X159400291Y-98172827D01*
X159400291Y-98172830D01*
X159416327Y-98222182D01*
X159418322Y-98292023D01*
X159382242Y-98351856D01*
X159319541Y-98382684D01*
X159298396Y-98384500D01*
X154321077Y-98384500D01*
X154254038Y-98364815D01*
X154208283Y-98312011D01*
X154198339Y-98242853D01*
X154203146Y-98222182D01*
X154219221Y-98172706D01*
X154219221Y-98172705D01*
X154250000Y-97978382D01*
X154250000Y-97781617D01*
X154219221Y-97587294D01*
X154158418Y-97400164D01*
X154069096Y-97224858D01*
X154043678Y-97189873D01*
X154043677Y-97189873D01*
X153294855Y-97938696D01*
X153300000Y-97919496D01*
X153300000Y-97840504D01*
X153279556Y-97764204D01*
X153240060Y-97695795D01*
X153184205Y-97639940D01*
X153115796Y-97600444D01*
X153039496Y-97580000D01*
X152960504Y-97580000D01*
X152884204Y-97600444D01*
X152815795Y-97639940D01*
X152759940Y-97695795D01*
X152720444Y-97764204D01*
X152700000Y-97840504D01*
X152700000Y-97919496D01*
X152705145Y-97938697D01*
X151956320Y-97189872D01*
X151956320Y-97189873D01*
X151930902Y-97224859D01*
X151930899Y-97224863D01*
X151841582Y-97400161D01*
X151780778Y-97587294D01*
X151750000Y-97781617D01*
X151750000Y-97978382D01*
X151780778Y-98172705D01*
X151780778Y-98172706D01*
X151796854Y-98222182D01*
X151798849Y-98292023D01*
X151762769Y-98351856D01*
X151700068Y-98382684D01*
X151678923Y-98384500D01*
X121651680Y-98384500D01*
X121584641Y-98364815D01*
X121563999Y-98348181D01*
X110568110Y-87352291D01*
X110534625Y-87290968D01*
X110539609Y-87221276D01*
X110581481Y-87165343D01*
X110599490Y-87154129D01*
X110681610Y-87112287D01*
X110751806Y-87061287D01*
X110847213Y-86991971D01*
X110847215Y-86991968D01*
X110847219Y-86991966D01*
X110991966Y-86847219D01*
X110991968Y-86847215D01*
X110991971Y-86847213D01*
X111048554Y-86769332D01*
X111112287Y-86681610D01*
X111205220Y-86499219D01*
X111268477Y-86304534D01*
X111300500Y-86102352D01*
X111300500Y-85897648D01*
X111268477Y-85695466D01*
X111265086Y-85685031D01*
X111205218Y-85500776D01*
X111171503Y-85434607D01*
X111112287Y-85318390D01*
X111104556Y-85307749D01*
X110991971Y-85152786D01*
X110847213Y-85008028D01*
X110681613Y-84887715D01*
X110681612Y-84887714D01*
X110681610Y-84887713D01*
X110624653Y-84858691D01*
X110499223Y-84794781D01*
X110304534Y-84731522D01*
X110129995Y-84703878D01*
X110102352Y-84699500D01*
X109897648Y-84699500D01*
X109854283Y-84706368D01*
X109769332Y-84719823D01*
X109700038Y-84710868D01*
X109662253Y-84685031D01*
X108339403Y-83362181D01*
X108305918Y-83300858D01*
X108310902Y-83231166D01*
X108352774Y-83175233D01*
X108418238Y-83150816D01*
X108427084Y-83150500D01*
X108602351Y-83150500D01*
X108602352Y-83150500D01*
X108804534Y-83118477D01*
X108999219Y-83055220D01*
X109181610Y-82962287D01*
X109274590Y-82894732D01*
X109347213Y-82841971D01*
X109347215Y-82841968D01*
X109347219Y-82841966D01*
X109491966Y-82697219D01*
X109491968Y-82697215D01*
X109491971Y-82697213D01*
X109544732Y-82624590D01*
X109612287Y-82531610D01*
X109705220Y-82349219D01*
X109768477Y-82154534D01*
X109800500Y-81952352D01*
X109800500Y-81747648D01*
X109768477Y-81545465D01*
X109714646Y-81379792D01*
X109705220Y-81350781D01*
X109705218Y-81350778D01*
X109705218Y-81350776D01*
X109671503Y-81284607D01*
X109612287Y-81168390D01*
X109597263Y-81147711D01*
X109491971Y-81002786D01*
X109347213Y-80858028D01*
X109181613Y-80737715D01*
X109181612Y-80737714D01*
X109181610Y-80737713D01*
X109124653Y-80708691D01*
X108999223Y-80644781D01*
X108804534Y-80581522D01*
X108622309Y-80552661D01*
X108602352Y-80549500D01*
X108397648Y-80549500D01*
X108377691Y-80552661D01*
X108195464Y-80581523D01*
X108195461Y-80581523D01*
X108107818Y-80610001D01*
X108037977Y-80611996D01*
X107978144Y-80575916D01*
X107947316Y-80513215D01*
X107945500Y-80492070D01*
X107945500Y-70507929D01*
X107965185Y-70440890D01*
X108017989Y-70395135D01*
X108087147Y-70385191D01*
X108107810Y-70389996D01*
X108169200Y-70409942D01*
X108195465Y-70418477D01*
X108296557Y-70434488D01*
X108397648Y-70450500D01*
X108397649Y-70450500D01*
X108602351Y-70450500D01*
X108602352Y-70450500D01*
X108804534Y-70418477D01*
X108999219Y-70355220D01*
X109181610Y-70262287D01*
X109274590Y-70194732D01*
X109347213Y-70141971D01*
X109347215Y-70141968D01*
X109347219Y-70141966D01*
X109491966Y-69997219D01*
X109568327Y-69892115D01*
X109623657Y-69849449D01*
X109668646Y-69841000D01*
X124502416Y-69841000D01*
X124569455Y-69860685D01*
X124590097Y-69877319D01*
X133650598Y-78937819D01*
X133684083Y-78999142D01*
X133679099Y-79068834D01*
X133637227Y-79124767D01*
X133571763Y-79149184D01*
X133562917Y-79149500D01*
X133453713Y-79149500D01*
X133405042Y-79157208D01*
X133243760Y-79182753D01*
X133041585Y-79248444D01*
X132852179Y-79344951D01*
X132680213Y-79469890D01*
X132529890Y-79620213D01*
X132404949Y-79792182D01*
X132400484Y-79800946D01*
X132352509Y-79851742D01*
X132284688Y-79868536D01*
X132218553Y-79845998D01*
X132179516Y-79800946D01*
X132175050Y-79792182D01*
X132050109Y-79620213D01*
X131899786Y-79469890D01*
X131727820Y-79344951D01*
X131538414Y-79248444D01*
X131538413Y-79248443D01*
X131538412Y-79248443D01*
X131336243Y-79182754D01*
X131336241Y-79182753D01*
X131336240Y-79182753D01*
X131174957Y-79157208D01*
X131126287Y-79149500D01*
X130913713Y-79149500D01*
X130865042Y-79157208D01*
X130703760Y-79182753D01*
X130501585Y-79248444D01*
X130312179Y-79344951D01*
X130140213Y-79469890D01*
X129989890Y-79620213D01*
X129864949Y-79792182D01*
X129860484Y-79800946D01*
X129812509Y-79851742D01*
X129744688Y-79868536D01*
X129678553Y-79845998D01*
X129639516Y-79800946D01*
X129635050Y-79792182D01*
X129510109Y-79620213D01*
X129359786Y-79469890D01*
X129187820Y-79344951D01*
X128998414Y-79248444D01*
X128998413Y-79248443D01*
X128998412Y-79248443D01*
X128796243Y-79182754D01*
X128796241Y-79182753D01*
X128796240Y-79182753D01*
X128634957Y-79157208D01*
X128586287Y-79149500D01*
X128373713Y-79149500D01*
X128325042Y-79157208D01*
X128163760Y-79182753D01*
X127961585Y-79248444D01*
X127772179Y-79344951D01*
X127600213Y-79469890D01*
X127449890Y-79620213D01*
X127324949Y-79792182D01*
X127320484Y-79800946D01*
X127272509Y-79851742D01*
X127204688Y-79868536D01*
X127138553Y-79845998D01*
X127099516Y-79800946D01*
X127095050Y-79792182D01*
X126970109Y-79620213D01*
X126819786Y-79469890D01*
X126647820Y-79344951D01*
X126458414Y-79248444D01*
X126458413Y-79248443D01*
X126458412Y-79248443D01*
X126256243Y-79182754D01*
X126256241Y-79182753D01*
X126256240Y-79182753D01*
X126094957Y-79157208D01*
X126046287Y-79149500D01*
X125833713Y-79149500D01*
X125785042Y-79157208D01*
X125623760Y-79182753D01*
X125421585Y-79248444D01*
X125232179Y-79344951D01*
X125060213Y-79469890D01*
X124909890Y-79620213D01*
X124784949Y-79792182D01*
X124780484Y-79800946D01*
X124732509Y-79851742D01*
X124664688Y-79868536D01*
X124598553Y-79845998D01*
X124559516Y-79800946D01*
X124555050Y-79792182D01*
X124430109Y-79620213D01*
X124279786Y-79469890D01*
X124107820Y-79344951D01*
X123918414Y-79248444D01*
X123918413Y-79248443D01*
X123918412Y-79248443D01*
X123716243Y-79182754D01*
X123716241Y-79182753D01*
X123716240Y-79182753D01*
X123554957Y-79157208D01*
X123506287Y-79149500D01*
X123293713Y-79149500D01*
X123245042Y-79157208D01*
X123083760Y-79182753D01*
X122881585Y-79248444D01*
X122692179Y-79344951D01*
X122520213Y-79469890D01*
X122369890Y-79620213D01*
X122244949Y-79792182D01*
X122240484Y-79800946D01*
X122192509Y-79851742D01*
X122124688Y-79868536D01*
X122058553Y-79845998D01*
X122019516Y-79800946D01*
X122015050Y-79792182D01*
X121890109Y-79620213D01*
X121739786Y-79469890D01*
X121567820Y-79344951D01*
X121378414Y-79248444D01*
X121378413Y-79248443D01*
X121378412Y-79248443D01*
X121176243Y-79182754D01*
X121176241Y-79182753D01*
X121176240Y-79182753D01*
X121014957Y-79157208D01*
X120966287Y-79149500D01*
X120753713Y-79149500D01*
X120705042Y-79157208D01*
X120543760Y-79182753D01*
X120341585Y-79248444D01*
X120152179Y-79344951D01*
X119980213Y-79469890D01*
X119829890Y-79620213D01*
X119704949Y-79792182D01*
X119700484Y-79800946D01*
X119652509Y-79851742D01*
X119584688Y-79868536D01*
X119518553Y-79845998D01*
X119479516Y-79800946D01*
X119475050Y-79792182D01*
X119350109Y-79620213D01*
X119199786Y-79469890D01*
X119027820Y-79344951D01*
X118838414Y-79248444D01*
X118838413Y-79248443D01*
X118838412Y-79248443D01*
X118636243Y-79182754D01*
X118636241Y-79182753D01*
X118636240Y-79182753D01*
X118474957Y-79157208D01*
X118426287Y-79149500D01*
X118213713Y-79149500D01*
X118165042Y-79157208D01*
X118003760Y-79182753D01*
X117801585Y-79248444D01*
X117612179Y-79344951D01*
X117440213Y-79469890D01*
X117289890Y-79620213D01*
X117164951Y-79792179D01*
X117068444Y-79981585D01*
X117002753Y-80183760D01*
X116969500Y-80393713D01*
X116969500Y-80606286D01*
X117000553Y-80802351D01*
X117002754Y-80816243D01*
X117063364Y-81002781D01*
X117068444Y-81018414D01*
X117164951Y-81207820D01*
X117289890Y-81379786D01*
X117440213Y-81530109D01*
X117612179Y-81655048D01*
X117612181Y-81655049D01*
X117612184Y-81655051D01*
X117801588Y-81751557D01*
X118003757Y-81817246D01*
X118213713Y-81850500D01*
X118213714Y-81850500D01*
X118426286Y-81850500D01*
X118426287Y-81850500D01*
X118636243Y-81817246D01*
X118838412Y-81751557D01*
X119027816Y-81655051D01*
X119082572Y-81615269D01*
X119199786Y-81530109D01*
X119199788Y-81530106D01*
X119199792Y-81530104D01*
X119350104Y-81379792D01*
X119350106Y-81379788D01*
X119350109Y-81379786D01*
X119475048Y-81207820D01*
X119475047Y-81207820D01*
X119475051Y-81207816D01*
X119479514Y-81199054D01*
X119527488Y-81148259D01*
X119595308Y-81131463D01*
X119661444Y-81153999D01*
X119700486Y-81199056D01*
X119704951Y-81207820D01*
X119829890Y-81379786D01*
X119980213Y-81530109D01*
X120152179Y-81655048D01*
X120152181Y-81655049D01*
X120152184Y-81655051D01*
X120341588Y-81751557D01*
X120543757Y-81817246D01*
X120753713Y-81850500D01*
X120753714Y-81850500D01*
X120966286Y-81850500D01*
X120966287Y-81850500D01*
X121176243Y-81817246D01*
X121378412Y-81751557D01*
X121567816Y-81655051D01*
X121622572Y-81615269D01*
X121739786Y-81530109D01*
X121739788Y-81530106D01*
X121739792Y-81530104D01*
X121890104Y-81379792D01*
X121890106Y-81379788D01*
X121890109Y-81379786D01*
X122015048Y-81207820D01*
X122015047Y-81207820D01*
X122015051Y-81207816D01*
X122019514Y-81199054D01*
X122067488Y-81148259D01*
X122135308Y-81131463D01*
X122201444Y-81153999D01*
X122240486Y-81199056D01*
X122244951Y-81207820D01*
X122369890Y-81379786D01*
X122520213Y-81530109D01*
X122692179Y-81655048D01*
X122692181Y-81655049D01*
X122692184Y-81655051D01*
X122881588Y-81751557D01*
X123083757Y-81817246D01*
X123293713Y-81850500D01*
X123293714Y-81850500D01*
X123506286Y-81850500D01*
X123506287Y-81850500D01*
X123716243Y-81817246D01*
X123918412Y-81751557D01*
X124107816Y-81655051D01*
X124162572Y-81615269D01*
X124279786Y-81530109D01*
X124279788Y-81530106D01*
X124279792Y-81530104D01*
X124430104Y-81379792D01*
X124430106Y-81379788D01*
X124430109Y-81379786D01*
X124555048Y-81207820D01*
X124555047Y-81207820D01*
X124555051Y-81207816D01*
X124559514Y-81199054D01*
X124607488Y-81148259D01*
X124675308Y-81131463D01*
X124741444Y-81153999D01*
X124780486Y-81199056D01*
X124784951Y-81207820D01*
X124909890Y-81379786D01*
X125060213Y-81530109D01*
X125232179Y-81655048D01*
X125232181Y-81655049D01*
X125232184Y-81655051D01*
X125421588Y-81751557D01*
X125623757Y-81817246D01*
X125833713Y-81850500D01*
X125833714Y-81850500D01*
X126046286Y-81850500D01*
X126046287Y-81850500D01*
X126256243Y-81817246D01*
X126458412Y-81751557D01*
X126647816Y-81655051D01*
X126702572Y-81615269D01*
X126819786Y-81530109D01*
X126819788Y-81530106D01*
X126819792Y-81530104D01*
X126970104Y-81379792D01*
X126970106Y-81379788D01*
X126970109Y-81379786D01*
X127095048Y-81207820D01*
X127095047Y-81207820D01*
X127095051Y-81207816D01*
X127099514Y-81199054D01*
X127147488Y-81148259D01*
X127215308Y-81131463D01*
X127281444Y-81153999D01*
X127320486Y-81199056D01*
X127324951Y-81207820D01*
X127449890Y-81379786D01*
X127600213Y-81530109D01*
X127772179Y-81655048D01*
X127772181Y-81655049D01*
X127772184Y-81655051D01*
X127961588Y-81751557D01*
X128163757Y-81817246D01*
X128373713Y-81850500D01*
X128373714Y-81850500D01*
X128586286Y-81850500D01*
X128586287Y-81850500D01*
X128796243Y-81817246D01*
X128998412Y-81751557D01*
X129187816Y-81655051D01*
X129242572Y-81615269D01*
X129359786Y-81530109D01*
X129359788Y-81530106D01*
X129359792Y-81530104D01*
X129510104Y-81379792D01*
X129510106Y-81379788D01*
X129510109Y-81379786D01*
X129635048Y-81207820D01*
X129635047Y-81207820D01*
X129635051Y-81207816D01*
X129639514Y-81199054D01*
X129687488Y-81148259D01*
X129755308Y-81131463D01*
X129821444Y-81153999D01*
X129860486Y-81199056D01*
X129864951Y-81207820D01*
X129989890Y-81379786D01*
X130140213Y-81530109D01*
X130312179Y-81655048D01*
X130312181Y-81655049D01*
X130312184Y-81655051D01*
X130501588Y-81751557D01*
X130703757Y-81817246D01*
X130913713Y-81850500D01*
X130913714Y-81850500D01*
X131126286Y-81850500D01*
X131126287Y-81850500D01*
X131336243Y-81817246D01*
X131538412Y-81751557D01*
X131727816Y-81655051D01*
X131782572Y-81615269D01*
X131899786Y-81530109D01*
X131899788Y-81530106D01*
X131899792Y-81530104D01*
X132050104Y-81379792D01*
X132050106Y-81379788D01*
X132050109Y-81379786D01*
X132175048Y-81207820D01*
X132175047Y-81207820D01*
X132175051Y-81207816D01*
X132179514Y-81199054D01*
X132227488Y-81148259D01*
X132295308Y-81131463D01*
X132361444Y-81153999D01*
X132400486Y-81199056D01*
X132404951Y-81207820D01*
X132529890Y-81379786D01*
X132680213Y-81530109D01*
X132852179Y-81655048D01*
X132852181Y-81655049D01*
X132852184Y-81655051D01*
X133041588Y-81751557D01*
X133243757Y-81817246D01*
X133453713Y-81850500D01*
X133453714Y-81850500D01*
X133666286Y-81850500D01*
X133666287Y-81850500D01*
X133876243Y-81817246D01*
X134078412Y-81751557D01*
X134267816Y-81655051D01*
X134322572Y-81615269D01*
X134439786Y-81530109D01*
X134439788Y-81530106D01*
X134439792Y-81530104D01*
X134590104Y-81379792D01*
X134590106Y-81379788D01*
X134590109Y-81379786D01*
X134715048Y-81207820D01*
X134715047Y-81207820D01*
X134715051Y-81207816D01*
X134719514Y-81199054D01*
X134767488Y-81148259D01*
X134835308Y-81131463D01*
X134901444Y-81153999D01*
X134940486Y-81199056D01*
X134944951Y-81207820D01*
X135069890Y-81379786D01*
X135220213Y-81530109D01*
X135392179Y-81655048D01*
X135392181Y-81655049D01*
X135392184Y-81655051D01*
X135581588Y-81751557D01*
X135783757Y-81817246D01*
X135993713Y-81850500D01*
X135993714Y-81850500D01*
X136206286Y-81850500D01*
X136206287Y-81850500D01*
X136416243Y-81817246D01*
X136618412Y-81751557D01*
X136807816Y-81655051D01*
X136862572Y-81615269D01*
X136979786Y-81530109D01*
X136979788Y-81530106D01*
X136979792Y-81530104D01*
X137130104Y-81379792D01*
X137130106Y-81379788D01*
X137130109Y-81379786D01*
X137255048Y-81207820D01*
X137255047Y-81207820D01*
X137255051Y-81207816D01*
X137259514Y-81199054D01*
X137307488Y-81148259D01*
X137375308Y-81131463D01*
X137441444Y-81153999D01*
X137480486Y-81199056D01*
X137484951Y-81207820D01*
X137609890Y-81379786D01*
X137760213Y-81530109D01*
X137932179Y-81655048D01*
X137932181Y-81655049D01*
X137932184Y-81655051D01*
X138121588Y-81751557D01*
X138323757Y-81817246D01*
X138533713Y-81850500D01*
X138533714Y-81850500D01*
X138746286Y-81850500D01*
X138746287Y-81850500D01*
X138956243Y-81817246D01*
X139158412Y-81751557D01*
X139347816Y-81655051D01*
X139402572Y-81615269D01*
X139519786Y-81530109D01*
X139519788Y-81530106D01*
X139519792Y-81530104D01*
X139670104Y-81379792D01*
X139670106Y-81379788D01*
X139670109Y-81379786D01*
X139795048Y-81207820D01*
X139795047Y-81207820D01*
X139795051Y-81207816D01*
X139799514Y-81199054D01*
X139847488Y-81148259D01*
X139915308Y-81131463D01*
X139981444Y-81153999D01*
X140020486Y-81199056D01*
X140024951Y-81207820D01*
X140149890Y-81379786D01*
X140300213Y-81530109D01*
X140472179Y-81655048D01*
X140472181Y-81655049D01*
X140472184Y-81655051D01*
X140661588Y-81751557D01*
X140863757Y-81817246D01*
X141073713Y-81850500D01*
X141073714Y-81850500D01*
X141286286Y-81850500D01*
X141286287Y-81850500D01*
X141496243Y-81817246D01*
X141698412Y-81751557D01*
X141887816Y-81655051D01*
X141942572Y-81615269D01*
X142059786Y-81530109D01*
X142059788Y-81530106D01*
X142059792Y-81530104D01*
X142210104Y-81379792D01*
X142210106Y-81379788D01*
X142210109Y-81379786D01*
X142335048Y-81207820D01*
X142335047Y-81207820D01*
X142335051Y-81207816D01*
X142339514Y-81199054D01*
X142387488Y-81148259D01*
X142455308Y-81131463D01*
X142521444Y-81153999D01*
X142560486Y-81199056D01*
X142564951Y-81207820D01*
X142689890Y-81379786D01*
X142840213Y-81530109D01*
X143012179Y-81655048D01*
X143012181Y-81655049D01*
X143012184Y-81655051D01*
X143201588Y-81751557D01*
X143403757Y-81817246D01*
X143613713Y-81850500D01*
X143613714Y-81850500D01*
X143826286Y-81850500D01*
X143826287Y-81850500D01*
X144036243Y-81817246D01*
X144238412Y-81751557D01*
X144427816Y-81655051D01*
X144482572Y-81615269D01*
X144599786Y-81530109D01*
X144599788Y-81530106D01*
X144599792Y-81530104D01*
X144750104Y-81379792D01*
X144750106Y-81379788D01*
X144750109Y-81379786D01*
X144875048Y-81207820D01*
X144875047Y-81207820D01*
X144875051Y-81207816D01*
X144879514Y-81199054D01*
X144927488Y-81148259D01*
X144995308Y-81131463D01*
X145061444Y-81153999D01*
X145100486Y-81199056D01*
X145104951Y-81207820D01*
X145229890Y-81379786D01*
X145380213Y-81530109D01*
X145552179Y-81655048D01*
X145552181Y-81655049D01*
X145552184Y-81655051D01*
X145741588Y-81751557D01*
X145943757Y-81817246D01*
X146153713Y-81850500D01*
X146153714Y-81850500D01*
X146366286Y-81850500D01*
X146366287Y-81850500D01*
X146576243Y-81817246D01*
X146778412Y-81751557D01*
X146967816Y-81655051D01*
X147022572Y-81615269D01*
X147139786Y-81530109D01*
X147139788Y-81530106D01*
X147139792Y-81530104D01*
X147290104Y-81379792D01*
X147290106Y-81379788D01*
X147290109Y-81379786D01*
X147415048Y-81207820D01*
X147415047Y-81207820D01*
X147415051Y-81207816D01*
X147419514Y-81199054D01*
X147467488Y-81148259D01*
X147535308Y-81131463D01*
X147601444Y-81153999D01*
X147640486Y-81199056D01*
X147644951Y-81207820D01*
X147769890Y-81379786D01*
X147920213Y-81530109D01*
X148092179Y-81655048D01*
X148092181Y-81655049D01*
X148092184Y-81655051D01*
X148281588Y-81751557D01*
X148483757Y-81817246D01*
X148693713Y-81850500D01*
X148693714Y-81850500D01*
X148906286Y-81850500D01*
X148906287Y-81850500D01*
X149116243Y-81817246D01*
X149318412Y-81751557D01*
X149507816Y-81655051D01*
X149562572Y-81615269D01*
X149679786Y-81530109D01*
X149679788Y-81530106D01*
X149679792Y-81530104D01*
X149830104Y-81379792D01*
X149830106Y-81379788D01*
X149830109Y-81379786D01*
X149955048Y-81207820D01*
X149955047Y-81207820D01*
X149955051Y-81207816D01*
X149959514Y-81199054D01*
X150007488Y-81148259D01*
X150075308Y-81131463D01*
X150141444Y-81153999D01*
X150180486Y-81199056D01*
X150184951Y-81207820D01*
X150309890Y-81379786D01*
X150460213Y-81530109D01*
X150632179Y-81655048D01*
X150632181Y-81655049D01*
X150632184Y-81655051D01*
X150821588Y-81751557D01*
X151023757Y-81817246D01*
X151233713Y-81850500D01*
X151233714Y-81850500D01*
X151446286Y-81850500D01*
X151446287Y-81850500D01*
X151656243Y-81817246D01*
X151858412Y-81751557D01*
X152047816Y-81655051D01*
X152102572Y-81615269D01*
X152219786Y-81530109D01*
X152219788Y-81530106D01*
X152219792Y-81530104D01*
X152370104Y-81379792D01*
X152370106Y-81379788D01*
X152370109Y-81379786D01*
X152455890Y-81261717D01*
X152495051Y-81207816D01*
X152499793Y-81198508D01*
X152547763Y-81147711D01*
X152615583Y-81130911D01*
X152681719Y-81153445D01*
X152720763Y-81198500D01*
X152725373Y-81207547D01*
X152764728Y-81261716D01*
X153480000Y-80546444D01*
X153480000Y-80552661D01*
X153507259Y-80654394D01*
X153559920Y-80745606D01*
X153634394Y-80820080D01*
X153725606Y-80872741D01*
X153827339Y-80900000D01*
X153833554Y-80900000D01*
X153118282Y-81615269D01*
X153118282Y-81615270D01*
X153172449Y-81654624D01*
X153361782Y-81751095D01*
X153563870Y-81816757D01*
X153773754Y-81850000D01*
X153986246Y-81850000D01*
X154196127Y-81816757D01*
X154196130Y-81816757D01*
X154398217Y-81751095D01*
X154587554Y-81654622D01*
X154641716Y-81615270D01*
X154641717Y-81615270D01*
X153926446Y-80900000D01*
X153932661Y-80900000D01*
X154034394Y-80872741D01*
X154125606Y-80820080D01*
X154200080Y-80745606D01*
X154252741Y-80654394D01*
X154280000Y-80552661D01*
X154280000Y-80546446D01*
X154995270Y-81261717D01*
X154995270Y-81261716D01*
X155034622Y-81207555D01*
X155039232Y-81198507D01*
X155087205Y-81147709D01*
X155155025Y-81130912D01*
X155221161Y-81153447D01*
X155260204Y-81198504D01*
X155264949Y-81207817D01*
X155389890Y-81379786D01*
X155540213Y-81530109D01*
X155712179Y-81655048D01*
X155712181Y-81655049D01*
X155712184Y-81655051D01*
X155901588Y-81751557D01*
X156103757Y-81817246D01*
X156313713Y-81850500D01*
X156313714Y-81850500D01*
X156526286Y-81850500D01*
X156526287Y-81850500D01*
X156736243Y-81817246D01*
X156938412Y-81751557D01*
X157127816Y-81655051D01*
X157182572Y-81615269D01*
X157299786Y-81530109D01*
X157299788Y-81530106D01*
X157299792Y-81530104D01*
X157450104Y-81379792D01*
X157450106Y-81379788D01*
X157450109Y-81379786D01*
X157575048Y-81207820D01*
X157575047Y-81207820D01*
X157575051Y-81207816D01*
X157579514Y-81199054D01*
X157627488Y-81148259D01*
X157695308Y-81131463D01*
X157761444Y-81153999D01*
X157800486Y-81199056D01*
X157804951Y-81207820D01*
X157929890Y-81379786D01*
X158080213Y-81530109D01*
X158252179Y-81655048D01*
X158252181Y-81655049D01*
X158252184Y-81655051D01*
X158441588Y-81751557D01*
X158643757Y-81817246D01*
X158853713Y-81850500D01*
X158853714Y-81850500D01*
X159066286Y-81850500D01*
X159066287Y-81850500D01*
X159276243Y-81817246D01*
X159478412Y-81751557D01*
X159667816Y-81655051D01*
X159722572Y-81615269D01*
X159839786Y-81530109D01*
X159839788Y-81530106D01*
X159839792Y-81530104D01*
X159990104Y-81379792D01*
X159990106Y-81379788D01*
X159990109Y-81379786D01*
X160115048Y-81207820D01*
X160115047Y-81207820D01*
X160115051Y-81207816D01*
X160119514Y-81199054D01*
X160167488Y-81148259D01*
X160235308Y-81131463D01*
X160301444Y-81153999D01*
X160340486Y-81199056D01*
X160344951Y-81207820D01*
X160469890Y-81379786D01*
X160620213Y-81530109D01*
X160792179Y-81655048D01*
X160792181Y-81655049D01*
X160792184Y-81655051D01*
X160981588Y-81751557D01*
X161183757Y-81817246D01*
X161393713Y-81850500D01*
X161393714Y-81850500D01*
X161606286Y-81850500D01*
X161606287Y-81850500D01*
X161816243Y-81817246D01*
X162018412Y-81751557D01*
X162207816Y-81655051D01*
X162262572Y-81615269D01*
X162379786Y-81530109D01*
X162379788Y-81530106D01*
X162379792Y-81530104D01*
X162530104Y-81379792D01*
X162530106Y-81379788D01*
X162530109Y-81379786D01*
X162655048Y-81207820D01*
X162655047Y-81207820D01*
X162655051Y-81207816D01*
X162659514Y-81199054D01*
X162707488Y-81148259D01*
X162775308Y-81131463D01*
X162841444Y-81153999D01*
X162880486Y-81199056D01*
X162884951Y-81207820D01*
X163009890Y-81379786D01*
X163160213Y-81530109D01*
X163332179Y-81655048D01*
X163332181Y-81655049D01*
X163332184Y-81655051D01*
X163521588Y-81751557D01*
X163723757Y-81817246D01*
X163933713Y-81850500D01*
X163933714Y-81850500D01*
X164146286Y-81850500D01*
X164146287Y-81850500D01*
X164356243Y-81817246D01*
X164558412Y-81751557D01*
X164747816Y-81655051D01*
X164802572Y-81615269D01*
X164919786Y-81530109D01*
X164919788Y-81530106D01*
X164919792Y-81530104D01*
X165070104Y-81379792D01*
X165070106Y-81379788D01*
X165070109Y-81379786D01*
X165195048Y-81207820D01*
X165195047Y-81207820D01*
X165195051Y-81207816D01*
X165199514Y-81199054D01*
X165247488Y-81148259D01*
X165315308Y-81131463D01*
X165381444Y-81153999D01*
X165420486Y-81199056D01*
X165424951Y-81207820D01*
X165549890Y-81379786D01*
X165700213Y-81530109D01*
X165872179Y-81655048D01*
X165872181Y-81655049D01*
X165872184Y-81655051D01*
X166061588Y-81751557D01*
X166263757Y-81817246D01*
X166473713Y-81850500D01*
X166473714Y-81850500D01*
X166686286Y-81850500D01*
X166686287Y-81850500D01*
X166896243Y-81817246D01*
X167098412Y-81751557D01*
X167287816Y-81655051D01*
X167342572Y-81615269D01*
X167459786Y-81530109D01*
X167459788Y-81530106D01*
X167459792Y-81530104D01*
X167610104Y-81379792D01*
X167610106Y-81379788D01*
X167610109Y-81379786D01*
X167735048Y-81207820D01*
X167735047Y-81207820D01*
X167735051Y-81207816D01*
X167739514Y-81199054D01*
X167787488Y-81148259D01*
X167855308Y-81131463D01*
X167921444Y-81153999D01*
X167960486Y-81199056D01*
X167964951Y-81207820D01*
X168089890Y-81379786D01*
X168240213Y-81530109D01*
X168412179Y-81655048D01*
X168412181Y-81655049D01*
X168412184Y-81655051D01*
X168601588Y-81751557D01*
X168803757Y-81817246D01*
X169013713Y-81850500D01*
X169013714Y-81850500D01*
X169226286Y-81850500D01*
X169226287Y-81850500D01*
X169436243Y-81817246D01*
X169638412Y-81751557D01*
X169827816Y-81655051D01*
X169882572Y-81615269D01*
X169999786Y-81530109D01*
X169999788Y-81530106D01*
X169999792Y-81530104D01*
X170150104Y-81379792D01*
X170150106Y-81379788D01*
X170150109Y-81379786D01*
X170275048Y-81207820D01*
X170275047Y-81207820D01*
X170275051Y-81207816D01*
X170279514Y-81199054D01*
X170327488Y-81148259D01*
X170395308Y-81131463D01*
X170461444Y-81153999D01*
X170500486Y-81199056D01*
X170504951Y-81207820D01*
X170629890Y-81379786D01*
X170780213Y-81530109D01*
X170952179Y-81655048D01*
X170952181Y-81655049D01*
X170952184Y-81655051D01*
X171141588Y-81751557D01*
X171343757Y-81817246D01*
X171553713Y-81850500D01*
X171553714Y-81850500D01*
X171766286Y-81850500D01*
X171766287Y-81850500D01*
X171976243Y-81817246D01*
X172178412Y-81751557D01*
X172367816Y-81655051D01*
X172422572Y-81615269D01*
X172539786Y-81530109D01*
X172539788Y-81530106D01*
X172539792Y-81530104D01*
X172690104Y-81379792D01*
X172690106Y-81379788D01*
X172690109Y-81379786D01*
X172815048Y-81207820D01*
X172815047Y-81207820D01*
X172815051Y-81207816D01*
X172819514Y-81199054D01*
X172867488Y-81148259D01*
X172935308Y-81131463D01*
X173001444Y-81153999D01*
X173040486Y-81199056D01*
X173044951Y-81207820D01*
X173169890Y-81379786D01*
X173320213Y-81530109D01*
X173492179Y-81655048D01*
X173492181Y-81655049D01*
X173492184Y-81655051D01*
X173681588Y-81751557D01*
X173883757Y-81817246D01*
X174093713Y-81850500D01*
X174093714Y-81850500D01*
X174306286Y-81850500D01*
X174306287Y-81850500D01*
X174516243Y-81817246D01*
X174718412Y-81751557D01*
X174907816Y-81655051D01*
X174962572Y-81615269D01*
X175079786Y-81530109D01*
X175079788Y-81530106D01*
X175079792Y-81530104D01*
X175230104Y-81379792D01*
X175230106Y-81379788D01*
X175230109Y-81379786D01*
X175315890Y-81261717D01*
X175355051Y-81207816D01*
X175359793Y-81198508D01*
X175407763Y-81147711D01*
X175475583Y-81130911D01*
X175541719Y-81153445D01*
X175580763Y-81198500D01*
X175585373Y-81207547D01*
X175624728Y-81261716D01*
X176340000Y-80546445D01*
X176340000Y-80552661D01*
X176367259Y-80654394D01*
X176419920Y-80745606D01*
X176494394Y-80820080D01*
X176585606Y-80872741D01*
X176687339Y-80900000D01*
X176693554Y-80900000D01*
X175978282Y-81615269D01*
X175978282Y-81615270D01*
X176032449Y-81654624D01*
X176221782Y-81751095D01*
X176423870Y-81816757D01*
X176633754Y-81850000D01*
X176846246Y-81850000D01*
X177056127Y-81816757D01*
X177056130Y-81816757D01*
X177258217Y-81751095D01*
X177447554Y-81654622D01*
X177501716Y-81615270D01*
X177501717Y-81615270D01*
X176786446Y-80900000D01*
X176792661Y-80900000D01*
X176894394Y-80872741D01*
X176985606Y-80820080D01*
X177060080Y-80745606D01*
X177112741Y-80654394D01*
X177140000Y-80552661D01*
X177140000Y-80546446D01*
X177855270Y-81261717D01*
X177855270Y-81261716D01*
X177894622Y-81207555D01*
X177899232Y-81198507D01*
X177947205Y-81147709D01*
X178015025Y-81130912D01*
X178081161Y-81153447D01*
X178120204Y-81198504D01*
X178124949Y-81207817D01*
X178249890Y-81379786D01*
X178400213Y-81530109D01*
X178572179Y-81655048D01*
X178572181Y-81655049D01*
X178572184Y-81655051D01*
X178761588Y-81751557D01*
X178963757Y-81817246D01*
X179173713Y-81850500D01*
X179173714Y-81850500D01*
X179386286Y-81850500D01*
X179386287Y-81850500D01*
X179596243Y-81817246D01*
X179798412Y-81751557D01*
X179987816Y-81655051D01*
X180042572Y-81615269D01*
X180159786Y-81530109D01*
X180159788Y-81530106D01*
X180159792Y-81530104D01*
X180310104Y-81379792D01*
X180310106Y-81379788D01*
X180310109Y-81379786D01*
X180435048Y-81207820D01*
X180435047Y-81207820D01*
X180435051Y-81207816D01*
X180439514Y-81199054D01*
X180487488Y-81148259D01*
X180555308Y-81131463D01*
X180621444Y-81153999D01*
X180660486Y-81199056D01*
X180664951Y-81207820D01*
X180789890Y-81379786D01*
X180940213Y-81530109D01*
X181112179Y-81655048D01*
X181112181Y-81655049D01*
X181112184Y-81655051D01*
X181301588Y-81751557D01*
X181503757Y-81817246D01*
X181713713Y-81850500D01*
X181713714Y-81850500D01*
X181926286Y-81850500D01*
X181926287Y-81850500D01*
X182136243Y-81817246D01*
X182338412Y-81751557D01*
X182527816Y-81655051D01*
X182582572Y-81615269D01*
X182699786Y-81530109D01*
X182699788Y-81530106D01*
X182699792Y-81530104D01*
X182850104Y-81379792D01*
X182850106Y-81379788D01*
X182850109Y-81379786D01*
X182975048Y-81207820D01*
X182975047Y-81207820D01*
X182975051Y-81207816D01*
X182979514Y-81199054D01*
X183027488Y-81148259D01*
X183095308Y-81131463D01*
X183161444Y-81153999D01*
X183200486Y-81199056D01*
X183204951Y-81207820D01*
X183329890Y-81379786D01*
X183480213Y-81530109D01*
X183652179Y-81655048D01*
X183652181Y-81655049D01*
X183652184Y-81655051D01*
X183841588Y-81751557D01*
X184043757Y-81817246D01*
X184253713Y-81850500D01*
X184253714Y-81850500D01*
X184466286Y-81850500D01*
X184466287Y-81850500D01*
X184676243Y-81817246D01*
X184878412Y-81751557D01*
X185067816Y-81655051D01*
X185122572Y-81615269D01*
X185239786Y-81530109D01*
X185239788Y-81530106D01*
X185239792Y-81530104D01*
X185390104Y-81379792D01*
X185390106Y-81379788D01*
X185390109Y-81379786D01*
X185515048Y-81207820D01*
X185515047Y-81207820D01*
X185515051Y-81207816D01*
X185519514Y-81199054D01*
X185567488Y-81148259D01*
X185635308Y-81131463D01*
X185701444Y-81153999D01*
X185740486Y-81199056D01*
X185744951Y-81207820D01*
X185869890Y-81379786D01*
X186020213Y-81530109D01*
X186192179Y-81655048D01*
X186192181Y-81655049D01*
X186192184Y-81655051D01*
X186381588Y-81751557D01*
X186583757Y-81817246D01*
X186793713Y-81850500D01*
X186793714Y-81850500D01*
X187006286Y-81850500D01*
X187006287Y-81850500D01*
X187216243Y-81817246D01*
X187418412Y-81751557D01*
X187607816Y-81655051D01*
X187662572Y-81615269D01*
X187779786Y-81530109D01*
X187779788Y-81530106D01*
X187779792Y-81530104D01*
X187930104Y-81379792D01*
X187930106Y-81379788D01*
X187930109Y-81379786D01*
X188055048Y-81207820D01*
X188055047Y-81207820D01*
X188055051Y-81207816D01*
X188151557Y-81018412D01*
X188217246Y-80816243D01*
X188250500Y-80606287D01*
X188250500Y-80393713D01*
X188217246Y-80183757D01*
X188151557Y-79981588D01*
X188055051Y-79792184D01*
X188055049Y-79792181D01*
X188055048Y-79792179D01*
X187930109Y-79620213D01*
X187779786Y-79469890D01*
X187607820Y-79344951D01*
X187418414Y-79248444D01*
X187418413Y-79248443D01*
X187418412Y-79248443D01*
X187216243Y-79182754D01*
X187216241Y-79182753D01*
X187216240Y-79182753D01*
X187054957Y-79157208D01*
X187006287Y-79149500D01*
X186793713Y-79149500D01*
X186745042Y-79157208D01*
X186583760Y-79182753D01*
X186381585Y-79248444D01*
X186192179Y-79344951D01*
X186020213Y-79469890D01*
X185869890Y-79620213D01*
X185744949Y-79792182D01*
X185740484Y-79800946D01*
X185692509Y-79851742D01*
X185624688Y-79868536D01*
X185558553Y-79845998D01*
X185519516Y-79800946D01*
X185515050Y-79792182D01*
X185390109Y-79620213D01*
X185239786Y-79469890D01*
X185067820Y-79344951D01*
X184878414Y-79248444D01*
X184878413Y-79248443D01*
X184878412Y-79248443D01*
X184676243Y-79182754D01*
X184676241Y-79182753D01*
X184676240Y-79182753D01*
X184514957Y-79157208D01*
X184466287Y-79149500D01*
X184253713Y-79149500D01*
X184205042Y-79157208D01*
X184043760Y-79182753D01*
X183841585Y-79248444D01*
X183652179Y-79344951D01*
X183480213Y-79469890D01*
X183329890Y-79620213D01*
X183204949Y-79792182D01*
X183200484Y-79800946D01*
X183152509Y-79851742D01*
X183084688Y-79868536D01*
X183018553Y-79845998D01*
X182979516Y-79800946D01*
X182975050Y-79792182D01*
X182850109Y-79620213D01*
X182699786Y-79469890D01*
X182527820Y-79344951D01*
X182338414Y-79248444D01*
X182338413Y-79248443D01*
X182338412Y-79248443D01*
X182136243Y-79182754D01*
X182136241Y-79182753D01*
X182136240Y-79182753D01*
X181974957Y-79157208D01*
X181926287Y-79149500D01*
X181713713Y-79149500D01*
X181665042Y-79157208D01*
X181503760Y-79182753D01*
X181301585Y-79248444D01*
X181112179Y-79344951D01*
X180940213Y-79469890D01*
X180789890Y-79620213D01*
X180664949Y-79792182D01*
X180660484Y-79800946D01*
X180612509Y-79851742D01*
X180544688Y-79868536D01*
X180478553Y-79845998D01*
X180439516Y-79800946D01*
X180435050Y-79792182D01*
X180310109Y-79620213D01*
X180159786Y-79469890D01*
X179987820Y-79344951D01*
X179798414Y-79248444D01*
X179798413Y-79248443D01*
X179798412Y-79248443D01*
X179596243Y-79182754D01*
X179596241Y-79182753D01*
X179596240Y-79182753D01*
X179434957Y-79157208D01*
X179386287Y-79149500D01*
X179173713Y-79149500D01*
X179083323Y-79163816D01*
X179014030Y-79154861D01*
X178976245Y-79129024D01*
X168310492Y-68463269D01*
X168310485Y-68463263D01*
X168197312Y-68387644D01*
X168197309Y-68387642D01*
X168071561Y-68335556D01*
X168071551Y-68335553D01*
X167938060Y-68309000D01*
X167938058Y-68309000D01*
X133547023Y-68309000D01*
X133479984Y-68289315D01*
X133459342Y-68272681D01*
X131918432Y-66731769D01*
X131918428Y-66731766D01*
X131918427Y-66731765D01*
X131911695Y-66727267D01*
X131866893Y-66673656D01*
X131858186Y-66604331D01*
X131888341Y-66541304D01*
X131898519Y-66531376D01*
X131899788Y-66530106D01*
X131899792Y-66530104D01*
X132050104Y-66379792D01*
X132050106Y-66379788D01*
X132050109Y-66379786D01*
X132175048Y-66207820D01*
X132175049Y-66207819D01*
X132175051Y-66207816D01*
X132179514Y-66199054D01*
X132227488Y-66148259D01*
X132295308Y-66131463D01*
X132361444Y-66153999D01*
X132400486Y-66199056D01*
X132404951Y-66207820D01*
X132529890Y-66379786D01*
X132680213Y-66530109D01*
X132852179Y-66655048D01*
X132852181Y-66655049D01*
X132852184Y-66655051D01*
X133041588Y-66751557D01*
X133243757Y-66817246D01*
X133453713Y-66850500D01*
X133453714Y-66850500D01*
X133666286Y-66850500D01*
X133666287Y-66850500D01*
X133876243Y-66817246D01*
X134078412Y-66751557D01*
X134267816Y-66655051D01*
X134337627Y-66604331D01*
X134439786Y-66530109D01*
X134439788Y-66530106D01*
X134439792Y-66530104D01*
X134590104Y-66379792D01*
X134590106Y-66379788D01*
X134590109Y-66379786D01*
X134715048Y-66207820D01*
X134715049Y-66207819D01*
X134715051Y-66207816D01*
X134719514Y-66199054D01*
X134767488Y-66148259D01*
X134835308Y-66131463D01*
X134901444Y-66153999D01*
X134940486Y-66199056D01*
X134944951Y-66207820D01*
X135069890Y-66379786D01*
X135220213Y-66530109D01*
X135392179Y-66655048D01*
X135392181Y-66655049D01*
X135392184Y-66655051D01*
X135581588Y-66751557D01*
X135783757Y-66817246D01*
X135993713Y-66850500D01*
X135993714Y-66850500D01*
X136206286Y-66850500D01*
X136206287Y-66850500D01*
X136416243Y-66817246D01*
X136618412Y-66751557D01*
X136807816Y-66655051D01*
X136877627Y-66604331D01*
X136979786Y-66530109D01*
X136979788Y-66530106D01*
X136979792Y-66530104D01*
X137130104Y-66379792D01*
X137130106Y-66379788D01*
X137130109Y-66379786D01*
X137255048Y-66207820D01*
X137255049Y-66207819D01*
X137255051Y-66207816D01*
X137259514Y-66199054D01*
X137307488Y-66148259D01*
X137375308Y-66131463D01*
X137441444Y-66153999D01*
X137480486Y-66199056D01*
X137484951Y-66207820D01*
X137609890Y-66379786D01*
X137760213Y-66530109D01*
X137932179Y-66655048D01*
X137932181Y-66655049D01*
X137932184Y-66655051D01*
X138121588Y-66751557D01*
X138323757Y-66817246D01*
X138533713Y-66850500D01*
X138533714Y-66850500D01*
X138746286Y-66850500D01*
X138746287Y-66850500D01*
X138956243Y-66817246D01*
X139158412Y-66751557D01*
X139347816Y-66655051D01*
X139417627Y-66604331D01*
X139519786Y-66530109D01*
X139519788Y-66530106D01*
X139519792Y-66530104D01*
X139670104Y-66379792D01*
X139670106Y-66379788D01*
X139670109Y-66379786D01*
X139795048Y-66207820D01*
X139795049Y-66207819D01*
X139795051Y-66207816D01*
X139799514Y-66199054D01*
X139847488Y-66148259D01*
X139915308Y-66131463D01*
X139981444Y-66153999D01*
X140020486Y-66199056D01*
X140024951Y-66207820D01*
X140149890Y-66379786D01*
X140300213Y-66530109D01*
X140472179Y-66655048D01*
X140472181Y-66655049D01*
X140472184Y-66655051D01*
X140661588Y-66751557D01*
X140863757Y-66817246D01*
X141073713Y-66850500D01*
X141073714Y-66850500D01*
X141286286Y-66850500D01*
X141286287Y-66850500D01*
X141496243Y-66817246D01*
X141698412Y-66751557D01*
X141887816Y-66655051D01*
X141957627Y-66604331D01*
X142059786Y-66530109D01*
X142059788Y-66530106D01*
X142059792Y-66530104D01*
X142210104Y-66379792D01*
X142210106Y-66379788D01*
X142210109Y-66379786D01*
X142335048Y-66207820D01*
X142335049Y-66207819D01*
X142335051Y-66207816D01*
X142339514Y-66199054D01*
X142387488Y-66148259D01*
X142455308Y-66131463D01*
X142521444Y-66153999D01*
X142560486Y-66199056D01*
X142564951Y-66207820D01*
X142689890Y-66379786D01*
X142840213Y-66530109D01*
X143012179Y-66655048D01*
X143012181Y-66655049D01*
X143012184Y-66655051D01*
X143201588Y-66751557D01*
X143403757Y-66817246D01*
X143613713Y-66850500D01*
X143613714Y-66850500D01*
X143826286Y-66850500D01*
X143826287Y-66850500D01*
X144036243Y-66817246D01*
X144238412Y-66751557D01*
X144427816Y-66655051D01*
X144497627Y-66604331D01*
X144599786Y-66530109D01*
X144599788Y-66530106D01*
X144599792Y-66530104D01*
X144750104Y-66379792D01*
X144750106Y-66379788D01*
X144750109Y-66379786D01*
X144875048Y-66207820D01*
X144875049Y-66207819D01*
X144875051Y-66207816D01*
X144879514Y-66199054D01*
X144927488Y-66148259D01*
X144995308Y-66131463D01*
X145061444Y-66153999D01*
X145100486Y-66199056D01*
X145104951Y-66207820D01*
X145229890Y-66379786D01*
X145380213Y-66530109D01*
X145552179Y-66655048D01*
X145552181Y-66655049D01*
X145552184Y-66655051D01*
X145741588Y-66751557D01*
X145943757Y-66817246D01*
X146153713Y-66850500D01*
X146153714Y-66850500D01*
X146366286Y-66850500D01*
X146366287Y-66850500D01*
X146576243Y-66817246D01*
X146778412Y-66751557D01*
X146967816Y-66655051D01*
X147037627Y-66604331D01*
X147139786Y-66530109D01*
X147139788Y-66530106D01*
X147139792Y-66530104D01*
X147290104Y-66379792D01*
X147290106Y-66379788D01*
X147290109Y-66379786D01*
X147415048Y-66207820D01*
X147415049Y-66207819D01*
X147415051Y-66207816D01*
X147419514Y-66199054D01*
X147467488Y-66148259D01*
X147535308Y-66131463D01*
X147601444Y-66153999D01*
X147640486Y-66199056D01*
X147644951Y-66207820D01*
X147769890Y-66379786D01*
X147920213Y-66530109D01*
X148092179Y-66655048D01*
X148092181Y-66655049D01*
X148092184Y-66655051D01*
X148281588Y-66751557D01*
X148483757Y-66817246D01*
X148693713Y-66850500D01*
X148693714Y-66850500D01*
X148906286Y-66850500D01*
X148906287Y-66850500D01*
X149116243Y-66817246D01*
X149318412Y-66751557D01*
X149507816Y-66655051D01*
X149577627Y-66604331D01*
X149679786Y-66530109D01*
X149679788Y-66530106D01*
X149679792Y-66530104D01*
X149830104Y-66379792D01*
X149830106Y-66379788D01*
X149830109Y-66379786D01*
X149955048Y-66207820D01*
X149955049Y-66207819D01*
X149955051Y-66207816D01*
X149959514Y-66199054D01*
X150007488Y-66148259D01*
X150075308Y-66131463D01*
X150141444Y-66153999D01*
X150180486Y-66199056D01*
X150184951Y-66207820D01*
X150309890Y-66379786D01*
X150460213Y-66530109D01*
X150632179Y-66655048D01*
X150632181Y-66655049D01*
X150632184Y-66655051D01*
X150821588Y-66751557D01*
X151023757Y-66817246D01*
X151233713Y-66850500D01*
X151233714Y-66850500D01*
X151446286Y-66850500D01*
X151446287Y-66850500D01*
X151656243Y-66817246D01*
X151858412Y-66751557D01*
X152047816Y-66655051D01*
X152117627Y-66604331D01*
X152219786Y-66530109D01*
X152219788Y-66530106D01*
X152219792Y-66530104D01*
X152370104Y-66379792D01*
X152370106Y-66379788D01*
X152370109Y-66379786D01*
X152455890Y-66261717D01*
X152495051Y-66207816D01*
X152499793Y-66198508D01*
X152547763Y-66147711D01*
X152615583Y-66130911D01*
X152681719Y-66153445D01*
X152720763Y-66198500D01*
X152725373Y-66207547D01*
X152764728Y-66261716D01*
X153480000Y-65546445D01*
X153480000Y-65552661D01*
X153507259Y-65654394D01*
X153559920Y-65745606D01*
X153634394Y-65820080D01*
X153725606Y-65872741D01*
X153827339Y-65900000D01*
X153833554Y-65900000D01*
X153118282Y-66615269D01*
X153118282Y-66615270D01*
X153172449Y-66654624D01*
X153361782Y-66751095D01*
X153563870Y-66816757D01*
X153773754Y-66850000D01*
X153986246Y-66850000D01*
X154196127Y-66816757D01*
X154196130Y-66816757D01*
X154398217Y-66751095D01*
X154587554Y-66654622D01*
X154641716Y-66615270D01*
X154641717Y-66615270D01*
X153926446Y-65900000D01*
X153932661Y-65900000D01*
X154034394Y-65872741D01*
X154125606Y-65820080D01*
X154200080Y-65745606D01*
X154252741Y-65654394D01*
X154280000Y-65552661D01*
X154280000Y-65546446D01*
X154995270Y-66261717D01*
X154995270Y-66261716D01*
X155034622Y-66207555D01*
X155039232Y-66198507D01*
X155087205Y-66147709D01*
X155155025Y-66130912D01*
X155221161Y-66153447D01*
X155260204Y-66198504D01*
X155264949Y-66207817D01*
X155389890Y-66379786D01*
X155540213Y-66530109D01*
X155712179Y-66655048D01*
X155712181Y-66655049D01*
X155712184Y-66655051D01*
X155901588Y-66751557D01*
X156103757Y-66817246D01*
X156313713Y-66850500D01*
X156313714Y-66850500D01*
X156526286Y-66850500D01*
X156526287Y-66850500D01*
X156736243Y-66817246D01*
X156938412Y-66751557D01*
X157127816Y-66655051D01*
X157197627Y-66604331D01*
X157299786Y-66530109D01*
X157299788Y-66530106D01*
X157299792Y-66530104D01*
X157450104Y-66379792D01*
X157450106Y-66379788D01*
X157450109Y-66379786D01*
X157575048Y-66207820D01*
X157575049Y-66207819D01*
X157575051Y-66207816D01*
X157579514Y-66199054D01*
X157627488Y-66148259D01*
X157695308Y-66131463D01*
X157761444Y-66153999D01*
X157800486Y-66199056D01*
X157804951Y-66207820D01*
X157929890Y-66379786D01*
X158080213Y-66530109D01*
X158252179Y-66655048D01*
X158252181Y-66655049D01*
X158252184Y-66655051D01*
X158441588Y-66751557D01*
X158643757Y-66817246D01*
X158853713Y-66850500D01*
X158853714Y-66850500D01*
X159066286Y-66850500D01*
X159066287Y-66850500D01*
X159276243Y-66817246D01*
X159478412Y-66751557D01*
X159667816Y-66655051D01*
X159737627Y-66604331D01*
X159839786Y-66530109D01*
X159839788Y-66530106D01*
X159839792Y-66530104D01*
X159990104Y-66379792D01*
X159990106Y-66379788D01*
X159990109Y-66379786D01*
X160115048Y-66207820D01*
X160115049Y-66207819D01*
X160115051Y-66207816D01*
X160119514Y-66199054D01*
X160167488Y-66148259D01*
X160235308Y-66131463D01*
X160301444Y-66153999D01*
X160340486Y-66199056D01*
X160344951Y-66207820D01*
X160469890Y-66379786D01*
X160620213Y-66530109D01*
X160792179Y-66655048D01*
X160792181Y-66655049D01*
X160792184Y-66655051D01*
X160981588Y-66751557D01*
X161183757Y-66817246D01*
X161393713Y-66850500D01*
X161393714Y-66850500D01*
X161606286Y-66850500D01*
X161606287Y-66850500D01*
X161816243Y-66817246D01*
X162018412Y-66751557D01*
X162207816Y-66655051D01*
X162277627Y-66604331D01*
X162379786Y-66530109D01*
X162379788Y-66530106D01*
X162379792Y-66530104D01*
X162530104Y-66379792D01*
X162530106Y-66379788D01*
X162530109Y-66379786D01*
X162655048Y-66207820D01*
X162655049Y-66207819D01*
X162655051Y-66207816D01*
X162659514Y-66199054D01*
X162707488Y-66148259D01*
X162775308Y-66131463D01*
X162841444Y-66153999D01*
X162880486Y-66199056D01*
X162884951Y-66207820D01*
X163009890Y-66379786D01*
X163160213Y-66530109D01*
X163332179Y-66655048D01*
X163332181Y-66655049D01*
X163332184Y-66655051D01*
X163521588Y-66751557D01*
X163723757Y-66817246D01*
X163933713Y-66850500D01*
X163933714Y-66850500D01*
X164146286Y-66850500D01*
X164146287Y-66850500D01*
X164356243Y-66817246D01*
X164558412Y-66751557D01*
X164747816Y-66655051D01*
X164817627Y-66604331D01*
X164919786Y-66530109D01*
X164919788Y-66530106D01*
X164919792Y-66530104D01*
X165070104Y-66379792D01*
X165070106Y-66379788D01*
X165070109Y-66379786D01*
X165195048Y-66207820D01*
X165195049Y-66207819D01*
X165195051Y-66207816D01*
X165199514Y-66199054D01*
X165247488Y-66148259D01*
X165315308Y-66131463D01*
X165381444Y-66153999D01*
X165420486Y-66199056D01*
X165424951Y-66207820D01*
X165549890Y-66379786D01*
X165700213Y-66530109D01*
X165872179Y-66655048D01*
X165872181Y-66655049D01*
X165872184Y-66655051D01*
X166061588Y-66751557D01*
X166263757Y-66817246D01*
X166473713Y-66850500D01*
X166473714Y-66850500D01*
X166686286Y-66850500D01*
X166686287Y-66850500D01*
X166896243Y-66817246D01*
X167098412Y-66751557D01*
X167287816Y-66655051D01*
X167357627Y-66604331D01*
X167459786Y-66530109D01*
X167459788Y-66530106D01*
X167459792Y-66530104D01*
X167610104Y-66379792D01*
X167610106Y-66379788D01*
X167610109Y-66379786D01*
X167735048Y-66207820D01*
X167735049Y-66207819D01*
X167735051Y-66207816D01*
X167739514Y-66199054D01*
X167787488Y-66148259D01*
X167855308Y-66131463D01*
X167921444Y-66153999D01*
X167960486Y-66199056D01*
X167964951Y-66207820D01*
X168089890Y-66379786D01*
X168240213Y-66530109D01*
X168412179Y-66655048D01*
X168412181Y-66655049D01*
X168412184Y-66655051D01*
X168601588Y-66751557D01*
X168803757Y-66817246D01*
X169013713Y-66850500D01*
X169013714Y-66850500D01*
X169226286Y-66850500D01*
X169226287Y-66850500D01*
X169436243Y-66817246D01*
X169638412Y-66751557D01*
X169827816Y-66655051D01*
X169897627Y-66604331D01*
X169999786Y-66530109D01*
X169999788Y-66530106D01*
X169999792Y-66530104D01*
X170150104Y-66379792D01*
X170150106Y-66379788D01*
X170150109Y-66379786D01*
X170275049Y-66207819D01*
X170275051Y-66207816D01*
X170335630Y-66088921D01*
X170383604Y-66038126D01*
X170451425Y-66021330D01*
X170517560Y-66043867D01*
X170556599Y-66088920D01*
X170590341Y-66155141D01*
X170590476Y-66155405D01*
X170706172Y-66314646D01*
X170845354Y-66453828D01*
X171004595Y-66569524D01*
X171072908Y-66604331D01*
X171179970Y-66658882D01*
X171179972Y-66658882D01*
X171179975Y-66658884D01*
X171280317Y-66691487D01*
X171367173Y-66719709D01*
X171561578Y-66750500D01*
X171561583Y-66750500D01*
X171758422Y-66750500D01*
X171952826Y-66719709D01*
X171954328Y-66719221D01*
X172140025Y-66658884D01*
X172315405Y-66569524D01*
X172474646Y-66453828D01*
X172613828Y-66314646D01*
X172729524Y-66155405D01*
X172763399Y-66088920D01*
X172811373Y-66038125D01*
X172879194Y-66021330D01*
X172945329Y-66043867D01*
X172984369Y-66088921D01*
X173044951Y-66207820D01*
X173169890Y-66379786D01*
X173320213Y-66530109D01*
X173492179Y-66655048D01*
X173492181Y-66655049D01*
X173492184Y-66655051D01*
X173681588Y-66751557D01*
X173883757Y-66817246D01*
X174093713Y-66850500D01*
X174093714Y-66850500D01*
X174306286Y-66850500D01*
X174306287Y-66850500D01*
X174516243Y-66817246D01*
X174718412Y-66751557D01*
X174907816Y-66655051D01*
X174977627Y-66604331D01*
X175061111Y-66543677D01*
X176049873Y-66543677D01*
X176049873Y-66543678D01*
X176084858Y-66569096D01*
X176260164Y-66658418D01*
X176447294Y-66719221D01*
X176641618Y-66750000D01*
X176838382Y-66750000D01*
X177032705Y-66719221D01*
X177219835Y-66658418D01*
X177395143Y-66569095D01*
X177430125Y-66543678D01*
X177430126Y-66543678D01*
X176740001Y-65853553D01*
X176740000Y-65853553D01*
X176049873Y-66543677D01*
X175061111Y-66543677D01*
X175079786Y-66530109D01*
X175079788Y-66530106D01*
X175079792Y-66530104D01*
X175230104Y-66379792D01*
X175230106Y-66379788D01*
X175230109Y-66379786D01*
X175355049Y-66207819D01*
X175355051Y-66207816D01*
X175415912Y-66088368D01*
X175463885Y-66037574D01*
X175531706Y-66020778D01*
X175597841Y-66043315D01*
X175636880Y-66088368D01*
X175670903Y-66155142D01*
X175696319Y-66190125D01*
X175696320Y-66190125D01*
X176386446Y-65500000D01*
X176386446Y-65499999D01*
X176343660Y-65457213D01*
X176415000Y-65457213D01*
X176415000Y-65542787D01*
X176437149Y-65625445D01*
X176479936Y-65699554D01*
X176540446Y-65760064D01*
X176614555Y-65802851D01*
X176697213Y-65825000D01*
X176782787Y-65825000D01*
X176865445Y-65802851D01*
X176939554Y-65760064D01*
X177000064Y-65699554D01*
X177042851Y-65625445D01*
X177065000Y-65542787D01*
X177065000Y-65499999D01*
X177093553Y-65499999D01*
X177093553Y-65500001D01*
X177783678Y-66190126D01*
X177783678Y-66190125D01*
X177809097Y-66155141D01*
X177899234Y-65978236D01*
X177947208Y-65927439D01*
X178015029Y-65910644D01*
X178081164Y-65933181D01*
X178120204Y-65978235D01*
X178121115Y-65980024D01*
X178121116Y-65980025D01*
X178210476Y-66155405D01*
X178326172Y-66314646D01*
X178465354Y-66453828D01*
X178624595Y-66569524D01*
X178692908Y-66604331D01*
X178799970Y-66658882D01*
X178799972Y-66658882D01*
X178799975Y-66658884D01*
X178900317Y-66691487D01*
X178987173Y-66719709D01*
X179181578Y-66750500D01*
X179181583Y-66750500D01*
X179378422Y-66750500D01*
X179572826Y-66719709D01*
X179574328Y-66719221D01*
X179760025Y-66658884D01*
X179935405Y-66569524D01*
X180094646Y-66453828D01*
X180233828Y-66314646D01*
X180349524Y-66155405D01*
X180417838Y-66021330D01*
X180439515Y-65978787D01*
X180487489Y-65927990D01*
X180555310Y-65911195D01*
X180621445Y-65933732D01*
X180660485Y-65978787D01*
X180750474Y-66155403D01*
X180781789Y-66198504D01*
X180866172Y-66314646D01*
X181005354Y-66453828D01*
X181164595Y-66569524D01*
X181232908Y-66604331D01*
X181339970Y-66658882D01*
X181339972Y-66658882D01*
X181339975Y-66658884D01*
X181440317Y-66691487D01*
X181527173Y-66719709D01*
X181721578Y-66750500D01*
X181721583Y-66750500D01*
X181918422Y-66750500D01*
X182112826Y-66719709D01*
X182114328Y-66719221D01*
X182300025Y-66658884D01*
X182475405Y-66569524D01*
X182634646Y-66453828D01*
X182773828Y-66314646D01*
X182889524Y-66155405D01*
X182957838Y-66021330D01*
X182979515Y-65978787D01*
X183027489Y-65927990D01*
X183095310Y-65911195D01*
X183161445Y-65933732D01*
X183200485Y-65978787D01*
X183290474Y-66155403D01*
X183321789Y-66198504D01*
X183406172Y-66314646D01*
X183545354Y-66453828D01*
X183704595Y-66569524D01*
X183772908Y-66604331D01*
X183879970Y-66658882D01*
X183879972Y-66658882D01*
X183879975Y-66658884D01*
X183980317Y-66691487D01*
X184067173Y-66719709D01*
X184261578Y-66750500D01*
X184261583Y-66750500D01*
X184458422Y-66750500D01*
X184652826Y-66719709D01*
X184654328Y-66719221D01*
X184840025Y-66658884D01*
X185015405Y-66569524D01*
X185174646Y-66453828D01*
X185313828Y-66314646D01*
X185429524Y-66155405D01*
X185497838Y-66021330D01*
X185519515Y-65978787D01*
X185567489Y-65927990D01*
X185635310Y-65911195D01*
X185701445Y-65933732D01*
X185740485Y-65978787D01*
X185830474Y-66155403D01*
X185861789Y-66198504D01*
X185946172Y-66314646D01*
X186085354Y-66453828D01*
X186244595Y-66569524D01*
X186312908Y-66604331D01*
X186419970Y-66658882D01*
X186419972Y-66658882D01*
X186419975Y-66658884D01*
X186520317Y-66691487D01*
X186607173Y-66719709D01*
X186801578Y-66750500D01*
X186801583Y-66750500D01*
X186998422Y-66750500D01*
X187192826Y-66719709D01*
X187194328Y-66719221D01*
X187380025Y-66658884D01*
X187555405Y-66569524D01*
X187714646Y-66453828D01*
X187853828Y-66314646D01*
X187969524Y-66155405D01*
X188058884Y-65980025D01*
X188119709Y-65792826D01*
X188134482Y-65699554D01*
X188150500Y-65598422D01*
X188150500Y-65401577D01*
X188119709Y-65207173D01*
X188058882Y-65019970D01*
X188003679Y-64911629D01*
X187969524Y-64844595D01*
X187853828Y-64685354D01*
X187714646Y-64546172D01*
X187555405Y-64430476D01*
X187380029Y-64341117D01*
X187192826Y-64280290D01*
X186998422Y-64249500D01*
X186998417Y-64249500D01*
X186801583Y-64249500D01*
X186801578Y-64249500D01*
X186607173Y-64280290D01*
X186419970Y-64341117D01*
X186244594Y-64430476D01*
X186190338Y-64469896D01*
X186085354Y-64546172D01*
X186085352Y-64546174D01*
X186085351Y-64546174D01*
X185946174Y-64685351D01*
X185946174Y-64685352D01*
X185946172Y-64685354D01*
X185907717Y-64738282D01*
X185830476Y-64844594D01*
X185740485Y-65021213D01*
X185692511Y-65072009D01*
X185624690Y-65088804D01*
X185558555Y-65066267D01*
X185519515Y-65021213D01*
X185463679Y-64911629D01*
X185429524Y-64844595D01*
X185313828Y-64685354D01*
X185174646Y-64546172D01*
X185015405Y-64430476D01*
X184840029Y-64341117D01*
X184652826Y-64280290D01*
X184458422Y-64249500D01*
X184458417Y-64249500D01*
X184261583Y-64249500D01*
X184261578Y-64249500D01*
X184067173Y-64280290D01*
X183879970Y-64341117D01*
X183704594Y-64430476D01*
X183650338Y-64469896D01*
X183545354Y-64546172D01*
X183545352Y-64546174D01*
X183545351Y-64546174D01*
X183406174Y-64685351D01*
X183406174Y-64685352D01*
X183406172Y-64685354D01*
X183367717Y-64738282D01*
X183290476Y-64844594D01*
X183200485Y-65021213D01*
X183152511Y-65072009D01*
X183084690Y-65088804D01*
X183018555Y-65066267D01*
X182979515Y-65021213D01*
X182923679Y-64911629D01*
X182889524Y-64844595D01*
X182773828Y-64685354D01*
X182634646Y-64546172D01*
X182475405Y-64430476D01*
X182300029Y-64341117D01*
X182112826Y-64280290D01*
X181918422Y-64249500D01*
X181918417Y-64249500D01*
X181721583Y-64249500D01*
X181721578Y-64249500D01*
X181527173Y-64280290D01*
X181339970Y-64341117D01*
X181164594Y-64430476D01*
X181110338Y-64469896D01*
X181005354Y-64546172D01*
X181005352Y-64546174D01*
X181005351Y-64546174D01*
X180866174Y-64685351D01*
X180866174Y-64685352D01*
X180866172Y-64685354D01*
X180827717Y-64738282D01*
X180750476Y-64844594D01*
X180660485Y-65021213D01*
X180612511Y-65072009D01*
X180544690Y-65088804D01*
X180478555Y-65066267D01*
X180439515Y-65021213D01*
X180383679Y-64911629D01*
X180349524Y-64844595D01*
X180233828Y-64685354D01*
X180094646Y-64546172D01*
X179935405Y-64430476D01*
X179760029Y-64341117D01*
X179572826Y-64280290D01*
X179378422Y-64249500D01*
X179378417Y-64249500D01*
X179181583Y-64249500D01*
X179181578Y-64249500D01*
X178987173Y-64280290D01*
X178799970Y-64341117D01*
X178624594Y-64430476D01*
X178570338Y-64469896D01*
X178465354Y-64546172D01*
X178465352Y-64546174D01*
X178465351Y-64546174D01*
X178326174Y-64685351D01*
X178326174Y-64685352D01*
X178326172Y-64685354D01*
X178287717Y-64738282D01*
X178210476Y-64844594D01*
X178120204Y-65021764D01*
X178072229Y-65072560D01*
X178004408Y-65089355D01*
X177938274Y-65066818D01*
X177899234Y-65021764D01*
X177809096Y-64844858D01*
X177783678Y-64809873D01*
X177783677Y-64809873D01*
X177093553Y-65499999D01*
X177065000Y-65499999D01*
X177065000Y-65457213D01*
X177042851Y-65374555D01*
X177000064Y-65300446D01*
X176939554Y-65239936D01*
X176865445Y-65197149D01*
X176782787Y-65175000D01*
X176697213Y-65175000D01*
X176614555Y-65197149D01*
X176540446Y-65239936D01*
X176479936Y-65300446D01*
X176437149Y-65374555D01*
X176415000Y-65457213D01*
X176343660Y-65457213D01*
X175696320Y-64809872D01*
X175696320Y-64809873D01*
X175670902Y-64844859D01*
X175670899Y-64844864D01*
X175636880Y-64911630D01*
X175588906Y-64962425D01*
X175521085Y-64979220D01*
X175454950Y-64956682D01*
X175415911Y-64911629D01*
X175385397Y-64851742D01*
X175355051Y-64792184D01*
X175355049Y-64792181D01*
X175355048Y-64792179D01*
X175230109Y-64620213D01*
X175079786Y-64469890D01*
X175061108Y-64456320D01*
X176049872Y-64456320D01*
X176740000Y-65146446D01*
X176740001Y-65146446D01*
X177430125Y-64456320D01*
X177430125Y-64456319D01*
X177395145Y-64430905D01*
X177219835Y-64341581D01*
X177032705Y-64280778D01*
X176838382Y-64250000D01*
X176641618Y-64250000D01*
X176447294Y-64280778D01*
X176260161Y-64341582D01*
X176084863Y-64430899D01*
X176084859Y-64430902D01*
X176049873Y-64456320D01*
X176049872Y-64456320D01*
X175061108Y-64456320D01*
X174907820Y-64344951D01*
X174718414Y-64248444D01*
X174718413Y-64248443D01*
X174718412Y-64248443D01*
X174516243Y-64182754D01*
X174516241Y-64182753D01*
X174516240Y-64182753D01*
X174354957Y-64157208D01*
X174306287Y-64149500D01*
X174093713Y-64149500D01*
X174045042Y-64157208D01*
X173883760Y-64182753D01*
X173681585Y-64248444D01*
X173492179Y-64344951D01*
X173320213Y-64469890D01*
X173169890Y-64620213D01*
X173044951Y-64792180D01*
X172984369Y-64911078D01*
X172936394Y-64961874D01*
X172868573Y-64978669D01*
X172802438Y-64956131D01*
X172763399Y-64911078D01*
X172733446Y-64852293D01*
X172729524Y-64844595D01*
X172613828Y-64685354D01*
X172474646Y-64546172D01*
X172315405Y-64430476D01*
X172140029Y-64341117D01*
X171952826Y-64280290D01*
X171758422Y-64249500D01*
X171758417Y-64249500D01*
X171561583Y-64249500D01*
X171561578Y-64249500D01*
X171367173Y-64280290D01*
X171179970Y-64341117D01*
X171004594Y-64430476D01*
X170950338Y-64469896D01*
X170845354Y-64546172D01*
X170845352Y-64546174D01*
X170845351Y-64546174D01*
X170706174Y-64685351D01*
X170706174Y-64685352D01*
X170706172Y-64685354D01*
X170667717Y-64738282D01*
X170590476Y-64844594D01*
X170556599Y-64911080D01*
X170508624Y-64961875D01*
X170440803Y-64978669D01*
X170374668Y-64956131D01*
X170335630Y-64911078D01*
X170305397Y-64851742D01*
X170275051Y-64792184D01*
X170275049Y-64792181D01*
X170275048Y-64792179D01*
X170150109Y-64620213D01*
X169999786Y-64469890D01*
X169827820Y-64344951D01*
X169638414Y-64248444D01*
X169638413Y-64248443D01*
X169638412Y-64248443D01*
X169436243Y-64182754D01*
X169436241Y-64182753D01*
X169436240Y-64182753D01*
X169274957Y-64157208D01*
X169226287Y-64149500D01*
X169013713Y-64149500D01*
X168965042Y-64157208D01*
X168803760Y-64182753D01*
X168601585Y-64248444D01*
X168412179Y-64344951D01*
X168240213Y-64469890D01*
X168089890Y-64620213D01*
X167964949Y-64792182D01*
X167960484Y-64800946D01*
X167912509Y-64851742D01*
X167844688Y-64868536D01*
X167778553Y-64845998D01*
X167739516Y-64800946D01*
X167735050Y-64792182D01*
X167610109Y-64620213D01*
X167459786Y-64469890D01*
X167287820Y-64344951D01*
X167098414Y-64248444D01*
X167098413Y-64248443D01*
X167098412Y-64248443D01*
X166896243Y-64182754D01*
X166896241Y-64182753D01*
X166896240Y-64182753D01*
X166734957Y-64157208D01*
X166686287Y-64149500D01*
X166473713Y-64149500D01*
X166425042Y-64157208D01*
X166263760Y-64182753D01*
X166061585Y-64248444D01*
X165872179Y-64344951D01*
X165700213Y-64469890D01*
X165549890Y-64620213D01*
X165424949Y-64792182D01*
X165420484Y-64800946D01*
X165372509Y-64851742D01*
X165304688Y-64868536D01*
X165238553Y-64845998D01*
X165199516Y-64800946D01*
X165195050Y-64792182D01*
X165070109Y-64620213D01*
X164919786Y-64469890D01*
X164747820Y-64344951D01*
X164558414Y-64248444D01*
X164558413Y-64248443D01*
X164558412Y-64248443D01*
X164356243Y-64182754D01*
X164356241Y-64182753D01*
X164356240Y-64182753D01*
X164194957Y-64157208D01*
X164146287Y-64149500D01*
X163933713Y-64149500D01*
X163885042Y-64157208D01*
X163723760Y-64182753D01*
X163521585Y-64248444D01*
X163332179Y-64344951D01*
X163160213Y-64469890D01*
X163009890Y-64620213D01*
X162884949Y-64792182D01*
X162880484Y-64800946D01*
X162832509Y-64851742D01*
X162764688Y-64868536D01*
X162698553Y-64845998D01*
X162659516Y-64800946D01*
X162655050Y-64792182D01*
X162530109Y-64620213D01*
X162379786Y-64469890D01*
X162207820Y-64344951D01*
X162018414Y-64248444D01*
X162018413Y-64248443D01*
X162018412Y-64248443D01*
X161816243Y-64182754D01*
X161816241Y-64182753D01*
X161816240Y-64182753D01*
X161654957Y-64157208D01*
X161606287Y-64149500D01*
X161393713Y-64149500D01*
X161345042Y-64157208D01*
X161183760Y-64182753D01*
X160981585Y-64248444D01*
X160792179Y-64344951D01*
X160620213Y-64469890D01*
X160469890Y-64620213D01*
X160344949Y-64792182D01*
X160340484Y-64800946D01*
X160292509Y-64851742D01*
X160224688Y-64868536D01*
X160158553Y-64845998D01*
X160119516Y-64800946D01*
X160115050Y-64792182D01*
X159990109Y-64620213D01*
X159839786Y-64469890D01*
X159667820Y-64344951D01*
X159478414Y-64248444D01*
X159478413Y-64248443D01*
X159478412Y-64248443D01*
X159276243Y-64182754D01*
X159276241Y-64182753D01*
X159276240Y-64182753D01*
X159114957Y-64157208D01*
X159066287Y-64149500D01*
X158853713Y-64149500D01*
X158805042Y-64157208D01*
X158643760Y-64182753D01*
X158441585Y-64248444D01*
X158252179Y-64344951D01*
X158080213Y-64469890D01*
X157929890Y-64620213D01*
X157804949Y-64792182D01*
X157800484Y-64800946D01*
X157752509Y-64851742D01*
X157684688Y-64868536D01*
X157618553Y-64845998D01*
X157579516Y-64800946D01*
X157575050Y-64792182D01*
X157450109Y-64620213D01*
X157299786Y-64469890D01*
X157127820Y-64344951D01*
X156938414Y-64248444D01*
X156938413Y-64248443D01*
X156938412Y-64248443D01*
X156736243Y-64182754D01*
X156736241Y-64182753D01*
X156736240Y-64182753D01*
X156574957Y-64157208D01*
X156526287Y-64149500D01*
X156313713Y-64149500D01*
X156265042Y-64157208D01*
X156103760Y-64182753D01*
X155901585Y-64248444D01*
X155712179Y-64344951D01*
X155540213Y-64469890D01*
X155389890Y-64620213D01*
X155264949Y-64792182D01*
X155260202Y-64801499D01*
X155212227Y-64852293D01*
X155144405Y-64869087D01*
X155078271Y-64846548D01*
X155039234Y-64801495D01*
X155034626Y-64792452D01*
X154995270Y-64738282D01*
X154995269Y-64738282D01*
X154280000Y-65453552D01*
X154280000Y-65447339D01*
X154252741Y-65345606D01*
X154200080Y-65254394D01*
X154125606Y-65179920D01*
X154034394Y-65127259D01*
X153932661Y-65100000D01*
X153926446Y-65100000D01*
X154641716Y-64384728D01*
X154587550Y-64345375D01*
X154398217Y-64248904D01*
X154196129Y-64183242D01*
X153986246Y-64150000D01*
X153896582Y-64150000D01*
X153829543Y-64130315D01*
X153783788Y-64077511D01*
X153773844Y-64008353D01*
X153802869Y-63944797D01*
X153808887Y-63938333D01*
X154599902Y-63147319D01*
X154661225Y-63113834D01*
X154687583Y-63111000D01*
X189995000Y-63111000D01*
X190062039Y-63130685D01*
X190107794Y-63183489D01*
X190119000Y-63235000D01*
X190119000Y-82105000D01*
X190099315Y-82172039D01*
X190046511Y-82217794D01*
X189995000Y-82229000D01*
X162811940Y-82229000D01*
X162678448Y-82255553D01*
X162678438Y-82255556D01*
X162552690Y-82307642D01*
X162552687Y-82307644D01*
X162439514Y-82383263D01*
X162439507Y-82383269D01*
X153902681Y-90920096D01*
X153841358Y-90953581D01*
X153771666Y-90948597D01*
X153715733Y-90906725D01*
X153691316Y-90841261D01*
X153691000Y-90832415D01*
X153691000Y-87320536D01*
X153664446Y-87187045D01*
X153664445Y-87187044D01*
X153664445Y-87187040D01*
X153650811Y-87154125D01*
X153612357Y-87061287D01*
X153612355Y-87061284D01*
X153536736Y-86948111D01*
X153536730Y-86948104D01*
X151806395Y-85217769D01*
X151806388Y-85217763D01*
X151693215Y-85142144D01*
X151693212Y-85142142D01*
X151567464Y-85090056D01*
X151567454Y-85090053D01*
X151433963Y-85063500D01*
X151433961Y-85063500D01*
X139327442Y-85063500D01*
X139327440Y-85063500D01*
X139193948Y-85090053D01*
X139193938Y-85090056D01*
X139068190Y-85142142D01*
X139068187Y-85142144D01*
X138955014Y-85217763D01*
X138955007Y-85217769D01*
X138487745Y-85685031D01*
X138426422Y-85718516D01*
X138380666Y-85719823D01*
X138330986Y-85711954D01*
X138252352Y-85699500D01*
X138047648Y-85699500D01*
X138023329Y-85703351D01*
X137845465Y-85731522D01*
X137650776Y-85794781D01*
X137468386Y-85887715D01*
X137302786Y-86008028D01*
X137158028Y-86152786D01*
X137037715Y-86318386D01*
X136944781Y-86500776D01*
X136881522Y-86695465D01*
X136857488Y-86847213D01*
X136849500Y-86897648D01*
X136849500Y-87102352D01*
X136851074Y-87112287D01*
X136881522Y-87304534D01*
X136944781Y-87499223D01*
X137037715Y-87681613D01*
X137158028Y-87847213D01*
X137302786Y-87991971D01*
X137453690Y-88101607D01*
X137468390Y-88112287D01*
X137579001Y-88168646D01*
X137650776Y-88205218D01*
X137650778Y-88205218D01*
X137650781Y-88205220D01*
X137739434Y-88234025D01*
X137845465Y-88268477D01*
X137946557Y-88284488D01*
X138047648Y-88300500D01*
X138047649Y-88300500D01*
X138252351Y-88300500D01*
X138252352Y-88300500D01*
X138454534Y-88268477D01*
X138649219Y-88205220D01*
X138831610Y-88112287D01*
X138924590Y-88044732D01*
X138997213Y-87991971D01*
X138997215Y-87991968D01*
X138997219Y-87991966D01*
X139141966Y-87847219D01*
X139141968Y-87847215D01*
X139141971Y-87847213D01*
X139222301Y-87736646D01*
X139262287Y-87681610D01*
X139355220Y-87499219D01*
X139418477Y-87304534D01*
X139450500Y-87102352D01*
X139450500Y-86897648D01*
X139430176Y-86769331D01*
X139439130Y-86700039D01*
X139464968Y-86662253D01*
X139645403Y-86481819D01*
X139706726Y-86448334D01*
X139733084Y-86445500D01*
X149492070Y-86445500D01*
X149559109Y-86465185D01*
X149604864Y-86517989D01*
X149614808Y-86587147D01*
X149610001Y-86607818D01*
X149581523Y-86695461D01*
X149581523Y-86695464D01*
X149557488Y-86847213D01*
X149549500Y-86897648D01*
X149549500Y-87102352D01*
X149551074Y-87112287D01*
X149581522Y-87304534D01*
X149644781Y-87499223D01*
X149737715Y-87681613D01*
X149858028Y-87847213D01*
X150002784Y-87991969D01*
X150107885Y-88068328D01*
X150150551Y-88123657D01*
X150159000Y-88168646D01*
X150159000Y-93121943D01*
X150159000Y-93258057D01*
X150159000Y-93258059D01*
X150158999Y-93258059D01*
X150185553Y-93391551D01*
X150185556Y-93391561D01*
X150237642Y-93517309D01*
X150237644Y-93517312D01*
X150313263Y-93630485D01*
X150313269Y-93630492D01*
X151728732Y-95045954D01*
X151762217Y-95107277D01*
X151763524Y-95153033D01*
X151749500Y-95241577D01*
X151749500Y-95438422D01*
X151780290Y-95632826D01*
X151841117Y-95820029D01*
X151930476Y-95995405D01*
X152046172Y-96154646D01*
X152185354Y-96293828D01*
X152304784Y-96380600D01*
X152344596Y-96409525D01*
X152521763Y-96499795D01*
X152572560Y-96547769D01*
X152589355Y-96615590D01*
X152566818Y-96681725D01*
X152521764Y-96720765D01*
X152344859Y-96810902D01*
X152309873Y-96836320D01*
X152309872Y-96836320D01*
X153000000Y-97526446D01*
X153000001Y-97526446D01*
X153690125Y-96836320D01*
X153690125Y-96836319D01*
X153655145Y-96810905D01*
X153478235Y-96720765D01*
X153427439Y-96672790D01*
X153410644Y-96604969D01*
X153433182Y-96538834D01*
X153478236Y-96499795D01*
X153480022Y-96498884D01*
X153480025Y-96498884D01*
X153655405Y-96409524D01*
X153814646Y-96293828D01*
X153953828Y-96154646D01*
X154069524Y-95995405D01*
X154158884Y-95820025D01*
X154219709Y-95632826D01*
X154250500Y-95438422D01*
X154250500Y-95241577D01*
X154219709Y-95047173D01*
X154158882Y-94859970D01*
X154069523Y-94684594D01*
X153953828Y-94525354D01*
X153814646Y-94386172D01*
X153735025Y-94328324D01*
X153655403Y-94270474D01*
X153478787Y-94180485D01*
X153427990Y-94132511D01*
X153411195Y-94064690D01*
X153433732Y-93998555D01*
X153478787Y-93959515D01*
X153655403Y-93869525D01*
X153655402Y-93869525D01*
X153655405Y-93869524D01*
X153814646Y-93753828D01*
X153953828Y-93614646D01*
X154069524Y-93455405D01*
X154158884Y-93280025D01*
X154219709Y-93092826D01*
X154250500Y-92898422D01*
X154250500Y-92701585D01*
X154250499Y-92701577D01*
X154236474Y-92613030D01*
X154245428Y-92543741D01*
X154271263Y-92505957D01*
X163129903Y-83647319D01*
X163191226Y-83613834D01*
X163217584Y-83611000D01*
X190878060Y-83611000D01*
X190967870Y-83593134D01*
X191011557Y-83584445D01*
X191137311Y-83532356D01*
X191250487Y-83456734D01*
X191346734Y-83360487D01*
X191422356Y-83247311D01*
X191429044Y-83231166D01*
X191452212Y-83175233D01*
X191474445Y-83121557D01*
X191484609Y-83070458D01*
X191501000Y-82988060D01*
X191501000Y-80597648D01*
X193199500Y-80597648D01*
X193199500Y-80802351D01*
X193231522Y-81004534D01*
X193294781Y-81199223D01*
X193387715Y-81381613D01*
X193508028Y-81547213D01*
X193652786Y-81691971D01*
X193807749Y-81804556D01*
X193818390Y-81812287D01*
X193934607Y-81871503D01*
X194000776Y-81905218D01*
X194000778Y-81905218D01*
X194000781Y-81905220D01*
X194105137Y-81939127D01*
X194195465Y-81968477D01*
X194296557Y-81984488D01*
X194397648Y-82000500D01*
X194397649Y-82000500D01*
X194602351Y-82000500D01*
X194602352Y-82000500D01*
X194804534Y-81968477D01*
X194999219Y-81905220D01*
X195181610Y-81812287D01*
X195274590Y-81744732D01*
X195347213Y-81691971D01*
X195347215Y-81691968D01*
X195347219Y-81691966D01*
X195491966Y-81547219D01*
X195491968Y-81547215D01*
X195491971Y-81547213D01*
X195544732Y-81474590D01*
X195612287Y-81381610D01*
X195705220Y-81199219D01*
X195768477Y-81004534D01*
X195800500Y-80802352D01*
X195800500Y-80597648D01*
X195768477Y-80395466D01*
X195767907Y-80393713D01*
X195705218Y-80200776D01*
X195652788Y-80097878D01*
X195612287Y-80018390D01*
X195585547Y-79981585D01*
X195491971Y-79852786D01*
X195347213Y-79708028D01*
X195181613Y-79587715D01*
X195181612Y-79587714D01*
X195181610Y-79587713D01*
X195124653Y-79558691D01*
X194999223Y-79494781D01*
X194804534Y-79431522D01*
X194629995Y-79403878D01*
X194602352Y-79399500D01*
X194397648Y-79399500D01*
X194373329Y-79403351D01*
X194195465Y-79431522D01*
X194000776Y-79494781D01*
X193818386Y-79587715D01*
X193652786Y-79708028D01*
X193508028Y-79852786D01*
X193387715Y-80018386D01*
X193294781Y-80200776D01*
X193231522Y-80395465D01*
X193199500Y-80597648D01*
X191501000Y-80597648D01*
X191501000Y-67897648D01*
X193199500Y-67897648D01*
X193199500Y-68102351D01*
X193231522Y-68304534D01*
X193294781Y-68499223D01*
X193352889Y-68613265D01*
X193384939Y-68676166D01*
X193387715Y-68681613D01*
X193508028Y-68847213D01*
X193652786Y-68991971D01*
X193807749Y-69104556D01*
X193818390Y-69112287D01*
X193934607Y-69171503D01*
X194000776Y-69205218D01*
X194000778Y-69205218D01*
X194000781Y-69205220D01*
X194105137Y-69239127D01*
X194195465Y-69268477D01*
X194296557Y-69284488D01*
X194397648Y-69300500D01*
X194397649Y-69300500D01*
X194602351Y-69300500D01*
X194602352Y-69300500D01*
X194804534Y-69268477D01*
X194999219Y-69205220D01*
X195181610Y-69112287D01*
X195274590Y-69044732D01*
X195347213Y-68991971D01*
X195347215Y-68991968D01*
X195347219Y-68991966D01*
X195491966Y-68847219D01*
X195491968Y-68847215D01*
X195491971Y-68847213D01*
X195565608Y-68745858D01*
X195612287Y-68681610D01*
X195705220Y-68499219D01*
X195768477Y-68304534D01*
X195800500Y-68102352D01*
X195800500Y-67897648D01*
X195768477Y-67695466D01*
X195705220Y-67500781D01*
X195705218Y-67500778D01*
X195705218Y-67500776D01*
X195671503Y-67434607D01*
X195612287Y-67318390D01*
X195604556Y-67307749D01*
X195491971Y-67152786D01*
X195347213Y-67008028D01*
X195181613Y-66887715D01*
X195181612Y-66887714D01*
X195181610Y-66887713D01*
X195124653Y-66858691D01*
X194999223Y-66794781D01*
X194804534Y-66731522D01*
X194629995Y-66703878D01*
X194602352Y-66699500D01*
X194397648Y-66699500D01*
X194373329Y-66703351D01*
X194195465Y-66731522D01*
X194000776Y-66794781D01*
X193818386Y-66887715D01*
X193652786Y-67008028D01*
X193508028Y-67152786D01*
X193387715Y-67318386D01*
X193294781Y-67500776D01*
X193231522Y-67695465D01*
X193199500Y-67897648D01*
X191501000Y-67897648D01*
X191501000Y-62351939D01*
X191474446Y-62218448D01*
X191474445Y-62218447D01*
X191474445Y-62218443D01*
X191474443Y-62218438D01*
X191422359Y-62092695D01*
X191422352Y-62092682D01*
X191346734Y-61979513D01*
X191346731Y-61979509D01*
X191250490Y-61883268D01*
X191250486Y-61883265D01*
X191137317Y-61807647D01*
X191137304Y-61807640D01*
X191011561Y-61755556D01*
X191011551Y-61755553D01*
X190878060Y-61729000D01*
X190878058Y-61729000D01*
X154281942Y-61729000D01*
X154281940Y-61729000D01*
X154148448Y-61755553D01*
X154148438Y-61755556D01*
X154022695Y-61807640D01*
X154022682Y-61807647D01*
X153909514Y-61883264D01*
X153909510Y-61883267D01*
X151661018Y-64131758D01*
X151599695Y-64165243D01*
X151553939Y-64166550D01*
X151446292Y-64149500D01*
X151446287Y-64149500D01*
X151233713Y-64149500D01*
X151185042Y-64157208D01*
X151023760Y-64182753D01*
X150821585Y-64248444D01*
X150632179Y-64344951D01*
X150460213Y-64469890D01*
X150309890Y-64620213D01*
X150184949Y-64792182D01*
X150180484Y-64800946D01*
X150132509Y-64851742D01*
X150064688Y-64868536D01*
X149998553Y-64845998D01*
X149959516Y-64800946D01*
X149955050Y-64792182D01*
X149830109Y-64620213D01*
X149679786Y-64469890D01*
X149507820Y-64344951D01*
X149318414Y-64248444D01*
X149318413Y-64248443D01*
X149318412Y-64248443D01*
X149116243Y-64182754D01*
X149116241Y-64182753D01*
X149116240Y-64182753D01*
X148954957Y-64157208D01*
X148906287Y-64149500D01*
X148693713Y-64149500D01*
X148645042Y-64157208D01*
X148483760Y-64182753D01*
X148281585Y-64248444D01*
X148092179Y-64344951D01*
X147920213Y-64469890D01*
X147769890Y-64620213D01*
X147644949Y-64792182D01*
X147640484Y-64800946D01*
X147592509Y-64851742D01*
X147524688Y-64868536D01*
X147458553Y-64845998D01*
X147419516Y-64800946D01*
X147415050Y-64792182D01*
X147290109Y-64620213D01*
X147139786Y-64469890D01*
X146967820Y-64344951D01*
X146778414Y-64248444D01*
X146778413Y-64248443D01*
X146778412Y-64248443D01*
X146576243Y-64182754D01*
X146576241Y-64182753D01*
X146576240Y-64182753D01*
X146414957Y-64157208D01*
X146366287Y-64149500D01*
X146153713Y-64149500D01*
X146105042Y-64157208D01*
X145943760Y-64182753D01*
X145741585Y-64248444D01*
X145552179Y-64344951D01*
X145380213Y-64469890D01*
X145229890Y-64620213D01*
X145104949Y-64792182D01*
X145100484Y-64800946D01*
X145052509Y-64851742D01*
X144984688Y-64868536D01*
X144918553Y-64845998D01*
X144879516Y-64800946D01*
X144875050Y-64792182D01*
X144750109Y-64620213D01*
X144599786Y-64469890D01*
X144427820Y-64344951D01*
X144238414Y-64248444D01*
X144238413Y-64248443D01*
X144238412Y-64248443D01*
X144036243Y-64182754D01*
X144036241Y-64182753D01*
X144036240Y-64182753D01*
X143874957Y-64157208D01*
X143826287Y-64149500D01*
X143613713Y-64149500D01*
X143565042Y-64157208D01*
X143403760Y-64182753D01*
X143201585Y-64248444D01*
X143012179Y-64344951D01*
X142840213Y-64469890D01*
X142689890Y-64620213D01*
X142564949Y-64792182D01*
X142560484Y-64800946D01*
X142512509Y-64851742D01*
X142444688Y-64868536D01*
X142378553Y-64845998D01*
X142339516Y-64800946D01*
X142335050Y-64792182D01*
X142210109Y-64620213D01*
X142059786Y-64469890D01*
X141887820Y-64344951D01*
X141698414Y-64248444D01*
X141698413Y-64248443D01*
X141698412Y-64248443D01*
X141496243Y-64182754D01*
X141496241Y-64182753D01*
X141496240Y-64182753D01*
X141334957Y-64157208D01*
X141286287Y-64149500D01*
X141073713Y-64149500D01*
X141025042Y-64157208D01*
X140863760Y-64182753D01*
X140661585Y-64248444D01*
X140472179Y-64344951D01*
X140300213Y-64469890D01*
X140149890Y-64620213D01*
X140024949Y-64792182D01*
X140020484Y-64800946D01*
X139972509Y-64851742D01*
X139904688Y-64868536D01*
X139838553Y-64845998D01*
X139799516Y-64800946D01*
X139795050Y-64792182D01*
X139670109Y-64620213D01*
X139519786Y-64469890D01*
X139347820Y-64344951D01*
X139158414Y-64248444D01*
X139158413Y-64248443D01*
X139158412Y-64248443D01*
X138956243Y-64182754D01*
X138956241Y-64182753D01*
X138956240Y-64182753D01*
X138794957Y-64157208D01*
X138746287Y-64149500D01*
X138533713Y-64149500D01*
X138485042Y-64157208D01*
X138323760Y-64182753D01*
X138121585Y-64248444D01*
X137932179Y-64344951D01*
X137760213Y-64469890D01*
X137609890Y-64620213D01*
X137484949Y-64792182D01*
X137480484Y-64800946D01*
X137432509Y-64851742D01*
X137364688Y-64868536D01*
X137298553Y-64845998D01*
X137259516Y-64800946D01*
X137255050Y-64792182D01*
X137130109Y-64620213D01*
X136979786Y-64469890D01*
X136807820Y-64344951D01*
X136618414Y-64248444D01*
X136618413Y-64248443D01*
X136618412Y-64248443D01*
X136416243Y-64182754D01*
X136416241Y-64182753D01*
X136416240Y-64182753D01*
X136254957Y-64157208D01*
X136206287Y-64149500D01*
X135993713Y-64149500D01*
X135945042Y-64157208D01*
X135783760Y-64182753D01*
X135581585Y-64248444D01*
X135392179Y-64344951D01*
X135220213Y-64469890D01*
X135069890Y-64620213D01*
X134944949Y-64792182D01*
X134940484Y-64800946D01*
X134892509Y-64851742D01*
X134824688Y-64868536D01*
X134758553Y-64845998D01*
X134719516Y-64800946D01*
X134715050Y-64792182D01*
X134590109Y-64620213D01*
X134439786Y-64469890D01*
X134267820Y-64344951D01*
X134078414Y-64248444D01*
X134078413Y-64248443D01*
X134078412Y-64248443D01*
X133876243Y-64182754D01*
X133876241Y-64182753D01*
X133876240Y-64182753D01*
X133714957Y-64157208D01*
X133666287Y-64149500D01*
X133453713Y-64149500D01*
X133405042Y-64157208D01*
X133243760Y-64182753D01*
X133041585Y-64248444D01*
X132852179Y-64344951D01*
X132680213Y-64469890D01*
X132529890Y-64620213D01*
X132404949Y-64792182D01*
X132400484Y-64800946D01*
X132352509Y-64851742D01*
X132284688Y-64868536D01*
X132218553Y-64845998D01*
X132179516Y-64800946D01*
X132175050Y-64792182D01*
X132050109Y-64620213D01*
X131899786Y-64469890D01*
X131727820Y-64344951D01*
X131538414Y-64248444D01*
X131538413Y-64248443D01*
X131538412Y-64248443D01*
X131336243Y-64182754D01*
X131336241Y-64182753D01*
X131336240Y-64182753D01*
X131174957Y-64157208D01*
X131126287Y-64149500D01*
X130913713Y-64149500D01*
X130865042Y-64157208D01*
X130703760Y-64182753D01*
X130501585Y-64248444D01*
X130312179Y-64344951D01*
X130140213Y-64469890D01*
X129989890Y-64620213D01*
X129864949Y-64792182D01*
X129860202Y-64801499D01*
X129812227Y-64852293D01*
X129744405Y-64869087D01*
X129678271Y-64846548D01*
X129639234Y-64801495D01*
X129634626Y-64792452D01*
X129595270Y-64738282D01*
X129595269Y-64738282D01*
X128880000Y-65453552D01*
X128880000Y-65447339D01*
X128852741Y-65345606D01*
X128800080Y-65254394D01*
X128725606Y-65179920D01*
X128634394Y-65127259D01*
X128532661Y-65100000D01*
X128526447Y-65100000D01*
X129241716Y-64384728D01*
X129187550Y-64345375D01*
X128998217Y-64248904D01*
X128796129Y-64183242D01*
X128586246Y-64150000D01*
X128373754Y-64150000D01*
X128163872Y-64183242D01*
X128163869Y-64183242D01*
X127961782Y-64248904D01*
X127772439Y-64345380D01*
X127718282Y-64384727D01*
X127718282Y-64384728D01*
X128433554Y-65100000D01*
X128427339Y-65100000D01*
X128325606Y-65127259D01*
X128234394Y-65179920D01*
X128159920Y-65254394D01*
X128107259Y-65345606D01*
X128080000Y-65447339D01*
X128080000Y-65453554D01*
X127364728Y-64738282D01*
X127364727Y-64738282D01*
X127325380Y-64792440D01*
X127325376Y-64792446D01*
X127320760Y-64801505D01*
X127272781Y-64852297D01*
X127204959Y-64869087D01*
X127138826Y-64846543D01*
X127099794Y-64801493D01*
X127095051Y-64792184D01*
X127095049Y-64792181D01*
X127095048Y-64792179D01*
X126970109Y-64620213D01*
X126819786Y-64469890D01*
X126647820Y-64344951D01*
X126458414Y-64248444D01*
X126458413Y-64248443D01*
X126458412Y-64248443D01*
X126256243Y-64182754D01*
X126256241Y-64182753D01*
X126256240Y-64182753D01*
X126094957Y-64157208D01*
X126046287Y-64149500D01*
X125833713Y-64149500D01*
X125785042Y-64157208D01*
X125623760Y-64182753D01*
X125421585Y-64248444D01*
X125232179Y-64344951D01*
X125060213Y-64469890D01*
X124909890Y-64620213D01*
X124784949Y-64792182D01*
X124780484Y-64800946D01*
X124732509Y-64851742D01*
X124664688Y-64868536D01*
X124598553Y-64845998D01*
X124559516Y-64800946D01*
X124555050Y-64792182D01*
X124430109Y-64620213D01*
X124279786Y-64469890D01*
X124107820Y-64344951D01*
X123918414Y-64248444D01*
X123918413Y-64248443D01*
X123918412Y-64248443D01*
X123716243Y-64182754D01*
X123716241Y-64182753D01*
X123716240Y-64182753D01*
X123554957Y-64157208D01*
X123506287Y-64149500D01*
X123293713Y-64149500D01*
X123245042Y-64157208D01*
X123083760Y-64182753D01*
X122881585Y-64248444D01*
X122692179Y-64344951D01*
X122520213Y-64469890D01*
X122369890Y-64620213D01*
X122244949Y-64792182D01*
X122240202Y-64801499D01*
X122192227Y-64852293D01*
X122124405Y-64869087D01*
X122058271Y-64846548D01*
X122019234Y-64801495D01*
X122014626Y-64792452D01*
X121975270Y-64738282D01*
X121975269Y-64738282D01*
X121260000Y-65453552D01*
X121260000Y-65447339D01*
X121232741Y-65345606D01*
X121180080Y-65254394D01*
X121105606Y-65179920D01*
X121014394Y-65127259D01*
X120912661Y-65100000D01*
X120906447Y-65100000D01*
X121621716Y-64384728D01*
X121567550Y-64345375D01*
X121378217Y-64248904D01*
X121176129Y-64183242D01*
X120966246Y-64150000D01*
X120753754Y-64150000D01*
X120543872Y-64183242D01*
X120543869Y-64183242D01*
X120341782Y-64248904D01*
X120152439Y-64345380D01*
X120098282Y-64384727D01*
X120098282Y-64384728D01*
X120813554Y-65100000D01*
X120807339Y-65100000D01*
X120705606Y-65127259D01*
X120614394Y-65179920D01*
X120539920Y-65254394D01*
X120487259Y-65345606D01*
X120460000Y-65447339D01*
X120460000Y-65453554D01*
X119744728Y-64738282D01*
X119744727Y-64738282D01*
X119705380Y-64792440D01*
X119705376Y-64792446D01*
X119700760Y-64801505D01*
X119652781Y-64852297D01*
X119584959Y-64869087D01*
X119518826Y-64846543D01*
X119479794Y-64801493D01*
X119475051Y-64792184D01*
X119475049Y-64792181D01*
X119475048Y-64792179D01*
X119350109Y-64620213D01*
X119199786Y-64469890D01*
X119027820Y-64344951D01*
X118838414Y-64248444D01*
X118838413Y-64248443D01*
X118838412Y-64248443D01*
X118636243Y-64182754D01*
X118636241Y-64182753D01*
X118636240Y-64182753D01*
X118474957Y-64157208D01*
X118426287Y-64149500D01*
X118213713Y-64149500D01*
X118165042Y-64157208D01*
X118003760Y-64182753D01*
X117801585Y-64248444D01*
X117612179Y-64344951D01*
X117440213Y-64469890D01*
X117289890Y-64620213D01*
X117164951Y-64792179D01*
X117068444Y-64981585D01*
X117002753Y-65183760D01*
X116969500Y-65393713D01*
X116969500Y-65606286D01*
X116999262Y-65794199D01*
X117002754Y-65816243D01*
X117068443Y-66018412D01*
X117160207Y-66198510D01*
X117164951Y-66207819D01*
X117290493Y-66380615D01*
X117313973Y-66446422D01*
X117298147Y-66514475D01*
X117248041Y-66563170D01*
X117190175Y-66577500D01*
X107652595Y-66577500D01*
X107538095Y-66600276D01*
X107538094Y-66600276D01*
X107526655Y-66602551D01*
X107519097Y-66604055D01*
X107519096Y-66604055D01*
X107393351Y-66656140D01*
X107393338Y-66656147D01*
X107280170Y-66731764D01*
X107280166Y-66731767D01*
X106081765Y-67930169D01*
X106067557Y-67951433D01*
X106053443Y-67972558D01*
X106006147Y-68043340D01*
X106006140Y-68043352D01*
X105954056Y-68169095D01*
X105954053Y-68169105D01*
X105927500Y-68302596D01*
X105927500Y-68302599D01*
X105927500Y-84311846D01*
X105927500Y-84447960D01*
X105927500Y-84447962D01*
X105927499Y-84447962D01*
X104500500Y-84447962D01*
X104500500Y-58124500D01*
X104520185Y-58057461D01*
X104572989Y-58011706D01*
X104624500Y-58000500D01*
X198375500Y-58000500D01*
X198442539Y-58020185D01*
G37*
%TD.AperFunction*%
%TD*%
M02*
